<?xml version="1.0" encoding="utf-8"?>
<svg xmlns="http://www.w3.org/2000/svg" xmlns:xlink="http://www.w3.org/1999/xlink" width="600" height="400" viewBox="0 0 2400 1600">
<defs>
  <clipPath id="clip6100">
    <rect x="0" y="0" width="2400" height="1600"/>
  </clipPath>
</defs>
<path clip-path="url(#clip6100)" d="
M0 1600 L2400 1600 L2400 0 L0 0  Z
  " fill="#ffffff" fill-rule="evenodd" fill-opacity="1"/>
<defs>
  <clipPath id="clip6101">
    <rect x="480" y="0" width="1681" height="1600"/>
  </clipPath>
</defs>
<path clip-path="url(#clip6100)" d="
M153.898 1487.47 L2352.76 1487.47 L2352.76 47.2441 L153.898 47.2441  Z
  " fill="#ffffff" fill-rule="evenodd" fill-opacity="1"/>
<defs>
  <clipPath id="clip6102">
    <rect x="153" y="47" width="2200" height="1441"/>
  </clipPath>
</defs>
<polyline clip-path="url(#clip6102)" style="stroke:#000000; stroke-width:2; stroke-opacity:0.1; fill:none" points="
  352.088,1487.47 352.088,47.2441 
  "/>
<polyline clip-path="url(#clip6102)" style="stroke:#000000; stroke-width:2; stroke-opacity:0.1; fill:none" points="
  867.082,1487.47 867.082,47.2441 
  "/>
<polyline clip-path="url(#clip6102)" style="stroke:#000000; stroke-width:2; stroke-opacity:0.1; fill:none" points="
  1382.08,1487.47 1382.08,47.2441 
  "/>
<polyline clip-path="url(#clip6102)" style="stroke:#000000; stroke-width:2; stroke-opacity:0.1; fill:none" points="
  1897.07,1487.47 1897.07,47.2441 
  "/>
<polyline clip-path="url(#clip6102)" style="stroke:#000000; stroke-width:2; stroke-opacity:0.1; fill:none" points="
  153.898,1446.71 2352.76,1446.71 
  "/>
<polyline clip-path="url(#clip6102)" style="stroke:#000000; stroke-width:2; stroke-opacity:0.1; fill:none" points="
  153.898,1041.13 2352.76,1041.13 
  "/>
<polyline clip-path="url(#clip6102)" style="stroke:#000000; stroke-width:2; stroke-opacity:0.1; fill:none" points="
  153.898,635.544 2352.76,635.544 
  "/>
<polyline clip-path="url(#clip6102)" style="stroke:#000000; stroke-width:2; stroke-opacity:0.1; fill:none" points="
  153.898,229.96 2352.76,229.96 
  "/>
<polyline clip-path="url(#clip6100)" style="stroke:#000000; stroke-width:4; stroke-opacity:1; fill:none" points="
  153.898,1487.47 2352.76,1487.47 
  "/>
<polyline clip-path="url(#clip6100)" style="stroke:#000000; stroke-width:4; stroke-opacity:1; fill:none" points="
  153.898,1487.47 153.898,47.2441 
  "/>
<polyline clip-path="url(#clip6100)" style="stroke:#000000; stroke-width:4; stroke-opacity:1; fill:none" points="
  352.088,1487.47 352.088,1465.87 
  "/>
<polyline clip-path="url(#clip6100)" style="stroke:#000000; stroke-width:4; stroke-opacity:1; fill:none" points="
  867.082,1487.47 867.082,1465.87 
  "/>
<polyline clip-path="url(#clip6100)" style="stroke:#000000; stroke-width:4; stroke-opacity:1; fill:none" points="
  1382.08,1487.47 1382.08,1465.87 
  "/>
<polyline clip-path="url(#clip6100)" style="stroke:#000000; stroke-width:4; stroke-opacity:1; fill:none" points="
  1897.07,1487.47 1897.07,1465.87 
  "/>
<polyline clip-path="url(#clip6100)" style="stroke:#000000; stroke-width:4; stroke-opacity:1; fill:none" points="
  153.898,1446.71 186.881,1446.71 
  "/>
<polyline clip-path="url(#clip6100)" style="stroke:#000000; stroke-width:4; stroke-opacity:1; fill:none" points="
  153.898,1041.13 186.881,1041.13 
  "/>
<polyline clip-path="url(#clip6100)" style="stroke:#000000; stroke-width:4; stroke-opacity:1; fill:none" points="
  153.898,635.544 186.881,635.544 
  "/>
<polyline clip-path="url(#clip6100)" style="stroke:#000000; stroke-width:4; stroke-opacity:1; fill:none" points="
  153.898,229.96 186.881,229.96 
  "/>
<g clip-path="url(#clip6100)">
<text style="fill:#000000; fill-opacity:1; font-family:Arial,Helvetica Neue,Helvetica,sans-serif; font-size:48px; text-anchor:middle;" transform="rotate(0, 352.088, 1541.47)" x="352.088" y="1541.47">0</text>
</g>
<g clip-path="url(#clip6100)">
<text style="fill:#000000; fill-opacity:1; font-family:Arial,Helvetica Neue,Helvetica,sans-serif; font-size:48px; text-anchor:middle;" transform="rotate(0, 867.082, 1541.47)" x="867.082" y="1541.47">1</text>
</g>
<g clip-path="url(#clip6100)">
<text style="fill:#000000; fill-opacity:1; font-family:Arial,Helvetica Neue,Helvetica,sans-serif; font-size:48px; text-anchor:middle;" transform="rotate(0, 1382.08, 1541.47)" x="1382.08" y="1541.47">2</text>
</g>
<g clip-path="url(#clip6100)">
<text style="fill:#000000; fill-opacity:1; font-family:Arial,Helvetica Neue,Helvetica,sans-serif; font-size:48px; text-anchor:middle;" transform="rotate(0, 1897.07, 1541.47)" x="1897.07" y="1541.47">3</text>
</g>
<g clip-path="url(#clip6100)">
<text style="fill:#000000; fill-opacity:1; font-family:Arial,Helvetica Neue,Helvetica,sans-serif; font-size:48px; text-anchor:end;" transform="rotate(0, 129.898, 1464.21)" x="129.898" y="1464.21">0.0</text>
</g>
<g clip-path="url(#clip6100)">
<text style="fill:#000000; fill-opacity:1; font-family:Arial,Helvetica Neue,Helvetica,sans-serif; font-size:48px; text-anchor:end;" transform="rotate(0, 129.898, 1058.63)" x="129.898" y="1058.63">0.5</text>
</g>
<g clip-path="url(#clip6100)">
<text style="fill:#000000; fill-opacity:1; font-family:Arial,Helvetica Neue,Helvetica,sans-serif; font-size:48px; text-anchor:end;" transform="rotate(0, 129.898, 653.044)" x="129.898" y="653.044">1.0</text>
</g>
<g clip-path="url(#clip6100)">
<text style="fill:#000000; fill-opacity:1; font-family:Arial,Helvetica Neue,Helvetica,sans-serif; font-size:48px; text-anchor:end;" transform="rotate(0, 129.898, 247.46)" x="129.898" y="247.46">1.5</text>
</g>
<path clip-path="url(#clip6102)" d="
M712.584 1442.66 L712.584 1446.71 L722.884 1446.71 L722.884 1442.66 L712.584 1442.66 L712.584 1442.66  Z
  " fill="#009af9" fill-rule="evenodd" fill-opacity="0.7"/>
<polyline clip-path="url(#clip6102)" style="stroke:#000000; stroke-width:4; stroke-opacity:0.7; fill:none" points="
  712.584,1442.66 712.584,1446.71 722.884,1446.71 722.884,1442.66 712.584,1442.66 
  "/>
<path clip-path="url(#clip6102)" d="
M722.884 1446.71 L722.884 1446.71 L733.183 1446.71 L733.183 1446.71 L722.884 1446.71 L722.884 1446.71  Z
  " fill="#009af9" fill-rule="evenodd" fill-opacity="0.7"/>
<polyline clip-path="url(#clip6102)" style="stroke:#000000; stroke-width:4; stroke-opacity:0.7; fill:none" points="
  722.884,1446.71 722.884,1446.71 733.183,1446.71 722.884,1446.71 
  "/>
<path clip-path="url(#clip6102)" d="
M733.183 1446.71 L733.183 1446.71 L743.483 1446.71 L743.483 1446.71 L733.183 1446.71 L733.183 1446.71  Z
  " fill="#009af9" fill-rule="evenodd" fill-opacity="0.7"/>
<polyline clip-path="url(#clip6102)" style="stroke:#000000; stroke-width:4; stroke-opacity:0.7; fill:none" points="
  733.183,1446.71 733.183,1446.71 743.483,1446.71 733.183,1446.71 
  "/>
<path clip-path="url(#clip6102)" d="
M743.483 1446.71 L743.483 1446.71 L753.783 1446.71 L753.783 1446.71 L743.483 1446.71 L743.483 1446.71  Z
  " fill="#009af9" fill-rule="evenodd" fill-opacity="0.7"/>
<polyline clip-path="url(#clip6102)" style="stroke:#000000; stroke-width:4; stroke-opacity:0.7; fill:none" points="
  743.483,1446.71 743.483,1446.71 753.783,1446.71 743.483,1446.71 
  "/>
<path clip-path="url(#clip6102)" d="
M753.783 1446.71 L753.783 1446.71 L764.083 1446.71 L764.083 1446.71 L753.783 1446.71 L753.783 1446.71  Z
  " fill="#009af9" fill-rule="evenodd" fill-opacity="0.7"/>
<polyline clip-path="url(#clip6102)" style="stroke:#000000; stroke-width:4; stroke-opacity:0.7; fill:none" points="
  753.783,1446.71 753.783,1446.71 764.083,1446.71 753.783,1446.71 
  "/>
<path clip-path="url(#clip6102)" d="
M764.083 1446.71 L764.083 1446.71 L774.383 1446.71 L774.383 1446.71 L764.083 1446.71 L764.083 1446.71  Z
  " fill="#009af9" fill-rule="evenodd" fill-opacity="0.7"/>
<polyline clip-path="url(#clip6102)" style="stroke:#000000; stroke-width:4; stroke-opacity:0.7; fill:none" points="
  764.083,1446.71 764.083,1446.71 774.383,1446.71 764.083,1446.71 
  "/>
<path clip-path="url(#clip6102)" d="
M774.383 1442.66 L774.383 1446.71 L784.683 1446.71 L784.683 1442.66 L774.383 1442.66 L774.383 1442.66  Z
  " fill="#009af9" fill-rule="evenodd" fill-opacity="0.7"/>
<polyline clip-path="url(#clip6102)" style="stroke:#000000; stroke-width:4; stroke-opacity:0.7; fill:none" points="
  774.383,1442.66 774.383,1446.71 784.683,1446.71 784.683,1442.66 774.383,1442.66 
  "/>
<path clip-path="url(#clip6102)" d="
M784.683 1446.71 L784.683 1446.71 L794.983 1446.71 L794.983 1446.71 L784.683 1446.71 L784.683 1446.71  Z
  " fill="#009af9" fill-rule="evenodd" fill-opacity="0.7"/>
<polyline clip-path="url(#clip6102)" style="stroke:#000000; stroke-width:4; stroke-opacity:0.7; fill:none" points="
  784.683,1446.71 784.683,1446.71 794.983,1446.71 784.683,1446.71 
  "/>
<path clip-path="url(#clip6102)" d="
M794.983 1446.71 L794.983 1446.71 L805.282 1446.71 L805.282 1446.71 L794.983 1446.71 L794.983 1446.71  Z
  " fill="#009af9" fill-rule="evenodd" fill-opacity="0.7"/>
<polyline clip-path="url(#clip6102)" style="stroke:#000000; stroke-width:4; stroke-opacity:0.7; fill:none" points="
  794.983,1446.71 794.983,1446.71 805.282,1446.71 794.983,1446.71 
  "/>
<path clip-path="url(#clip6102)" d="
M805.282 1446.71 L805.282 1446.71 L815.582 1446.71 L815.582 1446.71 L805.282 1446.71 L805.282 1446.71  Z
  " fill="#009af9" fill-rule="evenodd" fill-opacity="0.7"/>
<polyline clip-path="url(#clip6102)" style="stroke:#000000; stroke-width:4; stroke-opacity:0.7; fill:none" points="
  805.282,1446.71 805.282,1446.71 815.582,1446.71 805.282,1446.71 
  "/>
<path clip-path="url(#clip6102)" d="
M815.582 1446.71 L815.582 1446.71 L825.882 1446.71 L825.882 1446.71 L815.582 1446.71 L815.582 1446.71  Z
  " fill="#009af9" fill-rule="evenodd" fill-opacity="0.7"/>
<polyline clip-path="url(#clip6102)" style="stroke:#000000; stroke-width:4; stroke-opacity:0.7; fill:none" points="
  815.582,1446.71 815.582,1446.71 825.882,1446.71 815.582,1446.71 
  "/>
<path clip-path="url(#clip6102)" d="
M825.882 1446.71 L825.882 1446.71 L836.182 1446.71 L836.182 1446.71 L825.882 1446.71 L825.882 1446.71  Z
  " fill="#009af9" fill-rule="evenodd" fill-opacity="0.7"/>
<polyline clip-path="url(#clip6102)" style="stroke:#000000; stroke-width:4; stroke-opacity:0.7; fill:none" points="
  825.882,1446.71 825.882,1446.71 836.182,1446.71 825.882,1446.71 
  "/>
<path clip-path="url(#clip6102)" d="
M836.182 1442.66 L836.182 1446.71 L846.482 1446.71 L846.482 1442.66 L836.182 1442.66 L836.182 1442.66  Z
  " fill="#009af9" fill-rule="evenodd" fill-opacity="0.7"/>
<polyline clip-path="url(#clip6102)" style="stroke:#000000; stroke-width:4; stroke-opacity:0.7; fill:none" points="
  836.182,1442.66 836.182,1446.71 846.482,1446.71 846.482,1442.66 836.182,1442.66 
  "/>
<path clip-path="url(#clip6102)" d="
M846.482 1438.6 L846.482 1446.71 L856.782 1446.71 L856.782 1438.6 L846.482 1438.6 L846.482 1438.6  Z
  " fill="#009af9" fill-rule="evenodd" fill-opacity="0.7"/>
<polyline clip-path="url(#clip6102)" style="stroke:#000000; stroke-width:4; stroke-opacity:0.7; fill:none" points="
  846.482,1438.6 846.482,1446.71 856.782,1446.71 856.782,1438.6 846.482,1438.6 
  "/>
<path clip-path="url(#clip6102)" d="
M856.782 1446.71 L856.782 1446.71 L867.082 1446.71 L867.082 1446.71 L856.782 1446.71 L856.782 1446.71  Z
  " fill="#009af9" fill-rule="evenodd" fill-opacity="0.7"/>
<polyline clip-path="url(#clip6102)" style="stroke:#000000; stroke-width:4; stroke-opacity:0.7; fill:none" points="
  856.782,1446.71 856.782,1446.71 867.082,1446.71 856.782,1446.71 
  "/>
<path clip-path="url(#clip6102)" d="
M867.082 1446.71 L867.082 1446.71 L877.382 1446.71 L877.382 1446.71 L867.082 1446.71 L867.082 1446.71  Z
  " fill="#009af9" fill-rule="evenodd" fill-opacity="0.7"/>
<polyline clip-path="url(#clip6102)" style="stroke:#000000; stroke-width:4; stroke-opacity:0.7; fill:none" points="
  867.082,1446.71 867.082,1446.71 877.382,1446.71 867.082,1446.71 
  "/>
<path clip-path="url(#clip6102)" d="
M877.382 1430.49 L877.382 1446.71 L887.681 1446.71 L887.681 1430.49 L877.382 1430.49 L877.382 1430.49  Z
  " fill="#009af9" fill-rule="evenodd" fill-opacity="0.7"/>
<polyline clip-path="url(#clip6102)" style="stroke:#000000; stroke-width:4; stroke-opacity:0.7; fill:none" points="
  877.382,1430.49 877.382,1446.71 887.681,1446.71 887.681,1430.49 877.382,1430.49 
  "/>
<path clip-path="url(#clip6102)" d="
M887.681 1438.6 L887.681 1446.71 L897.981 1446.71 L897.981 1438.6 L887.681 1438.6 L887.681 1438.6  Z
  " fill="#009af9" fill-rule="evenodd" fill-opacity="0.7"/>
<polyline clip-path="url(#clip6102)" style="stroke:#000000; stroke-width:4; stroke-opacity:0.7; fill:none" points="
  887.681,1438.6 887.681,1446.71 897.981,1446.71 897.981,1438.6 887.681,1438.6 
  "/>
<path clip-path="url(#clip6102)" d="
M897.981 1426.43 L897.981 1446.71 L908.281 1446.71 L908.281 1426.43 L897.981 1426.43 L897.981 1426.43  Z
  " fill="#009af9" fill-rule="evenodd" fill-opacity="0.7"/>
<polyline clip-path="url(#clip6102)" style="stroke:#000000; stroke-width:4; stroke-opacity:0.7; fill:none" points="
  897.981,1426.43 897.981,1446.71 908.281,1446.71 908.281,1426.43 897.981,1426.43 
  "/>
<path clip-path="url(#clip6102)" d="
M908.281 1426.43 L908.281 1446.71 L918.581 1446.71 L918.581 1426.43 L908.281 1426.43 L908.281 1426.43  Z
  " fill="#009af9" fill-rule="evenodd" fill-opacity="0.7"/>
<polyline clip-path="url(#clip6102)" style="stroke:#000000; stroke-width:4; stroke-opacity:0.7; fill:none" points="
  908.281,1426.43 908.281,1446.71 918.581,1446.71 918.581,1426.43 908.281,1426.43 
  "/>
<path clip-path="url(#clip6102)" d="
M918.581 1414.27 L918.581 1446.71 L928.881 1446.71 L928.881 1414.27 L918.581 1414.27 L918.581 1414.27  Z
  " fill="#009af9" fill-rule="evenodd" fill-opacity="0.7"/>
<polyline clip-path="url(#clip6102)" style="stroke:#000000; stroke-width:4; stroke-opacity:0.7; fill:none" points="
  918.581,1414.27 918.581,1446.71 928.881,1446.71 928.881,1414.27 918.581,1414.27 
  "/>
<path clip-path="url(#clip6102)" d="
M928.881 1410.21 L928.881 1446.71 L939.181 1446.71 L939.181 1410.21 L928.881 1410.21 L928.881 1410.21  Z
  " fill="#009af9" fill-rule="evenodd" fill-opacity="0.7"/>
<polyline clip-path="url(#clip6102)" style="stroke:#000000; stroke-width:4; stroke-opacity:0.7; fill:none" points="
  928.881,1410.21 928.881,1446.71 939.181,1446.71 939.181,1410.21 928.881,1410.21 
  "/>
<path clip-path="url(#clip6102)" d="
M939.181 1393.99 L939.181 1446.71 L949.481 1446.71 L949.481 1393.99 L939.181 1393.99 L939.181 1393.99  Z
  " fill="#009af9" fill-rule="evenodd" fill-opacity="0.7"/>
<polyline clip-path="url(#clip6102)" style="stroke:#000000; stroke-width:4; stroke-opacity:0.7; fill:none" points="
  939.181,1393.99 939.181,1446.71 949.481,1446.71 949.481,1393.99 939.181,1393.99 
  "/>
<path clip-path="url(#clip6102)" d="
M949.481 1393.99 L949.481 1446.71 L959.781 1446.71 L959.781 1393.99 L949.481 1393.99 L949.481 1393.99  Z
  " fill="#009af9" fill-rule="evenodd" fill-opacity="0.7"/>
<polyline clip-path="url(#clip6102)" style="stroke:#000000; stroke-width:4; stroke-opacity:0.7; fill:none" points="
  949.481,1393.99 949.481,1446.71 959.781,1446.71 959.781,1393.99 949.481,1393.99 
  "/>
<path clip-path="url(#clip6102)" d="
M959.781 1381.82 L959.781 1446.71 L970.08 1446.71 L970.08 1381.82 L959.781 1381.82 L959.781 1381.82  Z
  " fill="#009af9" fill-rule="evenodd" fill-opacity="0.7"/>
<polyline clip-path="url(#clip6102)" style="stroke:#000000; stroke-width:4; stroke-opacity:0.7; fill:none" points="
  959.781,1381.82 959.781,1446.71 970.08,1446.71 970.08,1381.82 959.781,1381.82 
  "/>
<path clip-path="url(#clip6102)" d="
M970.08 1389.93 L970.08 1446.71 L980.38 1446.71 L980.38 1389.93 L970.08 1389.93 L970.08 1389.93  Z
  " fill="#009af9" fill-rule="evenodd" fill-opacity="0.7"/>
<polyline clip-path="url(#clip6102)" style="stroke:#000000; stroke-width:4; stroke-opacity:0.7; fill:none" points="
  970.08,1389.93 970.08,1446.71 980.38,1446.71 980.38,1389.93 970.08,1389.93 
  "/>
<path clip-path="url(#clip6102)" d="
M980.38 1333.15 L980.38 1446.71 L990.68 1446.71 L990.68 1333.15 L980.38 1333.15 L980.38 1333.15  Z
  " fill="#009af9" fill-rule="evenodd" fill-opacity="0.7"/>
<polyline clip-path="url(#clip6102)" style="stroke:#000000; stroke-width:4; stroke-opacity:0.7; fill:none" points="
  980.38,1333.15 980.38,1446.71 990.68,1446.71 990.68,1333.15 980.38,1333.15 
  "/>
<path clip-path="url(#clip6102)" d="
M990.68 1333.15 L990.68 1446.71 L1000.98 1446.71 L1000.98 1333.15 L990.68 1333.15 L990.68 1333.15  Z
  " fill="#009af9" fill-rule="evenodd" fill-opacity="0.7"/>
<polyline clip-path="url(#clip6102)" style="stroke:#000000; stroke-width:4; stroke-opacity:0.7; fill:none" points="
  990.68,1333.15 990.68,1446.71 1000.98,1446.71 1000.98,1333.15 990.68,1333.15 
  "/>
<path clip-path="url(#clip6102)" d="
M1000.98 1268.26 L1000.98 1446.71 L1011.28 1446.71 L1011.28 1268.26 L1000.98 1268.26 L1000.98 1268.26  Z
  " fill="#009af9" fill-rule="evenodd" fill-opacity="0.7"/>
<polyline clip-path="url(#clip6102)" style="stroke:#000000; stroke-width:4; stroke-opacity:0.7; fill:none" points="
  1000.98,1268.26 1000.98,1446.71 1011.28,1446.71 1011.28,1268.26 1000.98,1268.26 
  "/>
<path clip-path="url(#clip6102)" d="
M1011.28 1300.7 L1011.28 1446.71 L1021.58 1446.71 L1021.58 1300.7 L1011.28 1300.7 L1011.28 1300.7  Z
  " fill="#009af9" fill-rule="evenodd" fill-opacity="0.7"/>
<polyline clip-path="url(#clip6102)" style="stroke:#000000; stroke-width:4; stroke-opacity:0.7; fill:none" points="
  1011.28,1300.7 1011.28,1446.71 1021.58,1446.71 1021.58,1300.7 1011.28,1300.7 
  "/>
<path clip-path="url(#clip6102)" d="
M1021.58 1247.98 L1021.58 1446.71 L1031.88 1446.71 L1031.88 1247.98 L1021.58 1247.98 L1021.58 1247.98  Z
  " fill="#009af9" fill-rule="evenodd" fill-opacity="0.7"/>
<polyline clip-path="url(#clip6102)" style="stroke:#000000; stroke-width:4; stroke-opacity:0.7; fill:none" points="
  1021.58,1247.98 1021.58,1446.71 1031.88,1446.71 1031.88,1247.98 1021.58,1247.98 
  "/>
<path clip-path="url(#clip6102)" d="
M1031.88 1170.92 L1031.88 1446.71 L1042.18 1446.71 L1042.18 1170.92 L1031.88 1170.92 L1031.88 1170.92  Z
  " fill="#009af9" fill-rule="evenodd" fill-opacity="0.7"/>
<polyline clip-path="url(#clip6102)" style="stroke:#000000; stroke-width:4; stroke-opacity:0.7; fill:none" points="
  1031.88,1170.92 1031.88,1446.71 1042.18,1446.71 1042.18,1170.92 1031.88,1170.92 
  "/>
<path clip-path="url(#clip6102)" d="
M1042.18 1211.47 L1042.18 1446.71 L1052.48 1446.71 L1052.48 1211.47 L1042.18 1211.47 L1042.18 1211.47  Z
  " fill="#009af9" fill-rule="evenodd" fill-opacity="0.7"/>
<polyline clip-path="url(#clip6102)" style="stroke:#000000; stroke-width:4; stroke-opacity:0.7; fill:none" points="
  1042.18,1211.47 1042.18,1446.71 1052.48,1446.71 1052.48,1211.47 1042.18,1211.47 
  "/>
<path clip-path="url(#clip6102)" d="
M1052.48 1170.92 L1052.48 1446.71 L1062.78 1446.71 L1062.78 1170.92 L1052.48 1170.92 L1052.48 1170.92  Z
  " fill="#009af9" fill-rule="evenodd" fill-opacity="0.7"/>
<polyline clip-path="url(#clip6102)" style="stroke:#000000; stroke-width:4; stroke-opacity:0.7; fill:none" points="
  1052.48,1170.92 1052.48,1446.71 1062.78,1446.71 1062.78,1170.92 1052.48,1170.92 
  "/>
<path clip-path="url(#clip6102)" d="
M1062.78 1134.41 L1062.78 1446.71 L1073.08 1446.71 L1073.08 1134.41 L1062.78 1134.41 L1062.78 1134.41  Z
  " fill="#009af9" fill-rule="evenodd" fill-opacity="0.7"/>
<polyline clip-path="url(#clip6102)" style="stroke:#000000; stroke-width:4; stroke-opacity:0.7; fill:none" points="
  1062.78,1134.41 1062.78,1446.71 1073.08,1446.71 1073.08,1134.41 1062.78,1134.41 
  "/>
<path clip-path="url(#clip6102)" d="
M1073.08 996.515 L1073.08 1446.71 L1083.38 1446.71 L1083.38 996.515 L1073.08 996.515 L1073.08 996.515  Z
  " fill="#009af9" fill-rule="evenodd" fill-opacity="0.7"/>
<polyline clip-path="url(#clip6102)" style="stroke:#000000; stroke-width:4; stroke-opacity:0.7; fill:none" points="
  1073.08,996.515 1073.08,1446.71 1083.38,1446.71 1083.38,996.515 1073.08,996.515 
  "/>
<path clip-path="url(#clip6102)" d="
M1083.38 1041.13 L1083.38 1446.71 L1093.68 1446.71 L1093.68 1041.13 L1083.38 1041.13 L1083.38 1041.13  Z
  " fill="#009af9" fill-rule="evenodd" fill-opacity="0.7"/>
<polyline clip-path="url(#clip6102)" style="stroke:#000000; stroke-width:4; stroke-opacity:0.7; fill:none" points="
  1083.38,1041.13 1083.38,1446.71 1093.68,1446.71 1093.68,1041.13 1083.38,1041.13 
  "/>
<path clip-path="url(#clip6102)" d="
M1093.68 907.286 L1093.68 1446.71 L1103.98 1446.71 L1103.98 907.286 L1093.68 907.286 L1093.68 907.286  Z
  " fill="#009af9" fill-rule="evenodd" fill-opacity="0.7"/>
<polyline clip-path="url(#clip6102)" style="stroke:#000000; stroke-width:4; stroke-opacity:0.7; fill:none" points="
  1093.68,907.286 1093.68,1446.71 1103.98,1446.71 1103.98,907.286 1093.68,907.286 
  "/>
<path clip-path="url(#clip6102)" d="
M1103.98 907.286 L1103.98 1446.71 L1114.28 1446.71 L1114.28 907.286 L1103.98 907.286 L1103.98 907.286  Z
  " fill="#009af9" fill-rule="evenodd" fill-opacity="0.7"/>
<polyline clip-path="url(#clip6102)" style="stroke:#000000; stroke-width:4; stroke-opacity:0.7; fill:none" points="
  1103.98,907.286 1103.98,1446.71 1114.28,1446.71 1114.28,907.286 1103.98,907.286 
  "/>
<path clip-path="url(#clip6102)" d="
M1114.28 753.164 L1114.28 1446.71 L1124.58 1446.71 L1124.58 753.164 L1114.28 753.164 L1114.28 753.164  Z
  " fill="#009af9" fill-rule="evenodd" fill-opacity="0.7"/>
<polyline clip-path="url(#clip6102)" style="stroke:#000000; stroke-width:4; stroke-opacity:0.7; fill:none" points="
  1114.28,753.164 1114.28,1446.71 1124.58,1446.71 1124.58,753.164 1114.28,753.164 
  "/>
<path clip-path="url(#clip6102)" d="
M1124.58 659.88 L1124.58 1446.71 L1134.88 1446.71 L1134.88 659.88 L1124.58 659.88 L1124.58 659.88  Z
  " fill="#009af9" fill-rule="evenodd" fill-opacity="0.7"/>
<polyline clip-path="url(#clip6102)" style="stroke:#000000; stroke-width:4; stroke-opacity:0.7; fill:none" points="
  1124.58,659.88 1124.58,1446.71 1134.88,1446.71 1134.88,659.88 1124.58,659.88 
  "/>
<path clip-path="url(#clip6102)" d="
M1134.88 611.209 L1134.88 1446.71 L1145.18 1446.71 L1145.18 611.209 L1134.88 611.209 L1134.88 611.209  Z
  " fill="#009af9" fill-rule="evenodd" fill-opacity="0.7"/>
<polyline clip-path="url(#clip6102)" style="stroke:#000000; stroke-width:4; stroke-opacity:0.7; fill:none" points="
  1134.88,611.209 1134.88,1446.71 1145.18,1446.71 1145.18,611.209 1134.88,611.209 
  "/>
<path clip-path="url(#clip6102)" d="
M1145.18 611.209 L1145.18 1446.71 L1155.48 1446.71 L1155.48 611.209 L1145.18 611.209 L1145.18 611.209  Z
  " fill="#009af9" fill-rule="evenodd" fill-opacity="0.7"/>
<polyline clip-path="url(#clip6102)" style="stroke:#000000; stroke-width:4; stroke-opacity:0.7; fill:none" points="
  1145.18,611.209 1145.18,1446.71 1155.48,1446.71 1155.48,611.209 1145.18,611.209 
  "/>
<path clip-path="url(#clip6102)" d="
M1155.48 635.544 L1155.48 1446.71 L1165.78 1446.71 L1165.78 635.544 L1155.48 635.544 L1155.48 635.544  Z
  " fill="#009af9" fill-rule="evenodd" fill-opacity="0.7"/>
<polyline clip-path="url(#clip6102)" style="stroke:#000000; stroke-width:4; stroke-opacity:0.7; fill:none" points="
  1155.48,635.544 1155.48,1446.71 1165.78,1446.71 1165.78,635.544 1155.48,635.544 
  "/>
<path clip-path="url(#clip6102)" d="
M1165.78 477.366 L1165.78 1446.71 L1176.08 1446.71 L1176.08 477.366 L1165.78 477.366 L1165.78 477.366  Z
  " fill="#009af9" fill-rule="evenodd" fill-opacity="0.7"/>
<polyline clip-path="url(#clip6102)" style="stroke:#000000; stroke-width:4; stroke-opacity:0.7; fill:none" points="
  1165.78,477.366 1165.78,1446.71 1176.08,1446.71 1176.08,477.366 1165.78,477.366 
  "/>
<path clip-path="url(#clip6102)" d="
M1176.08 367.859 L1176.08 1446.71 L1186.38 1446.71 L1186.38 367.859 L1176.08 367.859 L1176.08 367.859  Z
  " fill="#009af9" fill-rule="evenodd" fill-opacity="0.7"/>
<polyline clip-path="url(#clip6102)" style="stroke:#000000; stroke-width:4; stroke-opacity:0.7; fill:none" points="
  1176.08,367.859 1176.08,1446.71 1186.38,1446.71 1186.38,367.859 1176.08,367.859 
  "/>
<path clip-path="url(#clip6102)" d="
M1186.38 424.64 L1186.38 1446.71 L1196.68 1446.71 L1196.68 424.64 L1186.38 424.64 L1186.38 424.64  Z
  " fill="#009af9" fill-rule="evenodd" fill-opacity="0.7"/>
<polyline clip-path="url(#clip6102)" style="stroke:#000000; stroke-width:4; stroke-opacity:0.7; fill:none" points="
  1186.38,424.64 1186.38,1446.71 1196.68,1446.71 1196.68,424.64 1186.38,424.64 
  "/>
<path clip-path="url(#clip6102)" d="
M1196.68 367.859 L1196.68 1446.71 L1206.98 1446.71 L1206.98 367.859 L1196.68 367.859 L1196.68 367.859  Z
  " fill="#009af9" fill-rule="evenodd" fill-opacity="0.7"/>
<polyline clip-path="url(#clip6102)" style="stroke:#000000; stroke-width:4; stroke-opacity:0.7; fill:none" points="
  1196.68,367.859 1196.68,1446.71 1206.98,1446.71 1206.98,367.859 1196.68,367.859 
  "/>
<path clip-path="url(#clip6102)" d="
M1206.98 290.798 L1206.98 1446.71 L1217.28 1446.71 L1217.28 290.798 L1206.98 290.798 L1206.98 290.798  Z
  " fill="#009af9" fill-rule="evenodd" fill-opacity="0.7"/>
<polyline clip-path="url(#clip6102)" style="stroke:#000000; stroke-width:4; stroke-opacity:0.7; fill:none" points="
  1206.98,290.798 1206.98,1446.71 1217.28,1446.71 1217.28,290.798 1206.98,290.798 
  "/>
<path clip-path="url(#clip6102)" d="
M1217.28 339.468 L1217.28 1446.71 L1227.58 1446.71 L1227.58 339.468 L1217.28 339.468 L1217.28 339.468  Z
  " fill="#009af9" fill-rule="evenodd" fill-opacity="0.7"/>
<polyline clip-path="url(#clip6102)" style="stroke:#000000; stroke-width:4; stroke-opacity:0.7; fill:none" points="
  1217.28,339.468 1217.28,1446.71 1227.58,1446.71 1227.58,339.468 1217.28,339.468 
  "/>
<path clip-path="url(#clip6102)" d="
M1227.58 152.899 L1227.58 1446.71 L1237.88 1446.71 L1237.88 152.899 L1227.58 152.899 L1227.58 152.899  Z
  " fill="#009af9" fill-rule="evenodd" fill-opacity="0.7"/>
<polyline clip-path="url(#clip6102)" style="stroke:#000000; stroke-width:4; stroke-opacity:0.7; fill:none" points="
  1227.58,152.899 1227.58,1446.71 1237.88,1446.71 1237.88,152.899 1227.58,152.899 
  "/>
<path clip-path="url(#clip6102)" d="
M1237.88 104.229 L1237.88 1446.71 L1248.18 1446.71 L1248.18 104.229 L1237.88 104.229 L1237.88 104.229  Z
  " fill="#009af9" fill-rule="evenodd" fill-opacity="0.7"/>
<polyline clip-path="url(#clip6102)" style="stroke:#000000; stroke-width:4; stroke-opacity:0.7; fill:none" points="
  1237.88,104.229 1237.88,1446.71 1248.18,1446.71 1248.18,104.229 1237.88,104.229 
  "/>
<path clip-path="url(#clip6102)" d="
M1248.18 124.508 L1248.18 1446.71 L1258.48 1446.71 L1258.48 124.508 L1248.18 124.508 L1248.18 124.508  Z
  " fill="#009af9" fill-rule="evenodd" fill-opacity="0.7"/>
<polyline clip-path="url(#clip6102)" style="stroke:#000000; stroke-width:4; stroke-opacity:0.7; fill:none" points="
  1248.18,124.508 1248.18,1446.71 1258.48,1446.71 1258.48,124.508 1248.18,124.508 
  "/>
<path clip-path="url(#clip6102)" d="
M1258.48 120.452 L1258.48 1446.71 L1268.78 1446.71 L1268.78 120.452 L1258.48 120.452 L1258.48 120.452  Z
  " fill="#009af9" fill-rule="evenodd" fill-opacity="0.7"/>
<polyline clip-path="url(#clip6102)" style="stroke:#000000; stroke-width:4; stroke-opacity:0.7; fill:none" points="
  1258.48,120.452 1258.48,1446.71 1268.78,1446.71 1268.78,120.452 1258.48,120.452 
  "/>
<path clip-path="url(#clip6102)" d="
M1268.78 156.955 L1268.78 1446.71 L1279.08 1446.71 L1279.08 156.955 L1268.78 156.955 L1268.78 156.955  Z
  " fill="#009af9" fill-rule="evenodd" fill-opacity="0.7"/>
<polyline clip-path="url(#clip6102)" style="stroke:#000000; stroke-width:4; stroke-opacity:0.7; fill:none" points="
  1268.78,156.955 1268.78,1446.71 1279.08,1446.71 1279.08,156.955 1268.78,156.955 
  "/>
<path clip-path="url(#clip6102)" d="
M1279.08 88.0053 L1279.08 1446.71 L1289.38 1446.71 L1289.38 88.0053 L1279.08 88.0053 L1279.08 88.0053  Z
  " fill="#009af9" fill-rule="evenodd" fill-opacity="0.7"/>
<polyline clip-path="url(#clip6102)" style="stroke:#000000; stroke-width:4; stroke-opacity:0.7; fill:none" points="
  1279.08,88.0053 1279.08,1446.71 1289.38,1446.71 1289.38,88.0053 1279.08,88.0053 
  "/>
<path clip-path="url(#clip6102)" d="
M1289.38 258.351 L1289.38 1446.71 L1299.68 1446.71 L1299.68 258.351 L1289.38 258.351 L1289.38 258.351  Z
  " fill="#009af9" fill-rule="evenodd" fill-opacity="0.7"/>
<polyline clip-path="url(#clip6102)" style="stroke:#000000; stroke-width:4; stroke-opacity:0.7; fill:none" points="
  1289.38,258.351 1289.38,1446.71 1299.68,1446.71 1299.68,258.351 1289.38,258.351 
  "/>
<path clip-path="url(#clip6102)" d="
M1299.68 112.34 L1299.68 1446.71 L1309.98 1446.71 L1309.98 112.34 L1299.68 112.34 L1299.68 112.34  Z
  " fill="#009af9" fill-rule="evenodd" fill-opacity="0.7"/>
<polyline clip-path="url(#clip6102)" style="stroke:#000000; stroke-width:4; stroke-opacity:0.7; fill:none" points="
  1299.68,112.34 1299.68,1446.71 1309.98,1446.71 1309.98,112.34 1299.68,112.34 
  "/>
<path clip-path="url(#clip6102)" d="
M1309.98 234.016 L1309.98 1446.71 L1320.28 1446.71 L1320.28 234.016 L1309.98 234.016 L1309.98 234.016  Z
  " fill="#009af9" fill-rule="evenodd" fill-opacity="0.7"/>
<polyline clip-path="url(#clip6102)" style="stroke:#000000; stroke-width:4; stroke-opacity:0.7; fill:none" points="
  1309.98,234.016 1309.98,1446.71 1320.28,1446.71 1320.28,234.016 1309.98,234.016 
  "/>
<path clip-path="url(#clip6102)" d="
M1320.28 254.295 L1320.28 1446.71 L1330.58 1446.71 L1330.58 254.295 L1320.28 254.295 L1320.28 254.295  Z
  " fill="#009af9" fill-rule="evenodd" fill-opacity="0.7"/>
<polyline clip-path="url(#clip6102)" style="stroke:#000000; stroke-width:4; stroke-opacity:0.7; fill:none" points="
  1320.28,254.295 1320.28,1446.71 1330.58,1446.71 1330.58,254.295 1320.28,254.295 
  "/>
<path clip-path="url(#clip6102)" d="
M1330.58 363.803 L1330.58 1446.71 L1340.88 1446.71 L1340.88 363.803 L1330.58 363.803 L1330.58 363.803  Z
  " fill="#009af9" fill-rule="evenodd" fill-opacity="0.7"/>
<polyline clip-path="url(#clip6102)" style="stroke:#000000; stroke-width:4; stroke-opacity:0.7; fill:none" points="
  1330.58,363.803 1330.58,1446.71 1340.88,1446.71 1340.88,363.803 1330.58,363.803 
  "/>
<path clip-path="url(#clip6102)" d="
M1340.88 424.64 L1340.88 1446.71 L1351.18 1446.71 L1351.18 424.64 L1340.88 424.64 L1340.88 424.64  Z
  " fill="#009af9" fill-rule="evenodd" fill-opacity="0.7"/>
<polyline clip-path="url(#clip6102)" style="stroke:#000000; stroke-width:4; stroke-opacity:0.7; fill:none" points="
  1340.88,424.64 1340.88,1446.71 1351.18,1446.71 1351.18,424.64 1340.88,424.64 
  "/>
<path clip-path="url(#clip6102)" d="
M1351.18 404.361 L1351.18 1446.71 L1361.48 1446.71 L1361.48 404.361 L1351.18 404.361 L1351.18 404.361  Z
  " fill="#009af9" fill-rule="evenodd" fill-opacity="0.7"/>
<polyline clip-path="url(#clip6102)" style="stroke:#000000; stroke-width:4; stroke-opacity:0.7; fill:none" points="
  1351.18,404.361 1351.18,1446.71 1361.48,1446.71 1361.48,404.361 1351.18,404.361 
  "/>
<path clip-path="url(#clip6102)" d="
M1361.48 509.813 L1361.48 1446.71 L1371.78 1446.71 L1371.78 509.813 L1361.48 509.813 L1361.48 509.813  Z
  " fill="#009af9" fill-rule="evenodd" fill-opacity="0.7"/>
<polyline clip-path="url(#clip6102)" style="stroke:#000000; stroke-width:4; stroke-opacity:0.7; fill:none" points="
  1361.48,509.813 1361.48,1446.71 1371.78,1446.71 1371.78,509.813 1361.48,509.813 
  "/>
<path clip-path="url(#clip6102)" d="
M1371.78 534.148 L1371.78 1446.71 L1382.08 1446.71 L1382.08 534.148 L1371.78 534.148 L1371.78 534.148  Z
  " fill="#009af9" fill-rule="evenodd" fill-opacity="0.7"/>
<polyline clip-path="url(#clip6102)" style="stroke:#000000; stroke-width:4; stroke-opacity:0.7; fill:none" points="
  1371.78,534.148 1371.78,1446.71 1382.08,1446.71 1382.08,534.148 1371.78,534.148 
  "/>
<path clip-path="url(#clip6102)" d="
M1382.08 538.204 L1382.08 1446.71 L1392.38 1446.71 L1392.38 538.204 L1382.08 538.204 L1382.08 538.204  Z
  " fill="#009af9" fill-rule="evenodd" fill-opacity="0.7"/>
<polyline clip-path="url(#clip6102)" style="stroke:#000000; stroke-width:4; stroke-opacity:0.7; fill:none" points="
  1382.08,538.204 1382.08,1446.71 1392.38,1446.71 1392.38,538.204 1382.08,538.204 
  "/>
<path clip-path="url(#clip6102)" d="
M1392.38 663.935 L1392.38 1446.71 L1402.68 1446.71 L1402.68 663.935 L1392.38 663.935 L1392.38 663.935  Z
  " fill="#009af9" fill-rule="evenodd" fill-opacity="0.7"/>
<polyline clip-path="url(#clip6102)" style="stroke:#000000; stroke-width:4; stroke-opacity:0.7; fill:none" points="
  1392.38,663.935 1392.38,1446.71 1402.68,1446.71 1402.68,663.935 1392.38,663.935 
  "/>
<path clip-path="url(#clip6102)" d="
M1402.68 594.986 L1402.68 1446.71 L1412.97 1446.71 L1412.97 594.986 L1402.68 594.986 L1402.68 594.986  Z
  " fill="#009af9" fill-rule="evenodd" fill-opacity="0.7"/>
<polyline clip-path="url(#clip6102)" style="stroke:#000000; stroke-width:4; stroke-opacity:0.7; fill:none" points="
  1402.68,594.986 1402.68,1446.71 1412.97,1446.71 1412.97,594.986 1402.68,594.986 
  "/>
<path clip-path="url(#clip6102)" d="
M1412.97 765.331 L1412.97 1446.71 L1423.27 1446.71 L1423.27 765.331 L1412.97 765.331 L1412.97 765.331  Z
  " fill="#009af9" fill-rule="evenodd" fill-opacity="0.7"/>
<polyline clip-path="url(#clip6102)" style="stroke:#000000; stroke-width:4; stroke-opacity:0.7; fill:none" points="
  1412.97,765.331 1412.97,1446.71 1423.27,1446.71 1423.27,765.331 1412.97,765.331 
  "/>
<path clip-path="url(#clip6102)" d="
M1423.27 724.773 L1423.27 1446.71 L1433.57 1446.71 L1433.57 724.773 L1423.27 724.773 L1423.27 724.773  Z
  " fill="#009af9" fill-rule="evenodd" fill-opacity="0.7"/>
<polyline clip-path="url(#clip6102)" style="stroke:#000000; stroke-width:4; stroke-opacity:0.7; fill:none" points="
  1423.27,724.773 1423.27,1446.71 1433.57,1446.71 1433.57,724.773 1423.27,724.773 
  "/>
<path clip-path="url(#clip6102)" d="
M1433.57 891.063 L1433.57 1446.71 L1443.87 1446.71 L1443.87 891.063 L1433.57 891.063 L1433.57 891.063  Z
  " fill="#009af9" fill-rule="evenodd" fill-opacity="0.7"/>
<polyline clip-path="url(#clip6102)" style="stroke:#000000; stroke-width:4; stroke-opacity:0.7; fill:none" points="
  1433.57,891.063 1433.57,1446.71 1443.87,1446.71 1443.87,891.063 1433.57,891.063 
  "/>
<path clip-path="url(#clip6102)" d="
M1443.87 862.672 L1443.87 1446.71 L1454.17 1446.71 L1454.17 862.672 L1443.87 862.672 L1443.87 862.672  Z
  " fill="#009af9" fill-rule="evenodd" fill-opacity="0.7"/>
<polyline clip-path="url(#clip6102)" style="stroke:#000000; stroke-width:4; stroke-opacity:0.7; fill:none" points="
  1443.87,862.672 1443.87,1446.71 1454.17,1446.71 1454.17,862.672 1443.87,862.672 
  "/>
<path clip-path="url(#clip6102)" d="
M1454.17 988.403 L1454.17 1446.71 L1464.47 1446.71 L1464.47 988.403 L1454.17 988.403 L1454.17 988.403  Z
  " fill="#009af9" fill-rule="evenodd" fill-opacity="0.7"/>
<polyline clip-path="url(#clip6102)" style="stroke:#000000; stroke-width:4; stroke-opacity:0.7; fill:none" points="
  1454.17,988.403 1454.17,1446.71 1464.47,1446.71 1464.47,988.403 1454.17,988.403 
  "/>
<path clip-path="url(#clip6102)" d="
M1464.47 1061.41 L1464.47 1446.71 L1474.77 1446.71 L1474.77 1061.41 L1464.47 1061.41 L1464.47 1061.41  Z
  " fill="#009af9" fill-rule="evenodd" fill-opacity="0.7"/>
<polyline clip-path="url(#clip6102)" style="stroke:#000000; stroke-width:4; stroke-opacity:0.7; fill:none" points="
  1464.47,1061.41 1464.47,1446.71 1474.77,1446.71 1474.77,1061.41 1464.47,1061.41 
  "/>
<path clip-path="url(#clip6102)" d="
M1474.77 1073.58 L1474.77 1446.71 L1485.07 1446.71 L1485.07 1073.58 L1474.77 1073.58 L1474.77 1073.58  Z
  " fill="#009af9" fill-rule="evenodd" fill-opacity="0.7"/>
<polyline clip-path="url(#clip6102)" style="stroke:#000000; stroke-width:4; stroke-opacity:0.7; fill:none" points="
  1474.77,1073.58 1474.77,1446.71 1485.07,1446.71 1485.07,1073.58 1474.77,1073.58 
  "/>
<path clip-path="url(#clip6102)" d="
M1485.07 1170.92 L1485.07 1446.71 L1495.37 1446.71 L1495.37 1170.92 L1485.07 1170.92 L1485.07 1170.92  Z
  " fill="#009af9" fill-rule="evenodd" fill-opacity="0.7"/>
<polyline clip-path="url(#clip6102)" style="stroke:#000000; stroke-width:4; stroke-opacity:0.7; fill:none" points="
  1485.07,1170.92 1485.07,1446.71 1495.37,1446.71 1495.37,1170.92 1485.07,1170.92 
  "/>
<path clip-path="url(#clip6102)" d="
M1495.37 1203.36 L1495.37 1446.71 L1505.67 1446.71 L1505.67 1203.36 L1495.37 1203.36 L1495.37 1203.36  Z
  " fill="#009af9" fill-rule="evenodd" fill-opacity="0.7"/>
<polyline clip-path="url(#clip6102)" style="stroke:#000000; stroke-width:4; stroke-opacity:0.7; fill:none" points="
  1495.37,1203.36 1495.37,1446.71 1505.67,1446.71 1505.67,1203.36 1495.37,1203.36 
  "/>
<path clip-path="url(#clip6102)" d="
M1505.67 1247.98 L1505.67 1446.71 L1515.97 1446.71 L1515.97 1247.98 L1505.67 1247.98 L1505.67 1247.98  Z
  " fill="#009af9" fill-rule="evenodd" fill-opacity="0.7"/>
<polyline clip-path="url(#clip6102)" style="stroke:#000000; stroke-width:4; stroke-opacity:0.7; fill:none" points="
  1505.67,1247.98 1505.67,1446.71 1515.97,1446.71 1515.97,1247.98 1505.67,1247.98 
  "/>
<path clip-path="url(#clip6102)" d="
M1515.97 1256.09 L1515.97 1446.71 L1526.27 1446.71 L1526.27 1256.09 L1515.97 1256.09 L1515.97 1256.09  Z
  " fill="#009af9" fill-rule="evenodd" fill-opacity="0.7"/>
<polyline clip-path="url(#clip6102)" style="stroke:#000000; stroke-width:4; stroke-opacity:0.7; fill:none" points="
  1515.97,1256.09 1515.97,1446.71 1526.27,1446.71 1526.27,1256.09 1515.97,1256.09 
  "/>
<path clip-path="url(#clip6102)" d="
M1526.27 1272.31 L1526.27 1446.71 L1536.57 1446.71 L1536.57 1272.31 L1526.27 1272.31 L1526.27 1272.31  Z
  " fill="#009af9" fill-rule="evenodd" fill-opacity="0.7"/>
<polyline clip-path="url(#clip6102)" style="stroke:#000000; stroke-width:4; stroke-opacity:0.7; fill:none" points="
  1526.27,1272.31 1526.27,1446.71 1536.57,1446.71 1536.57,1272.31 1526.27,1272.31 
  "/>
<path clip-path="url(#clip6102)" d="
M1536.57 1288.54 L1536.57 1446.71 L1546.87 1446.71 L1546.87 1288.54 L1536.57 1288.54 L1536.57 1288.54  Z
  " fill="#009af9" fill-rule="evenodd" fill-opacity="0.7"/>
<polyline clip-path="url(#clip6102)" style="stroke:#000000; stroke-width:4; stroke-opacity:0.7; fill:none" points="
  1536.57,1288.54 1536.57,1446.71 1546.87,1446.71 1546.87,1288.54 1536.57,1288.54 
  "/>
<path clip-path="url(#clip6102)" d="
M1546.87 1325.04 L1546.87 1446.71 L1557.17 1446.71 L1557.17 1325.04 L1546.87 1325.04 L1546.87 1325.04  Z
  " fill="#009af9" fill-rule="evenodd" fill-opacity="0.7"/>
<polyline clip-path="url(#clip6102)" style="stroke:#000000; stroke-width:4; stroke-opacity:0.7; fill:none" points="
  1546.87,1325.04 1546.87,1446.71 1557.17,1446.71 1557.17,1325.04 1546.87,1325.04 
  "/>
<path clip-path="url(#clip6102)" d="
M1557.17 1349.37 L1557.17 1446.71 L1567.47 1446.71 L1567.47 1349.37 L1557.17 1349.37 L1557.17 1349.37  Z
  " fill="#009af9" fill-rule="evenodd" fill-opacity="0.7"/>
<polyline clip-path="url(#clip6102)" style="stroke:#000000; stroke-width:4; stroke-opacity:0.7; fill:none" points="
  1557.17,1349.37 1557.17,1446.71 1567.47,1446.71 1567.47,1349.37 1557.17,1349.37 
  "/>
<path clip-path="url(#clip6102)" d="
M1567.47 1377.76 L1567.47 1446.71 L1577.77 1446.71 L1577.77 1377.76 L1567.47 1377.76 L1567.47 1377.76  Z
  " fill="#009af9" fill-rule="evenodd" fill-opacity="0.7"/>
<polyline clip-path="url(#clip6102)" style="stroke:#000000; stroke-width:4; stroke-opacity:0.7; fill:none" points="
  1567.47,1377.76 1567.47,1446.71 1577.77,1446.71 1577.77,1377.76 1567.47,1377.76 
  "/>
<path clip-path="url(#clip6102)" d="
M1577.77 1377.76 L1577.77 1446.71 L1588.07 1446.71 L1588.07 1377.76 L1577.77 1377.76 L1577.77 1377.76  Z
  " fill="#009af9" fill-rule="evenodd" fill-opacity="0.7"/>
<polyline clip-path="url(#clip6102)" style="stroke:#000000; stroke-width:4; stroke-opacity:0.7; fill:none" points="
  1577.77,1377.76 1577.77,1446.71 1588.07,1446.71 1588.07,1377.76 1577.77,1377.76 
  "/>
<path clip-path="url(#clip6102)" d="
M1588.07 1389.93 L1588.07 1446.71 L1598.37 1446.71 L1598.37 1389.93 L1588.07 1389.93 L1588.07 1389.93  Z
  " fill="#009af9" fill-rule="evenodd" fill-opacity="0.7"/>
<polyline clip-path="url(#clip6102)" style="stroke:#000000; stroke-width:4; stroke-opacity:0.7; fill:none" points="
  1588.07,1389.93 1588.07,1446.71 1598.37,1446.71 1598.37,1389.93 1588.07,1389.93 
  "/>
<path clip-path="url(#clip6102)" d="
M1598.37 1418.32 L1598.37 1446.71 L1608.67 1446.71 L1608.67 1418.32 L1598.37 1418.32 L1598.37 1418.32  Z
  " fill="#009af9" fill-rule="evenodd" fill-opacity="0.7"/>
<polyline clip-path="url(#clip6102)" style="stroke:#000000; stroke-width:4; stroke-opacity:0.7; fill:none" points="
  1598.37,1418.32 1598.37,1446.71 1608.67,1446.71 1608.67,1418.32 1598.37,1418.32 
  "/>
<path clip-path="url(#clip6102)" d="
M1608.67 1418.32 L1608.67 1446.71 L1618.97 1446.71 L1618.97 1418.32 L1608.67 1418.32 L1608.67 1418.32  Z
  " fill="#009af9" fill-rule="evenodd" fill-opacity="0.7"/>
<polyline clip-path="url(#clip6102)" style="stroke:#000000; stroke-width:4; stroke-opacity:0.7; fill:none" points="
  1608.67,1418.32 1608.67,1446.71 1618.97,1446.71 1618.97,1418.32 1608.67,1418.32 
  "/>
<path clip-path="url(#clip6102)" d="
M1618.97 1418.32 L1618.97 1446.71 L1629.27 1446.71 L1629.27 1418.32 L1618.97 1418.32 L1618.97 1418.32  Z
  " fill="#009af9" fill-rule="evenodd" fill-opacity="0.7"/>
<polyline clip-path="url(#clip6102)" style="stroke:#000000; stroke-width:4; stroke-opacity:0.7; fill:none" points="
  1618.97,1418.32 1618.97,1446.71 1629.27,1446.71 1629.27,1418.32 1618.97,1418.32 
  "/>
<path clip-path="url(#clip6102)" d="
M1629.27 1422.38 L1629.27 1446.71 L1639.57 1446.71 L1639.57 1422.38 L1629.27 1422.38 L1629.27 1422.38  Z
  " fill="#009af9" fill-rule="evenodd" fill-opacity="0.7"/>
<polyline clip-path="url(#clip6102)" style="stroke:#000000; stroke-width:4; stroke-opacity:0.7; fill:none" points="
  1629.27,1422.38 1629.27,1446.71 1639.57,1446.71 1639.57,1422.38 1629.27,1422.38 
  "/>
<path clip-path="url(#clip6102)" d="
M1639.57 1418.32 L1639.57 1446.71 L1649.87 1446.71 L1649.87 1418.32 L1639.57 1418.32 L1639.57 1418.32  Z
  " fill="#009af9" fill-rule="evenodd" fill-opacity="0.7"/>
<polyline clip-path="url(#clip6102)" style="stroke:#000000; stroke-width:4; stroke-opacity:0.7; fill:none" points="
  1639.57,1418.32 1639.57,1446.71 1649.87,1446.71 1649.87,1418.32 1639.57,1418.32 
  "/>
<path clip-path="url(#clip6102)" d="
M1649.87 1442.66 L1649.87 1446.71 L1660.17 1446.71 L1660.17 1442.66 L1649.87 1442.66 L1649.87 1442.66  Z
  " fill="#009af9" fill-rule="evenodd" fill-opacity="0.7"/>
<polyline clip-path="url(#clip6102)" style="stroke:#000000; stroke-width:4; stroke-opacity:0.7; fill:none" points="
  1649.87,1442.66 1649.87,1446.71 1660.17,1446.71 1660.17,1442.66 1649.87,1442.66 
  "/>
<path clip-path="url(#clip6102)" d="
M1660.17 1426.43 L1660.17 1446.71 L1670.47 1446.71 L1670.47 1426.43 L1660.17 1426.43 L1660.17 1426.43  Z
  " fill="#009af9" fill-rule="evenodd" fill-opacity="0.7"/>
<polyline clip-path="url(#clip6102)" style="stroke:#000000; stroke-width:4; stroke-opacity:0.7; fill:none" points="
  1660.17,1426.43 1660.17,1446.71 1670.47,1446.71 1670.47,1426.43 1660.17,1426.43 
  "/>
<path clip-path="url(#clip6102)" d="
M1670.47 1442.66 L1670.47 1446.71 L1680.77 1446.71 L1680.77 1442.66 L1670.47 1442.66 L1670.47 1442.66  Z
  " fill="#009af9" fill-rule="evenodd" fill-opacity="0.7"/>
<polyline clip-path="url(#clip6102)" style="stroke:#000000; stroke-width:4; stroke-opacity:0.7; fill:none" points="
  1670.47,1442.66 1670.47,1446.71 1680.77,1446.71 1680.77,1442.66 1670.47,1442.66 
  "/>
<path clip-path="url(#clip6102)" d="
M1680.77 1438.6 L1680.77 1446.71 L1691.07 1446.71 L1691.07 1438.6 L1680.77 1438.6 L1680.77 1438.6  Z
  " fill="#009af9" fill-rule="evenodd" fill-opacity="0.7"/>
<polyline clip-path="url(#clip6102)" style="stroke:#000000; stroke-width:4; stroke-opacity:0.7; fill:none" points="
  1680.77,1438.6 1680.77,1446.71 1691.07,1446.71 1691.07,1438.6 1680.77,1438.6 
  "/>
<path clip-path="url(#clip6102)" d="
M1691.07 1434.55 L1691.07 1446.71 L1701.37 1446.71 L1701.37 1434.55 L1691.07 1434.55 L1691.07 1434.55  Z
  " fill="#009af9" fill-rule="evenodd" fill-opacity="0.7"/>
<polyline clip-path="url(#clip6102)" style="stroke:#000000; stroke-width:4; stroke-opacity:0.7; fill:none" points="
  1691.07,1434.55 1691.07,1446.71 1701.37,1446.71 1701.37,1434.55 1691.07,1434.55 
  "/>
<path clip-path="url(#clip6102)" d="
M1701.37 1438.6 L1701.37 1446.71 L1711.67 1446.71 L1711.67 1438.6 L1701.37 1438.6 L1701.37 1438.6  Z
  " fill="#009af9" fill-rule="evenodd" fill-opacity="0.7"/>
<polyline clip-path="url(#clip6102)" style="stroke:#000000; stroke-width:4; stroke-opacity:0.7; fill:none" points="
  1701.37,1438.6 1701.37,1446.71 1711.67,1446.71 1711.67,1438.6 1701.37,1438.6 
  "/>
<path clip-path="url(#clip6102)" d="
M1711.67 1442.66 L1711.67 1446.71 L1721.97 1446.71 L1721.97 1442.66 L1711.67 1442.66 L1711.67 1442.66  Z
  " fill="#009af9" fill-rule="evenodd" fill-opacity="0.7"/>
<polyline clip-path="url(#clip6102)" style="stroke:#000000; stroke-width:4; stroke-opacity:0.7; fill:none" points="
  1711.67,1442.66 1711.67,1446.71 1721.97,1446.71 1721.97,1442.66 1711.67,1442.66 
  "/>
<path clip-path="url(#clip6102)" d="
M1721.97 1446.71 L1721.97 1446.71 L1732.27 1446.71 L1732.27 1446.71 L1721.97 1446.71 L1721.97 1446.71  Z
  " fill="#009af9" fill-rule="evenodd" fill-opacity="0.7"/>
<polyline clip-path="url(#clip6102)" style="stroke:#000000; stroke-width:4; stroke-opacity:0.7; fill:none" points="
  1721.97,1446.71 1721.97,1446.71 1732.27,1446.71 1721.97,1446.71 
  "/>
<path clip-path="url(#clip6102)" d="
M1732.27 1446.71 L1732.27 1446.71 L1742.57 1446.71 L1742.57 1446.71 L1732.27 1446.71 L1732.27 1446.71  Z
  " fill="#009af9" fill-rule="evenodd" fill-opacity="0.7"/>
<polyline clip-path="url(#clip6102)" style="stroke:#000000; stroke-width:4; stroke-opacity:0.7; fill:none" points="
  1732.27,1446.71 1732.27,1446.71 1742.57,1446.71 1732.27,1446.71 
  "/>
<path clip-path="url(#clip6102)" d="
M1742.57 1446.71 L1742.57 1446.71 L1752.87 1446.71 L1752.87 1446.71 L1742.57 1446.71 L1742.57 1446.71  Z
  " fill="#009af9" fill-rule="evenodd" fill-opacity="0.7"/>
<polyline clip-path="url(#clip6102)" style="stroke:#000000; stroke-width:4; stroke-opacity:0.7; fill:none" points="
  1742.57,1446.71 1742.57,1446.71 1752.87,1446.71 1742.57,1446.71 
  "/>
<path clip-path="url(#clip6102)" d="
M1752.87 1446.71 L1752.87 1446.71 L1763.17 1446.71 L1763.17 1446.71 L1752.87 1446.71 L1752.87 1446.71  Z
  " fill="#009af9" fill-rule="evenodd" fill-opacity="0.7"/>
<polyline clip-path="url(#clip6102)" style="stroke:#000000; stroke-width:4; stroke-opacity:0.7; fill:none" points="
  1752.87,1446.71 1752.87,1446.71 1763.17,1446.71 1752.87,1446.71 
  "/>
<path clip-path="url(#clip6102)" d="
M1763.17 1442.66 L1763.17 1446.71 L1773.47 1446.71 L1773.47 1442.66 L1763.17 1442.66 L1763.17 1442.66  Z
  " fill="#009af9" fill-rule="evenodd" fill-opacity="0.7"/>
<polyline clip-path="url(#clip6102)" style="stroke:#000000; stroke-width:4; stroke-opacity:0.7; fill:none" points="
  1763.17,1442.66 1763.17,1446.71 1773.47,1446.71 1773.47,1442.66 1763.17,1442.66 
  "/>
<polyline clip-path="url(#clip6102)" style="stroke:#e26f46; stroke-width:12; stroke-opacity:1; fill:none" points="
  646.884,1446.71 652.892,1446.71 658.901,1446.71 664.909,1446.7 670.917,1446.69 676.926,1446.65 682.934,1446.59 688.943,1446.49 694.951,1446.34 700.96,1446.16 
  706.968,1445.98 712.977,1445.85 718.985,1445.79 724.993,1445.82 731.002,1445.92 737.01,1446.05 743.019,1446.14 749.027,1446.16 755.036,1446.1 761.044,1445.99 
  767.052,1445.87 773.061,1445.8 779.069,1445.81 785.078,1445.9 791.086,1446.04 797.095,1446.18 803.103,1446.25 809.112,1446.22 815.12,1446.05 821.128,1445.72 
  827.137,1445.27 833.145,1444.72 839.154,1444.13 845.162,1443.52 851.171,1442.9 857.179,1442.2 863.188,1441.34 869.196,1440.25 875.204,1438.89 881.213,1437.25 
  887.221,1435.31 893.23,1433.05 899.238,1430.44 905.247,1427.45 911.255,1424.05 917.263,1420.24 923.272,1416.07 929.28,1411.59 935.289,1406.92 941.297,1402.12 
  947.306,1397.16 953.314,1391.81 959.323,1385.66 965.331,1378.21 971.339,1369.1 977.348,1358.25 983.356,1345.91 989.365,1332.6 995.373,1318.83 1001.38,1304.9 
  1007.39,1290.81 1013.4,1276.33 1019.41,1261.25 1025.42,1245.5 1031.42,1229.18 1037.43,1212.29 1043.44,1194.54 1049.45,1175.25 1055.46,1153.61 1061.47,1129.05 
  1067.47,1101.44 1073.48,1071.16 1079.49,1038.78 1085.5,1004.68 1091.51,968.891 1097.52,931.103 1103.53,891.075 1109.53,849.05 1115.54,806.028 1121.55,763.672 
  1127.56,723.825 1133.57,687.805 1139.58,655.806 1145.58,626.718 1151.59,598.54 1157.6,569.264 1163.61,537.817 1169.62,504.564 1175.63,471.071 1181.63,439.236 
  1187.64,410.295 1193.65,384.231 1199.66,359.849 1205.67,335.401 1211.68,309.4 1217.69,281.275 1223.69,251.639 1229.7,222.126 1235.71,194.899 1241.72,172.023 
  1247.73,154.915 1253.74,144.044 1259.74,138.959 1265.75,138.596 1271.76,141.715 1277.77,147.278 1283.78,154.667 1289.79,163.76 1295.8,174.931 1301.8,188.964 
  1307.81,206.794 1313.82,229.1 1319.83,255.889 1325.84,286.319 1331.85,318.883 1337.85,351.881 1343.86,383.932 1349.87,414.273 1355.88,442.746 1361.89,469.564 
  1367.9,495.067 1373.9,519.6 1379.91,543.536 1385.92,567.355 1391.93,591.7 1397.94,617.33 1403.95,644.956 1409.96,675.028 1415.96,707.563 1421.97,742.168 
  1427.98,778.228 1433.99,815.159 1440,852.538 1446.01,890.067 1452.01,927.447 1458.02,964.319 1464.03,1000.34 1470.04,1035.27 1476.05,1069 1482.06,1101.36 
  1488.07,1131.99 1494.07,1160.3 1500.08,1185.77 1506.09,1208.14 1512.1,1227.6 1518.11,1244.64 1524.12,1259.88 1530.12,1273.92 1536.13,1287.26 1542.14,1300.29 
  1548.15,1313.25 1554.16,1326.13 1560.17,1338.73 1566.18,1350.71 1572.18,1361.8 1578.19,1371.91 1584.2,1381.1 1590.21,1389.47 1596.22,1397 1602.23,1403.58 
  1608.23,1409.07 1614.24,1413.45 1620.25,1416.86 1626.26,1419.6 1632.27,1421.97 1638.28,1424.23 1644.28,1426.47 1650.29,1428.69 1656.3,1430.82 1662.31,1432.76 
  1668.32,1434.41 1674.33,1435.74 1680.34,1436.76 1686.34,1437.55 1692.35,1438.23 1698.36,1438.94 1704.37,1439.79 1710.38,1440.8 1716.39,1441.93 1722.39,1443.07 
  1728.4,1444.1 1734.41,1444.92 1740.42,1445.48 1746.43,1445.78 1752.44,1445.87 1758.45,1445.85 1764.45,1445.79 1770.46,1445.78 1776.47,1445.84 1782.48,1445.98 
  1788.49,1446.16 1794.5,1446.34 1800.5,1446.49 1806.51,1446.59 1812.52,1446.65 1818.53,1446.69 1824.54,1446.7 1830.55,1446.71 1836.55,1446.71 1842.56,1446.71 
  
  "/>
<path clip-path="url(#clip6102)" d="
M274.839 1305.57 L274.839 1446.71 L300.589 1446.71 L300.589 1305.57 L274.839 1305.57 L274.839 1305.57  Z
  " fill="#3da44d" fill-rule="evenodd" fill-opacity="0.5"/>
<polyline clip-path="url(#clip6102)" style="stroke:#000000; stroke-width:4; stroke-opacity:0.5; fill:none" points="
  274.839,1305.57 274.839,1446.71 300.589,1446.71 300.589,1305.57 274.839,1305.57 
  "/>
<path clip-path="url(#clip6102)" d="
M300.589 1318.55 L300.589 1446.71 L326.338 1446.71 L326.338 1318.55 L300.589 1318.55 L300.589 1318.55  Z
  " fill="#3da44d" fill-rule="evenodd" fill-opacity="0.5"/>
<polyline clip-path="url(#clip6102)" style="stroke:#000000; stroke-width:4; stroke-opacity:0.5; fill:none" points="
  300.589,1318.55 300.589,1446.71 326.338,1446.71 326.338,1318.55 300.589,1318.55 
  "/>
<path clip-path="url(#clip6102)" d="
M326.338 536.582 L326.338 1446.71 L352.088 1446.71 L352.088 536.582 L326.338 536.582 L326.338 536.582  Z
  " fill="#3da44d" fill-rule="evenodd" fill-opacity="0.5"/>
<polyline clip-path="url(#clip6102)" style="stroke:#000000; stroke-width:4; stroke-opacity:0.5; fill:none" points="
  326.338,536.582 326.338,1446.71 352.088,1446.71 352.088,536.582 326.338,536.582 
  "/>
<path clip-path="url(#clip6102)" d="
M352.088 1406.16 L352.088 1446.71 L377.838 1446.71 L377.838 1406.16 L352.088 1406.16 L352.088 1406.16  Z
  " fill="#3da44d" fill-rule="evenodd" fill-opacity="0.5"/>
<polyline clip-path="url(#clip6102)" style="stroke:#000000; stroke-width:4; stroke-opacity:0.5; fill:none" points="
  352.088,1406.16 352.088,1446.71 377.838,1446.71 377.838,1406.16 352.088,1406.16 
  "/>
<path clip-path="url(#clip6102)" d="
M377.838 1320.17 L377.838 1446.71 L403.587 1446.71 L403.587 1320.17 L377.838 1320.17 L377.838 1320.17  Z
  " fill="#3da44d" fill-rule="evenodd" fill-opacity="0.5"/>
<polyline clip-path="url(#clip6102)" style="stroke:#000000; stroke-width:4; stroke-opacity:0.5; fill:none" points="
  377.838,1320.17 377.838,1446.71 403.587,1446.71 403.587,1320.17 377.838,1320.17 
  "/>
<path clip-path="url(#clip6102)" d="
M403.587 1243.92 L403.587 1446.71 L429.337 1446.71 L429.337 1243.92 L403.587 1243.92 L403.587 1243.92  Z
  " fill="#3da44d" fill-rule="evenodd" fill-opacity="0.5"/>
<polyline clip-path="url(#clip6102)" style="stroke:#000000; stroke-width:4; stroke-opacity:0.5; fill:none" points="
  403.587,1243.92 403.587,1446.71 429.337,1446.71 429.337,1243.92 403.587,1243.92 
  "/>
<path clip-path="url(#clip6102)" d="
M429.337 1008.68 L429.337 1446.71 L455.087 1446.71 L455.087 1008.68 L429.337 1008.68 L429.337 1008.68  Z
  " fill="#3da44d" fill-rule="evenodd" fill-opacity="0.5"/>
<polyline clip-path="url(#clip6102)" style="stroke:#000000; stroke-width:4; stroke-opacity:0.5; fill:none" points="
  429.337,1008.68 429.337,1446.71 455.087,1446.71 455.087,1008.68 429.337,1008.68 
  "/>
<path clip-path="url(#clip6102)" d="
M455.087 1200.12 L455.087 1446.71 L480.837 1446.71 L480.837 1200.12 L455.087 1200.12 L455.087 1200.12  Z
  " fill="#3da44d" fill-rule="evenodd" fill-opacity="0.5"/>
<polyline clip-path="url(#clip6102)" style="stroke:#000000; stroke-width:4; stroke-opacity:0.5; fill:none" points="
  455.087,1200.12 455.087,1446.71 480.837,1446.71 480.837,1200.12 455.087,1200.12 
  "/>
<path clip-path="url(#clip6102)" d="
M480.837 1130.36 L480.837 1446.71 L506.586 1446.71 L506.586 1130.36 L480.837 1130.36 L480.837 1130.36  Z
  " fill="#3da44d" fill-rule="evenodd" fill-opacity="0.5"/>
<polyline clip-path="url(#clip6102)" style="stroke:#000000; stroke-width:4; stroke-opacity:0.5; fill:none" points="
  480.837,1130.36 480.837,1446.71 506.586,1446.71 506.586,1130.36 480.837,1130.36 
  "/>
<path clip-path="url(#clip6102)" d="
M506.586 1185.52 L506.586 1446.71 L532.336 1446.71 L532.336 1185.52 L506.586 1185.52 L506.586 1185.52  Z
  " fill="#3da44d" fill-rule="evenodd" fill-opacity="0.5"/>
<polyline clip-path="url(#clip6102)" style="stroke:#000000; stroke-width:4; stroke-opacity:0.5; fill:none" points="
  506.586,1185.52 506.586,1446.71 532.336,1446.71 532.336,1185.52 506.586,1185.52 
  "/>
<path clip-path="url(#clip6102)" d="
M532.336 1169.29 L532.336 1446.71 L558.086 1446.71 L558.086 1169.29 L532.336 1169.29 L532.336 1169.29  Z
  " fill="#3da44d" fill-rule="evenodd" fill-opacity="0.5"/>
<polyline clip-path="url(#clip6102)" style="stroke:#000000; stroke-width:4; stroke-opacity:0.5; fill:none" points="
  532.336,1169.29 532.336,1446.71 558.086,1446.71 558.086,1169.29 532.336,1169.29 
  "/>
<path clip-path="url(#clip6102)" d="
M558.086 1219.59 L558.086 1446.71 L583.835 1446.71 L583.835 1219.59 L558.086 1219.59 L558.086 1219.59  Z
  " fill="#3da44d" fill-rule="evenodd" fill-opacity="0.5"/>
<polyline clip-path="url(#clip6102)" style="stroke:#000000; stroke-width:4; stroke-opacity:0.5; fill:none" points="
  558.086,1219.59 558.086,1446.71 583.835,1446.71 583.835,1219.59 558.086,1219.59 
  "/>
<path clip-path="url(#clip6102)" d="
M583.835 1188.76 L583.835 1446.71 L609.585 1446.71 L609.585 1188.76 L583.835 1188.76 L583.835 1188.76  Z
  " fill="#3da44d" fill-rule="evenodd" fill-opacity="0.5"/>
<polyline clip-path="url(#clip6102)" style="stroke:#000000; stroke-width:4; stroke-opacity:0.5; fill:none" points="
  583.835,1188.76 583.835,1446.71 609.585,1446.71 609.585,1188.76 583.835,1188.76 
  "/>
<path clip-path="url(#clip6102)" d="
M609.585 1213.1 L609.585 1446.71 L635.335 1446.71 L635.335 1213.1 L609.585 1213.1 L609.585 1213.1  Z
  " fill="#3da44d" fill-rule="evenodd" fill-opacity="0.5"/>
<polyline clip-path="url(#clip6102)" style="stroke:#000000; stroke-width:4; stroke-opacity:0.5; fill:none" points="
  609.585,1213.1 609.585,1446.71 635.335,1446.71 635.335,1213.1 609.585,1213.1 
  "/>
<path clip-path="url(#clip6102)" d="
M635.335 1136.85 L635.335 1446.71 L661.084 1446.71 L661.084 1136.85 L635.335 1136.85 L635.335 1136.85  Z
  " fill="#3da44d" fill-rule="evenodd" fill-opacity="0.5"/>
<polyline clip-path="url(#clip6102)" style="stroke:#000000; stroke-width:4; stroke-opacity:0.5; fill:none" points="
  635.335,1136.85 635.335,1446.71 661.084,1446.71 661.084,1136.85 635.335,1136.85 
  "/>
<path clip-path="url(#clip6102)" d="
M661.084 1112.51 L661.084 1446.71 L686.834 1446.71 L686.834 1112.51 L661.084 1112.51 L661.084 1112.51  Z
  " fill="#3da44d" fill-rule="evenodd" fill-opacity="0.5"/>
<polyline clip-path="url(#clip6102)" style="stroke:#000000; stroke-width:4; stroke-opacity:0.5; fill:none" points="
  661.084,1112.51 661.084,1446.71 686.834,1446.71 686.834,1112.51 661.084,1112.51 
  "/>
<path clip-path="url(#clip6102)" d="
M686.834 1154.69 L686.834 1446.71 L712.584 1446.71 L712.584 1154.69 L686.834 1154.69 L686.834 1154.69  Z
  " fill="#3da44d" fill-rule="evenodd" fill-opacity="0.5"/>
<polyline clip-path="url(#clip6102)" style="stroke:#000000; stroke-width:4; stroke-opacity:0.5; fill:none" points="
  686.834,1154.69 686.834,1446.71 712.584,1446.71 712.584,1154.69 686.834,1154.69 
  "/>
<path clip-path="url(#clip6102)" d="
M712.584 1153.07 L712.584 1446.71 L738.333 1446.71 L738.333 1153.07 L712.584 1153.07 L712.584 1153.07  Z
  " fill="#3da44d" fill-rule="evenodd" fill-opacity="0.5"/>
<polyline clip-path="url(#clip6102)" style="stroke:#000000; stroke-width:4; stroke-opacity:0.5; fill:none" points="
  712.584,1153.07 712.584,1446.71 738.333,1446.71 738.333,1153.07 712.584,1153.07 
  "/>
<path clip-path="url(#clip6102)" d="
M738.333 1097.91 L738.333 1446.71 L764.083 1446.71 L764.083 1097.91 L738.333 1097.91 L738.333 1097.91  Z
  " fill="#3da44d" fill-rule="evenodd" fill-opacity="0.5"/>
<polyline clip-path="url(#clip6102)" style="stroke:#000000; stroke-width:4; stroke-opacity:0.5; fill:none" points="
  738.333,1097.91 738.333,1446.71 764.083,1446.71 764.083,1097.91 738.333,1097.91 
  "/>
<path clip-path="url(#clip6102)" d="
M764.083 1068.71 L764.083 1446.71 L789.833 1446.71 L789.833 1068.71 L764.083 1068.71 L764.083 1068.71  Z
  " fill="#3da44d" fill-rule="evenodd" fill-opacity="0.5"/>
<polyline clip-path="url(#clip6102)" style="stroke:#000000; stroke-width:4; stroke-opacity:0.5; fill:none" points="
  764.083,1068.71 764.083,1446.71 789.833,1446.71 789.833,1068.71 764.083,1068.71 
  "/>
<path clip-path="url(#clip6102)" d="
M789.833 1088.18 L789.833 1446.71 L815.582 1446.71 L815.582 1088.18 L789.833 1088.18 L789.833 1088.18  Z
  " fill="#3da44d" fill-rule="evenodd" fill-opacity="0.5"/>
<polyline clip-path="url(#clip6102)" style="stroke:#000000; stroke-width:4; stroke-opacity:0.5; fill:none" points="
  789.833,1088.18 789.833,1446.71 815.582,1446.71 815.582,1088.18 789.833,1088.18 
  "/>
<path clip-path="url(#clip6102)" d="
M815.582 1136.85 L815.582 1446.71 L841.332 1446.71 L841.332 1136.85 L815.582 1136.85 L815.582 1136.85  Z
  " fill="#3da44d" fill-rule="evenodd" fill-opacity="0.5"/>
<polyline clip-path="url(#clip6102)" style="stroke:#000000; stroke-width:4; stroke-opacity:0.5; fill:none" points="
  815.582,1136.85 815.582,1446.71 841.332,1446.71 841.332,1136.85 815.582,1136.85 
  "/>
<path clip-path="url(#clip6102)" d="
M841.332 1089.8 L841.332 1446.71 L867.082 1446.71 L867.082 1089.8 L841.332 1089.8 L841.332 1089.8  Z
  " fill="#3da44d" fill-rule="evenodd" fill-opacity="0.5"/>
<polyline clip-path="url(#clip6102)" style="stroke:#000000; stroke-width:4; stroke-opacity:0.5; fill:none" points="
  841.332,1089.8 841.332,1446.71 867.082,1446.71 867.082,1089.8 841.332,1089.8 
  "/>
<path clip-path="url(#clip6102)" d="
M867.082 1023.28 L867.082 1446.71 L892.831 1446.71 L892.831 1023.28 L867.082 1023.28 L867.082 1023.28  Z
  " fill="#3da44d" fill-rule="evenodd" fill-opacity="0.5"/>
<polyline clip-path="url(#clip6102)" style="stroke:#000000; stroke-width:4; stroke-opacity:0.5; fill:none" points="
  867.082,1023.28 867.082,1446.71 892.831,1446.71 892.831,1023.28 867.082,1023.28 
  "/>
<path clip-path="url(#clip6102)" d="
M892.831 1102.78 L892.831 1446.71 L918.581 1446.71 L918.581 1102.78 L892.831 1102.78 L892.831 1102.78  Z
  " fill="#3da44d" fill-rule="evenodd" fill-opacity="0.5"/>
<polyline clip-path="url(#clip6102)" style="stroke:#000000; stroke-width:4; stroke-opacity:0.5; fill:none" points="
  892.831,1102.78 892.831,1446.71 918.581,1446.71 918.581,1102.78 892.831,1102.78 
  "/>
<path clip-path="url(#clip6102)" d="
M918.581 1057.35 L918.581 1446.71 L944.331 1446.71 L944.331 1057.35 L918.581 1057.35 L918.581 1057.35  Z
  " fill="#3da44d" fill-rule="evenodd" fill-opacity="0.5"/>
<polyline clip-path="url(#clip6102)" style="stroke:#000000; stroke-width:4; stroke-opacity:0.5; fill:none" points="
  918.581,1057.35 918.581,1446.71 944.331,1446.71 944.331,1057.35 918.581,1057.35 
  "/>
<path clip-path="url(#clip6102)" d="
M944.331 1034.64 L944.331 1446.71 L970.08 1446.71 L970.08 1034.64 L944.331 1034.64 L944.331 1034.64  Z
  " fill="#3da44d" fill-rule="evenodd" fill-opacity="0.5"/>
<polyline clip-path="url(#clip6102)" style="stroke:#000000; stroke-width:4; stroke-opacity:0.5; fill:none" points="
  944.331,1034.64 944.331,1446.71 970.08,1446.71 970.08,1034.64 944.331,1034.64 
  "/>
<path clip-path="url(#clip6102)" d="
M970.08 1078.44 L970.08 1446.71 L995.83 1446.71 L995.83 1078.44 L970.08 1078.44 L970.08 1078.44  Z
  " fill="#3da44d" fill-rule="evenodd" fill-opacity="0.5"/>
<polyline clip-path="url(#clip6102)" style="stroke:#000000; stroke-width:4; stroke-opacity:0.5; fill:none" points="
  970.08,1078.44 970.08,1446.71 995.83,1446.71 995.83,1078.44 970.08,1078.44 
  "/>
<path clip-path="url(#clip6102)" d="
M995.83 1081.69 L995.83 1446.71 L1021.58 1446.71 L1021.58 1081.69 L995.83 1081.69 L995.83 1081.69  Z
  " fill="#3da44d" fill-rule="evenodd" fill-opacity="0.5"/>
<polyline clip-path="url(#clip6102)" style="stroke:#000000; stroke-width:4; stroke-opacity:0.5; fill:none" points="
  995.83,1081.69 995.83,1446.71 1021.58,1446.71 1021.58,1081.69 995.83,1081.69 
  "/>
<path clip-path="url(#clip6102)" d="
M1021.58 1015.17 L1021.58 1446.71 L1047.33 1446.71 L1047.33 1015.17 L1021.58 1015.17 L1021.58 1015.17  Z
  " fill="#3da44d" fill-rule="evenodd" fill-opacity="0.5"/>
<polyline clip-path="url(#clip6102)" style="stroke:#000000; stroke-width:4; stroke-opacity:0.5; fill:none" points="
  1021.58,1015.17 1021.58,1446.71 1047.33,1446.71 1047.33,1015.17 1021.58,1015.17 
  "/>
<path clip-path="url(#clip6102)" d="
M1047.33 1041.13 L1047.33 1446.71 L1073.08 1446.71 L1073.08 1041.13 L1047.33 1041.13 L1047.33 1041.13  Z
  " fill="#3da44d" fill-rule="evenodd" fill-opacity="0.5"/>
<polyline clip-path="url(#clip6102)" style="stroke:#000000; stroke-width:4; stroke-opacity:0.5; fill:none" points="
  1047.33,1041.13 1047.33,1446.71 1073.08,1446.71 1073.08,1041.13 1047.33,1041.13 
  "/>
<path clip-path="url(#clip6102)" d="
M1073.08 1046 L1073.08 1446.71 L1098.83 1446.71 L1098.83 1046 L1073.08 1046 L1073.08 1046  Z
  " fill="#3da44d" fill-rule="evenodd" fill-opacity="0.5"/>
<polyline clip-path="url(#clip6102)" style="stroke:#000000; stroke-width:4; stroke-opacity:0.5; fill:none" points="
  1073.08,1046 1073.08,1446.71 1098.83,1446.71 1098.83,1046 1073.08,1046 
  "/>
<path clip-path="url(#clip6102)" d="
M1098.83 985.969 L1098.83 1446.71 L1124.58 1446.71 L1124.58 985.969 L1098.83 985.969 L1098.83 985.969  Z
  " fill="#3da44d" fill-rule="evenodd" fill-opacity="0.5"/>
<polyline clip-path="url(#clip6102)" style="stroke:#000000; stroke-width:4; stroke-opacity:0.5; fill:none" points="
  1098.83,985.969 1098.83,1446.71 1124.58,1446.71 1124.58,985.969 1098.83,985.969 
  "/>
<path clip-path="url(#clip6102)" d="
M1124.58 1023.28 L1124.58 1446.71 L1150.33 1446.71 L1150.33 1023.28 L1124.58 1023.28 L1124.58 1023.28  Z
  " fill="#3da44d" fill-rule="evenodd" fill-opacity="0.5"/>
<polyline clip-path="url(#clip6102)" style="stroke:#000000; stroke-width:4; stroke-opacity:0.5; fill:none" points="
  1124.58,1023.28 1124.58,1446.71 1150.33,1446.71 1150.33,1023.28 1124.58,1023.28 
  "/>
<path clip-path="url(#clip6102)" d="
M1150.33 1041.13 L1150.33 1446.71 L1176.08 1446.71 L1176.08 1041.13 L1150.33 1041.13 L1150.33 1041.13  Z
  " fill="#3da44d" fill-rule="evenodd" fill-opacity="0.5"/>
<polyline clip-path="url(#clip6102)" style="stroke:#000000; stroke-width:4; stroke-opacity:0.5; fill:none" points="
  1150.33,1041.13 1150.33,1446.71 1176.08,1446.71 1176.08,1041.13 1150.33,1041.13 
  "/>
<path clip-path="url(#clip6102)" d="
M1176.08 1083.31 L1176.08 1446.71 L1201.83 1446.71 L1201.83 1083.31 L1176.08 1083.31 L1176.08 1083.31  Z
  " fill="#3da44d" fill-rule="evenodd" fill-opacity="0.5"/>
<polyline clip-path="url(#clip6102)" style="stroke:#000000; stroke-width:4; stroke-opacity:0.5; fill:none" points="
  1176.08,1083.31 1176.08,1446.71 1201.83,1446.71 1201.83,1083.31 1176.08,1083.31 
  "/>
<path clip-path="url(#clip6102)" d="
M1201.83 1067.09 L1201.83 1446.71 L1227.58 1446.71 L1227.58 1067.09 L1201.83 1067.09 L1201.83 1067.09  Z
  " fill="#3da44d" fill-rule="evenodd" fill-opacity="0.5"/>
<polyline clip-path="url(#clip6102)" style="stroke:#000000; stroke-width:4; stroke-opacity:0.5; fill:none" points="
  1201.83,1067.09 1201.83,1446.71 1227.58,1446.71 1227.58,1067.09 1201.83,1067.09 
  "/>
<path clip-path="url(#clip6102)" d="
M1227.58 1133.6 L1227.58 1446.71 L1253.33 1446.71 L1253.33 1133.6 L1227.58 1133.6 L1227.58 1133.6  Z
  " fill="#3da44d" fill-rule="evenodd" fill-opacity="0.5"/>
<polyline clip-path="url(#clip6102)" style="stroke:#000000; stroke-width:4; stroke-opacity:0.5; fill:none" points="
  1227.58,1133.6 1227.58,1446.71 1253.33,1446.71 1253.33,1133.6 1227.58,1133.6 
  "/>
<path clip-path="url(#clip6102)" d="
M1253.33 1107.64 L1253.33 1446.71 L1279.08 1446.71 L1279.08 1107.64 L1253.33 1107.64 L1253.33 1107.64  Z
  " fill="#3da44d" fill-rule="evenodd" fill-opacity="0.5"/>
<polyline clip-path="url(#clip6102)" style="stroke:#000000; stroke-width:4; stroke-opacity:0.5; fill:none" points="
  1253.33,1107.64 1253.33,1446.71 1279.08,1446.71 1279.08,1107.64 1253.33,1107.64 
  "/>
<path clip-path="url(#clip6102)" d="
M1279.08 1120.62 L1279.08 1446.71 L1304.83 1446.71 L1304.83 1120.62 L1279.08 1120.62 L1279.08 1120.62  Z
  " fill="#3da44d" fill-rule="evenodd" fill-opacity="0.5"/>
<polyline clip-path="url(#clip6102)" style="stroke:#000000; stroke-width:4; stroke-opacity:0.5; fill:none" points="
  1279.08,1120.62 1279.08,1446.71 1304.83,1446.71 1304.83,1120.62 1279.08,1120.62 
  "/>
<path clip-path="url(#clip6102)" d="
M1304.83 1198.5 L1304.83 1446.71 L1330.58 1446.71 L1330.58 1198.5 L1304.83 1198.5 L1304.83 1198.5  Z
  " fill="#3da44d" fill-rule="evenodd" fill-opacity="0.5"/>
<polyline clip-path="url(#clip6102)" style="stroke:#000000; stroke-width:4; stroke-opacity:0.5; fill:none" points="
  1304.83,1198.5 1304.83,1446.71 1330.58,1446.71 1330.58,1198.5 1304.83,1198.5 
  "/>
<path clip-path="url(#clip6102)" d="
M1330.58 1149.83 L1330.58 1446.71 L1356.33 1446.71 L1356.33 1149.83 L1330.58 1149.83 L1330.58 1149.83  Z
  " fill="#3da44d" fill-rule="evenodd" fill-opacity="0.5"/>
<polyline clip-path="url(#clip6102)" style="stroke:#000000; stroke-width:4; stroke-opacity:0.5; fill:none" points="
  1330.58,1149.83 1330.58,1446.71 1356.33,1446.71 1356.33,1149.83 1330.58,1149.83 
  "/>
<path clip-path="url(#clip6102)" d="
M1356.33 1200.12 L1356.33 1446.71 L1382.08 1446.71 L1382.08 1200.12 L1356.33 1200.12 L1356.33 1200.12  Z
  " fill="#3da44d" fill-rule="evenodd" fill-opacity="0.5"/>
<polyline clip-path="url(#clip6102)" style="stroke:#000000; stroke-width:4; stroke-opacity:0.5; fill:none" points="
  1356.33,1200.12 1356.33,1446.71 1382.08,1446.71 1382.08,1200.12 1356.33,1200.12 
  "/>
<path clip-path="url(#clip6102)" d="
M1382.08 1162.8 L1382.08 1446.71 L1407.83 1446.71 L1407.83 1162.8 L1382.08 1162.8 L1382.08 1162.8  Z
  " fill="#3da44d" fill-rule="evenodd" fill-opacity="0.5"/>
<polyline clip-path="url(#clip6102)" style="stroke:#000000; stroke-width:4; stroke-opacity:0.5; fill:none" points="
  1382.08,1162.8 1382.08,1446.71 1407.83,1446.71 1407.83,1162.8 1382.08,1162.8 
  "/>
<path clip-path="url(#clip6102)" d="
M1407.83 1229.32 L1407.83 1446.71 L1433.57 1446.71 L1433.57 1229.32 L1407.83 1229.32 L1407.83 1229.32  Z
  " fill="#3da44d" fill-rule="evenodd" fill-opacity="0.5"/>
<polyline clip-path="url(#clip6102)" style="stroke:#000000; stroke-width:4; stroke-opacity:0.5; fill:none" points="
  1407.83,1229.32 1407.83,1446.71 1433.57,1446.71 1433.57,1229.32 1407.83,1229.32 
  "/>
<path clip-path="url(#clip6102)" d="
M1433.57 1226.08 L1433.57 1446.71 L1459.32 1446.71 L1459.32 1226.08 L1433.57 1226.08 L1433.57 1226.08  Z
  " fill="#3da44d" fill-rule="evenodd" fill-opacity="0.5"/>
<polyline clip-path="url(#clip6102)" style="stroke:#000000; stroke-width:4; stroke-opacity:0.5; fill:none" points="
  1433.57,1226.08 1433.57,1446.71 1459.32,1446.71 1459.32,1226.08 1433.57,1226.08 
  "/>
<path clip-path="url(#clip6102)" d="
M1459.32 1224.45 L1459.32 1446.71 L1485.07 1446.71 L1485.07 1224.45 L1459.32 1224.45 L1459.32 1224.45  Z
  " fill="#3da44d" fill-rule="evenodd" fill-opacity="0.5"/>
<polyline clip-path="url(#clip6102)" style="stroke:#000000; stroke-width:4; stroke-opacity:0.5; fill:none" points="
  1459.32,1224.45 1459.32,1446.71 1485.07,1446.71 1485.07,1224.45 1459.32,1224.45 
  "/>
<path clip-path="url(#clip6102)" d="
M1485.07 1261.77 L1485.07 1446.71 L1510.82 1446.71 L1510.82 1261.77 L1485.07 1261.77 L1485.07 1261.77  Z
  " fill="#3da44d" fill-rule="evenodd" fill-opacity="0.5"/>
<polyline clip-path="url(#clip6102)" style="stroke:#000000; stroke-width:4; stroke-opacity:0.5; fill:none" points="
  1485.07,1261.77 1485.07,1446.71 1510.82,1446.71 1510.82,1261.77 1485.07,1261.77 
  "/>
<path clip-path="url(#clip6102)" d="
M1510.82 1315.3 L1510.82 1446.71 L1536.57 1446.71 L1536.57 1315.3 L1510.82 1315.3 L1510.82 1315.3  Z
  " fill="#3da44d" fill-rule="evenodd" fill-opacity="0.5"/>
<polyline clip-path="url(#clip6102)" style="stroke:#000000; stroke-width:4; stroke-opacity:0.5; fill:none" points="
  1510.82,1315.3 1510.82,1446.71 1536.57,1446.71 1536.57,1315.3 1510.82,1315.3 
  "/>
<path clip-path="url(#clip6102)" d="
M1536.57 1318.55 L1536.57 1446.71 L1562.32 1446.71 L1562.32 1318.55 L1536.57 1318.55 L1536.57 1318.55  Z
  " fill="#3da44d" fill-rule="evenodd" fill-opacity="0.5"/>
<polyline clip-path="url(#clip6102)" style="stroke:#000000; stroke-width:4; stroke-opacity:0.5; fill:none" points="
  1536.57,1318.55 1536.57,1446.71 1562.32,1446.71 1562.32,1318.55 1536.57,1318.55 
  "/>
<path clip-path="url(#clip6102)" d="
M1562.32 1341.26 L1562.32 1446.71 L1588.07 1446.71 L1588.07 1341.26 L1562.32 1341.26 L1562.32 1341.26  Z
  " fill="#3da44d" fill-rule="evenodd" fill-opacity="0.5"/>
<polyline clip-path="url(#clip6102)" style="stroke:#000000; stroke-width:4; stroke-opacity:0.5; fill:none" points="
  1562.32,1341.26 1562.32,1446.71 1588.07,1446.71 1588.07,1341.26 1562.32,1341.26 
  "/>
<path clip-path="url(#clip6102)" d="
M1588.07 1331.53 L1588.07 1446.71 L1613.82 1446.71 L1613.82 1331.53 L1588.07 1331.53 L1588.07 1331.53  Z
  " fill="#3da44d" fill-rule="evenodd" fill-opacity="0.5"/>
<polyline clip-path="url(#clip6102)" style="stroke:#000000; stroke-width:4; stroke-opacity:0.5; fill:none" points="
  1588.07,1331.53 1588.07,1446.71 1613.82,1446.71 1613.82,1331.53 1588.07,1331.53 
  "/>
<path clip-path="url(#clip6102)" d="
M1613.82 1378.58 L1613.82 1446.71 L1639.57 1446.71 L1639.57 1378.58 L1613.82 1378.58 L1613.82 1378.58  Z
  " fill="#3da44d" fill-rule="evenodd" fill-opacity="0.5"/>
<polyline clip-path="url(#clip6102)" style="stroke:#000000; stroke-width:4; stroke-opacity:0.5; fill:none" points="
  1613.82,1378.58 1613.82,1446.71 1639.57,1446.71 1639.57,1378.58 1613.82,1378.58 
  "/>
<path clip-path="url(#clip6102)" d="
M1639.57 1363.97 L1639.57 1446.71 L1665.32 1446.71 L1665.32 1363.97 L1639.57 1363.97 L1639.57 1363.97  Z
  " fill="#3da44d" fill-rule="evenodd" fill-opacity="0.5"/>
<polyline clip-path="url(#clip6102)" style="stroke:#000000; stroke-width:4; stroke-opacity:0.5; fill:none" points="
  1639.57,1363.97 1639.57,1446.71 1665.32,1446.71 1665.32,1363.97 1639.57,1363.97 
  "/>
<path clip-path="url(#clip6102)" d="
M1665.32 1396.42 L1665.32 1446.71 L1691.07 1446.71 L1691.07 1396.42 L1665.32 1396.42 L1665.32 1396.42  Z
  " fill="#3da44d" fill-rule="evenodd" fill-opacity="0.5"/>
<polyline clip-path="url(#clip6102)" style="stroke:#000000; stroke-width:4; stroke-opacity:0.5; fill:none" points="
  1665.32,1396.42 1665.32,1446.71 1691.07,1446.71 1691.07,1396.42 1665.32,1396.42 
  "/>
<path clip-path="url(#clip6102)" d="
M1691.07 1396.42 L1691.07 1446.71 L1716.82 1446.71 L1716.82 1396.42 L1691.07 1396.42 L1691.07 1396.42  Z
  " fill="#3da44d" fill-rule="evenodd" fill-opacity="0.5"/>
<polyline clip-path="url(#clip6102)" style="stroke:#000000; stroke-width:4; stroke-opacity:0.5; fill:none" points="
  1691.07,1396.42 1691.07,1446.71 1716.82,1446.71 1716.82,1396.42 1691.07,1396.42 
  "/>
<path clip-path="url(#clip6102)" d="
M1716.82 1389.93 L1716.82 1446.71 L1742.57 1446.71 L1742.57 1389.93 L1716.82 1389.93 L1716.82 1389.93  Z
  " fill="#3da44d" fill-rule="evenodd" fill-opacity="0.5"/>
<polyline clip-path="url(#clip6102)" style="stroke:#000000; stroke-width:4; stroke-opacity:0.5; fill:none" points="
  1716.82,1389.93 1716.82,1446.71 1742.57,1446.71 1742.57,1389.93 1716.82,1389.93 
  "/>
<path clip-path="url(#clip6102)" d="
M1742.57 1406.16 L1742.57 1446.71 L1768.32 1446.71 L1768.32 1406.16 L1742.57 1406.16 L1742.57 1406.16  Z
  " fill="#3da44d" fill-rule="evenodd" fill-opacity="0.5"/>
<polyline clip-path="url(#clip6102)" style="stroke:#000000; stroke-width:4; stroke-opacity:0.5; fill:none" points="
  1742.57,1406.16 1742.57,1446.71 1768.32,1446.71 1768.32,1406.16 1742.57,1406.16 
  "/>
<path clip-path="url(#clip6102)" d="
M1768.32 1412.64 L1768.32 1446.71 L1794.07 1446.71 L1794.07 1412.64 L1768.32 1412.64 L1768.32 1412.64  Z
  " fill="#3da44d" fill-rule="evenodd" fill-opacity="0.5"/>
<polyline clip-path="url(#clip6102)" style="stroke:#000000; stroke-width:4; stroke-opacity:0.5; fill:none" points="
  1768.32,1412.64 1768.32,1446.71 1794.07,1446.71 1794.07,1412.64 1768.32,1412.64 
  "/>
<path clip-path="url(#clip6102)" d="
M1794.07 1432.11 L1794.07 1446.71 L1819.82 1446.71 L1819.82 1432.11 L1794.07 1432.11 L1794.07 1432.11  Z
  " fill="#3da44d" fill-rule="evenodd" fill-opacity="0.5"/>
<polyline clip-path="url(#clip6102)" style="stroke:#000000; stroke-width:4; stroke-opacity:0.5; fill:none" points="
  1794.07,1432.11 1794.07,1446.71 1819.82,1446.71 1819.82,1432.11 1794.07,1432.11 
  "/>
<path clip-path="url(#clip6102)" d="
M1819.82 1430.49 L1819.82 1446.71 L1845.57 1446.71 L1845.57 1430.49 L1819.82 1430.49 L1819.82 1430.49  Z
  " fill="#3da44d" fill-rule="evenodd" fill-opacity="0.5"/>
<polyline clip-path="url(#clip6102)" style="stroke:#000000; stroke-width:4; stroke-opacity:0.5; fill:none" points="
  1819.82,1430.49 1819.82,1446.71 1845.57,1446.71 1845.57,1430.49 1819.82,1430.49 
  "/>
<path clip-path="url(#clip6102)" d="
M1845.57 1427.25 L1845.57 1446.71 L1871.32 1446.71 L1871.32 1427.25 L1845.57 1427.25 L1845.57 1427.25  Z
  " fill="#3da44d" fill-rule="evenodd" fill-opacity="0.5"/>
<polyline clip-path="url(#clip6102)" style="stroke:#000000; stroke-width:4; stroke-opacity:0.5; fill:none" points="
  1845.57,1427.25 1845.57,1446.71 1871.32,1446.71 1871.32,1427.25 1845.57,1427.25 
  "/>
<path clip-path="url(#clip6102)" d="
M1871.32 1436.98 L1871.32 1446.71 L1897.07 1446.71 L1897.07 1436.98 L1871.32 1436.98 L1871.32 1436.98  Z
  " fill="#3da44d" fill-rule="evenodd" fill-opacity="0.5"/>
<polyline clip-path="url(#clip6102)" style="stroke:#000000; stroke-width:4; stroke-opacity:0.5; fill:none" points="
  1871.32,1436.98 1871.32,1446.71 1897.07,1446.71 1897.07,1436.98 1871.32,1436.98 
  "/>
<path clip-path="url(#clip6102)" d="
M1897.07 1438.6 L1897.07 1446.71 L1922.82 1446.71 L1922.82 1438.6 L1897.07 1438.6 L1897.07 1438.6  Z
  " fill="#3da44d" fill-rule="evenodd" fill-opacity="0.5"/>
<polyline clip-path="url(#clip6102)" style="stroke:#000000; stroke-width:4; stroke-opacity:0.5; fill:none" points="
  1897.07,1438.6 1897.07,1446.71 1922.82,1446.71 1922.82,1438.6 1897.07,1438.6 
  "/>
<path clip-path="url(#clip6102)" d="
M1922.82 1436.98 L1922.82 1446.71 L1948.57 1446.71 L1948.57 1436.98 L1922.82 1436.98 L1922.82 1436.98  Z
  " fill="#3da44d" fill-rule="evenodd" fill-opacity="0.5"/>
<polyline clip-path="url(#clip6102)" style="stroke:#000000; stroke-width:4; stroke-opacity:0.5; fill:none" points="
  1922.82,1436.98 1922.82,1446.71 1948.57,1446.71 1948.57,1436.98 1922.82,1436.98 
  "/>
<path clip-path="url(#clip6102)" d="
M1948.57 1438.6 L1948.57 1446.71 L1974.32 1446.71 L1974.32 1438.6 L1948.57 1438.6 L1948.57 1438.6  Z
  " fill="#3da44d" fill-rule="evenodd" fill-opacity="0.5"/>
<polyline clip-path="url(#clip6102)" style="stroke:#000000; stroke-width:4; stroke-opacity:0.5; fill:none" points="
  1948.57,1438.6 1948.57,1446.71 1974.32,1446.71 1974.32,1438.6 1948.57,1438.6 
  "/>
<path clip-path="url(#clip6102)" d="
M1974.32 1440.22 L1974.32 1446.71 L2000.07 1446.71 L2000.07 1440.22 L1974.32 1440.22 L1974.32 1440.22  Z
  " fill="#3da44d" fill-rule="evenodd" fill-opacity="0.5"/>
<polyline clip-path="url(#clip6102)" style="stroke:#000000; stroke-width:4; stroke-opacity:0.5; fill:none" points="
  1974.32,1440.22 1974.32,1446.71 2000.07,1446.71 2000.07,1440.22 1974.32,1440.22 
  "/>
<path clip-path="url(#clip6102)" d="
M2000.07 1446.71 L2000.07 1446.71 L2025.82 1446.71 L2025.82 1446.71 L2000.07 1446.71 L2000.07 1446.71  Z
  " fill="#3da44d" fill-rule="evenodd" fill-opacity="0.5"/>
<polyline clip-path="url(#clip6102)" style="stroke:#000000; stroke-width:4; stroke-opacity:0.5; fill:none" points="
  2000.07,1446.71 2000.07,1446.71 2025.82,1446.71 2000.07,1446.71 
  "/>
<path clip-path="url(#clip6102)" d="
M2025.82 1446.71 L2025.82 1446.71 L2051.57 1446.71 L2051.57 1446.71 L2025.82 1446.71 L2025.82 1446.71  Z
  " fill="#3da44d" fill-rule="evenodd" fill-opacity="0.5"/>
<polyline clip-path="url(#clip6102)" style="stroke:#000000; stroke-width:4; stroke-opacity:0.5; fill:none" points="
  2025.82,1446.71 2025.82,1446.71 2051.57,1446.71 2025.82,1446.71 
  "/>
<path clip-path="url(#clip6102)" d="
M2051.57 1445.09 L2051.57 1446.71 L2077.32 1446.71 L2077.32 1445.09 L2051.57 1445.09 L2051.57 1445.09  Z
  " fill="#3da44d" fill-rule="evenodd" fill-opacity="0.5"/>
<polyline clip-path="url(#clip6102)" style="stroke:#000000; stroke-width:4; stroke-opacity:0.5; fill:none" points="
  2051.57,1445.09 2051.57,1446.71 2077.32,1446.71 2077.32,1445.09 2051.57,1445.09 
  "/>
<path clip-path="url(#clip6102)" d="
M2077.32 1445.09 L2077.32 1446.71 L2103.07 1446.71 L2103.07 1445.09 L2077.32 1445.09 L2077.32 1445.09  Z
  " fill="#3da44d" fill-rule="evenodd" fill-opacity="0.5"/>
<polyline clip-path="url(#clip6102)" style="stroke:#000000; stroke-width:4; stroke-opacity:0.5; fill:none" points="
  2077.32,1445.09 2077.32,1446.71 2103.07,1446.71 2103.07,1445.09 2077.32,1445.09 
  "/>
<path clip-path="url(#clip6102)" d="
M2103.07 1446.71 L2103.07 1446.71 L2128.82 1446.71 L2128.82 1446.71 L2103.07 1446.71 L2103.07 1446.71  Z
  " fill="#3da44d" fill-rule="evenodd" fill-opacity="0.5"/>
<polyline clip-path="url(#clip6102)" style="stroke:#000000; stroke-width:4; stroke-opacity:0.5; fill:none" points="
  2103.07,1446.71 2103.07,1446.71 2128.82,1446.71 2103.07,1446.71 
  "/>
<path clip-path="url(#clip6102)" d="
M2128.82 1446.71 L2128.82 1446.71 L2154.57 1446.71 L2154.57 1446.71 L2128.82 1446.71 L2128.82 1446.71  Z
  " fill="#3da44d" fill-rule="evenodd" fill-opacity="0.5"/>
<polyline clip-path="url(#clip6102)" style="stroke:#000000; stroke-width:4; stroke-opacity:0.5; fill:none" points="
  2128.82,1446.71 2128.82,1446.71 2154.57,1446.71 2128.82,1446.71 
  "/>
<path clip-path="url(#clip6102)" d="
M2154.57 1445.09 L2154.57 1446.71 L2180.32 1446.71 L2180.32 1445.09 L2154.57 1445.09 L2154.57 1445.09  Z
  " fill="#3da44d" fill-rule="evenodd" fill-opacity="0.5"/>
<polyline clip-path="url(#clip6102)" style="stroke:#000000; stroke-width:4; stroke-opacity:0.5; fill:none" points="
  2154.57,1445.09 2154.57,1446.71 2180.32,1446.71 2180.32,1445.09 2154.57,1445.09 
  "/>
<path clip-path="url(#clip6102)" d="
M2180.32 1446.71 L2180.32 1446.71 L2206.07 1446.71 L2206.07 1446.71 L2180.32 1446.71 L2180.32 1446.71  Z
  " fill="#3da44d" fill-rule="evenodd" fill-opacity="0.5"/>
<polyline clip-path="url(#clip6102)" style="stroke:#000000; stroke-width:4; stroke-opacity:0.5; fill:none" points="
  2180.32,1446.71 2180.32,1446.71 2206.07,1446.71 2180.32,1446.71 
  "/>
<path clip-path="url(#clip6102)" d="
M2206.07 1445.09 L2206.07 1446.71 L2231.81 1446.71 L2231.81 1445.09 L2206.07 1445.09 L2206.07 1445.09  Z
  " fill="#3da44d" fill-rule="evenodd" fill-opacity="0.5"/>
<polyline clip-path="url(#clip6102)" style="stroke:#000000; stroke-width:4; stroke-opacity:0.5; fill:none" points="
  2206.07,1445.09 2206.07,1446.71 2231.81,1446.71 2231.81,1445.09 2206.07,1445.09 
  "/>
<path clip-path="url(#clip6100)" d="
M1909.74 312.204 L2280.76 312.204 L2280.76 130.764 L1909.74 130.764  Z
  " fill="#ffffff" fill-rule="evenodd" fill-opacity="1"/>
<polyline clip-path="url(#clip6100)" style="stroke:#000000; stroke-width:4; stroke-opacity:1; fill:none" points="
  1909.74,312.204 2280.76,312.204 2280.76,130.764 1909.74,130.764 1909.74,312.204 
  "/>
<path clip-path="url(#clip6100)" d="
M1933.74 215.436 L2077.74 215.436 L2077.74 167.052 L1933.74 167.052 L1933.74 215.436  Z
  " fill="#009af9" fill-rule="evenodd" fill-opacity="0.7"/>
<polyline clip-path="url(#clip6100)" style="stroke:#000000; stroke-width:4; stroke-opacity:1; fill:none" points="
  1933.74,215.436 2077.74,215.436 2077.74,167.052 1933.74,167.052 1933.74,215.436 
  "/>
<g clip-path="url(#clip6100)">
<text style="fill:#000000; fill-opacity:1; font-family:Arial,Helvetica Neue,Helvetica,sans-serif; font-size:48px; text-anchor:start;" transform="rotate(0, 2101.74, 208.744)" x="2101.74" y="208.744">ADVI</text>
</g>
<path clip-path="url(#clip6100)" d="
M1933.74 275.916 L2077.74 275.916 L2077.74 227.532 L1933.74 227.532 L1933.74 275.916  Z
  " fill="#3da44d" fill-rule="evenodd" fill-opacity="0.5"/>
<polyline clip-path="url(#clip6100)" style="stroke:#000000; stroke-width:4; stroke-opacity:1; fill:none" points="
  1933.74,275.916 2077.74,275.916 2077.74,227.532 1933.74,227.532 1933.74,275.916 
  "/>
<g clip-path="url(#clip6100)">
<text style="fill:#000000; fill-opacity:1; font-family:Arial,Helvetica Neue,Helvetica,sans-serif; font-size:48px; text-anchor:start;" transform="rotate(0, 2101.74, 269.224)" x="2101.74" y="269.224">NUTS</text>
</g>
</svg>
