<?xml version="1.0" encoding="utf-8"?>
<svg xmlns="http://www.w3.org/2000/svg" xmlns:xlink="http://www.w3.org/1999/xlink" width="600" height="400" viewBox="0 0 2400 1600">
<defs>
  <clipPath id="clip2900">
    <rect x="0" y="0" width="2400" height="1600"/>
  </clipPath>
</defs>
<polygon clip-path="url(#clip2900)" points="
0,1600 2400,1600 2400,0 0,0 
  " fill="#ffffff" fill-rule="evenodd" fill-opacity="1"/>
<defs>
  <clipPath id="clip2901">
    <rect x="480" y="0" width="1681" height="1600"/>
  </clipPath>
</defs>
<polygon clip-path="url(#clip2900)" points="
180.66,1487.47 2352.76,1487.47 2352.76,47.2441 180.66,47.2441 
  " fill="#ffffff" fill-rule="evenodd" fill-opacity="1"/>
<defs>
  <clipPath id="clip2902">
    <rect x="180" y="47" width="2173" height="1441"/>
  </clipPath>
</defs>
<polyline clip-path="url(#clip2902)" style="stroke:#000000; stroke-width:2; stroke-opacity:0.1; fill:none" points="
  339.814,1487.47 339.814,47.2441 
  "/>
<polyline clip-path="url(#clip2902)" style="stroke:#000000; stroke-width:2; stroke-opacity:0.1; fill:none" points="
  774.339,1487.47 774.339,47.2441 
  "/>
<polyline clip-path="url(#clip2902)" style="stroke:#000000; stroke-width:2; stroke-opacity:0.1; fill:none" points="
  1208.86,1487.47 1208.86,47.2441 
  "/>
<polyline clip-path="url(#clip2902)" style="stroke:#000000; stroke-width:2; stroke-opacity:0.1; fill:none" points="
  1643.39,1487.47 1643.39,47.2441 
  "/>
<polyline clip-path="url(#clip2902)" style="stroke:#000000; stroke-width:2; stroke-opacity:0.1; fill:none" points="
  2077.91,1487.47 2077.91,47.2441 
  "/>
<polyline clip-path="url(#clip2902)" style="stroke:#000000; stroke-width:2; stroke-opacity:0.1; fill:none" points="
  180.66,1446.71 2352.76,1446.71 
  "/>
<polyline clip-path="url(#clip2902)" style="stroke:#000000; stroke-width:2; stroke-opacity:0.1; fill:none" points="
  180.66,1108.29 2352.76,1108.29 
  "/>
<polyline clip-path="url(#clip2902)" style="stroke:#000000; stroke-width:2; stroke-opacity:0.1; fill:none" points="
  180.66,769.862 2352.76,769.862 
  "/>
<polyline clip-path="url(#clip2902)" style="stroke:#000000; stroke-width:2; stroke-opacity:0.1; fill:none" points="
  180.66,431.436 2352.76,431.436 
  "/>
<polyline clip-path="url(#clip2902)" style="stroke:#000000; stroke-width:2; stroke-opacity:0.1; fill:none" points="
  180.66,93.0095 2352.76,93.0095 
  "/>
<polyline clip-path="url(#clip2900)" style="stroke:#000000; stroke-width:4; stroke-opacity:1; fill:none" points="
  180.66,1487.47 2352.76,1487.47 
  "/>
<polyline clip-path="url(#clip2900)" style="stroke:#000000; stroke-width:4; stroke-opacity:1; fill:none" points="
  180.66,1487.47 180.66,47.2441 
  "/>
<polyline clip-path="url(#clip2900)" style="stroke:#000000; stroke-width:4; stroke-opacity:1; fill:none" points="
  339.814,1487.47 339.814,1465.87 
  "/>
<polyline clip-path="url(#clip2900)" style="stroke:#000000; stroke-width:4; stroke-opacity:1; fill:none" points="
  774.339,1487.47 774.339,1465.87 
  "/>
<polyline clip-path="url(#clip2900)" style="stroke:#000000; stroke-width:4; stroke-opacity:1; fill:none" points="
  1208.86,1487.47 1208.86,1465.87 
  "/>
<polyline clip-path="url(#clip2900)" style="stroke:#000000; stroke-width:4; stroke-opacity:1; fill:none" points="
  1643.39,1487.47 1643.39,1465.87 
  "/>
<polyline clip-path="url(#clip2900)" style="stroke:#000000; stroke-width:4; stroke-opacity:1; fill:none" points="
  2077.91,1487.47 2077.91,1465.87 
  "/>
<polyline clip-path="url(#clip2900)" style="stroke:#000000; stroke-width:4; stroke-opacity:1; fill:none" points="
  180.66,1446.71 213.242,1446.71 
  "/>
<polyline clip-path="url(#clip2900)" style="stroke:#000000; stroke-width:4; stroke-opacity:1; fill:none" points="
  180.66,1108.29 213.242,1108.29 
  "/>
<polyline clip-path="url(#clip2900)" style="stroke:#000000; stroke-width:4; stroke-opacity:1; fill:none" points="
  180.66,769.862 213.242,769.862 
  "/>
<polyline clip-path="url(#clip2900)" style="stroke:#000000; stroke-width:4; stroke-opacity:1; fill:none" points="
  180.66,431.436 213.242,431.436 
  "/>
<polyline clip-path="url(#clip2900)" style="stroke:#000000; stroke-width:4; stroke-opacity:1; fill:none" points="
  180.66,93.0095 213.242,93.0095 
  "/>
<g clip-path="url(#clip2900)">
<text style="fill:#000000; fill-opacity:1; font-family:Arial,Helvetica Neue,Helvetica,sans-serif; font-size:48px; text-anchor:middle;" transform="rotate(0, 339.814, 1541.47)" x="339.814" y="1541.47">-20</text>
</g>
<g clip-path="url(#clip2900)">
<text style="fill:#000000; fill-opacity:1; font-family:Arial,Helvetica Neue,Helvetica,sans-serif; font-size:48px; text-anchor:middle;" transform="rotate(0, 774.339, 1541.47)" x="774.339" y="1541.47">-10</text>
</g>
<g clip-path="url(#clip2900)">
<text style="fill:#000000; fill-opacity:1; font-family:Arial,Helvetica Neue,Helvetica,sans-serif; font-size:48px; text-anchor:middle;" transform="rotate(0, 1208.86, 1541.47)" x="1208.86" y="1541.47">0</text>
</g>
<g clip-path="url(#clip2900)">
<text style="fill:#000000; fill-opacity:1; font-family:Arial,Helvetica Neue,Helvetica,sans-serif; font-size:48px; text-anchor:middle;" transform="rotate(0, 1643.39, 1541.47)" x="1643.39" y="1541.47">10</text>
</g>
<g clip-path="url(#clip2900)">
<text style="fill:#000000; fill-opacity:1; font-family:Arial,Helvetica Neue,Helvetica,sans-serif; font-size:48px; text-anchor:middle;" transform="rotate(0, 2077.91, 1541.47)" x="2077.91" y="1541.47">20</text>
</g>
<g clip-path="url(#clip2900)">
<text style="fill:#000000; fill-opacity:1; font-family:Arial,Helvetica Neue,Helvetica,sans-serif; font-size:48px; text-anchor:end;" transform="rotate(0, 156.66, 1464.21)" x="156.66" y="1464.21">0.00</text>
</g>
<g clip-path="url(#clip2900)">
<text style="fill:#000000; fill-opacity:1; font-family:Arial,Helvetica Neue,Helvetica,sans-serif; font-size:48px; text-anchor:end;" transform="rotate(0, 156.66, 1125.79)" x="156.66" y="1125.79">0.02</text>
</g>
<g clip-path="url(#clip2900)">
<text style="fill:#000000; fill-opacity:1; font-family:Arial,Helvetica Neue,Helvetica,sans-serif; font-size:48px; text-anchor:end;" transform="rotate(0, 156.66, 787.362)" x="156.66" y="787.362">0.04</text>
</g>
<g clip-path="url(#clip2900)">
<text style="fill:#000000; fill-opacity:1; font-family:Arial,Helvetica Neue,Helvetica,sans-serif; font-size:48px; text-anchor:end;" transform="rotate(0, 156.66, 448.936)" x="156.66" y="448.936">0.06</text>
</g>
<g clip-path="url(#clip2900)">
<text style="fill:#000000; fill-opacity:1; font-family:Arial,Helvetica Neue,Helvetica,sans-serif; font-size:48px; text-anchor:end;" transform="rotate(0, 156.66, 110.51)" x="156.66" y="110.51">0.08</text>
</g>
<polyline clip-path="url(#clip2902)" style="stroke:#009af9; stroke-width:12; stroke-opacity:1; fill:none" points="
  269.503,1446.71 279.307,1446.71 289.111,1446.71 298.915,1446.71 308.719,1446.69 318.523,1446.66 328.327,1446.62 338.131,1446.58 347.935,1446.54 357.739,1446.53 
  367.543,1446.51 377.347,1446.46 387.151,1446.37 396.955,1446.27 406.759,1446.15 416.563,1446.05 426.367,1445.98 436.171,1445.92 445.975,1445.83 455.779,1445.65 
  465.583,1445.37 475.387,1444.99 485.191,1444.51 494.995,1443.85 504.799,1442.97 514.603,1441.89 524.407,1440.72 534.211,1439.55 544.015,1438.39 553.819,1437.19 
  563.623,1435.94 573.427,1434.63 583.231,1433.22 593.035,1431.61 602.84,1429.75 612.644,1427.76 622.448,1425.78 632.252,1423.79 642.056,1421.58 651.86,1418.66 
  661.664,1414.46 671.468,1408.68 681.272,1401.47 691.076,1393.53 700.88,1385.82 710.684,1379.07 720.488,1373.26 730.292,1367.69 740.096,1361.46 749.9,1353.84 
  759.704,1344.4 769.508,1333.01 779.312,1319.8 789.116,1305.22 798.92,1290.07 808.724,1275.14 818.528,1260.61 828.332,1245.64 838.136,1228.74 847.94,1208.78 
  857.744,1185.96 867.548,1161.6 877.352,1137.1 887.156,1113.07 896.96,1089.11 906.764,1064.21 916.568,1037.56 926.372,1009.32 936.176,980.227 945.98,950.416 
  955.785,918.915 965.589,884.716 975.393,848.078 985.197,810.481 995.001,773.408 1004.8,737.245 1014.61,701.207 1024.41,664.283 1034.22,626.432 1044.02,588.857 
  1053.82,552.967 1063.63,519.215 1073.43,487.011 1083.24,455.48 1093.04,423.947 1102.84,391.935 1112.65,359.353 1122.45,326.916 1132.26,295.988 1142.06,267.895 
  1151.87,243.66 1161.67,223.838 1171.47,207.56 1181.28,191.991 1191.08,174.04 1200.89,153.186 1210.69,132.066 1220.49,114.039 1230.3,100.736 1240.1,92.1049 
  1249.91,88.0053 1259.71,88.9404 1269.51,95.1069 1279.32,105.268 1289.12,117.348 1298.93,130.27 1308.73,144.63 1318.53,161.481 1328.34,181.079 1338.14,203.026 
  1347.95,227.175 1357.75,253.922 1367.55,283.535 1377.36,315.61 1387.16,349.36 1396.97,383.871 1406.77,417.783 1416.57,449.514 1426.38,478.493 1436.18,505.964 
  1445.99,534.375 1455.79,566.005 1465.59,601.778 1475.4,640.74 1485.2,680.618 1495.01,719.319 1504.81,756.302 1514.61,792.552 1524.42,829.144 1534.22,865.861 
  1544.03,901.323 1553.83,934.291 1563.63,964.532 1573.44,992.609 1583.24,1019.39 1593.05,1045.76 1602.85,1072.21 1612.65,1098.57 1622.46,1124.44 1632.26,1149.63 
  1642.07,1174.02 1651.87,1196.97 1661.67,1217.53 1671.48,1235.3 1681.28,1250.87 1691.09,1265.36 1700.89,1279.59 1710.69,1293.69 1720.5,1307.32 1730.3,1320.05 
  1740.11,1331.75 1749.91,1342.51 1759.71,1352.47 1769.52,1361.53 1779.32,1369.54 1789.13,1376.61 1798.93,1383.19 1808.73,1389.68 1818.54,1396.18 1828.34,1402.52 
  1838.15,1408.48 1847.95,1413.85 1857.76,1418.33 1867.56,1421.7 1877.36,1424.02 1887.17,1425.68 1896.97,1427.21 1906.78,1428.93 1916.58,1430.92 1926.38,1433.01 
  1936.19,1434.99 1945.99,1436.75 1955.8,1438.22 1965.6,1439.33 1975.4,1440.13 1985.21,1440.79 1995.01,1441.48 2004.82,1442.26 2014.62,1443.04 2024.42,1443.72 
  2034.23,1444.26 2044.03,1444.7 2053.84,1445.06 2063.64,1445.33 2073.44,1445.52 2083.25,1445.64 2093.05,1445.74 2102.86,1445.84 2112.66,1445.94 2122.46,1446.07 
  2132.27,1446.2 2142.07,1446.34 2151.88,1446.47 2161.68,1446.58 2171.48,1446.65 2181.29,1446.69 2191.09,1446.71 2200.9,1446.71 2210.7,1446.71 2220.5,1446.71 
  
  "/>
<polyline clip-path="url(#clip2902)" style="stroke:#e26f46; stroke-width:12; stroke-opacity:1; fill:none" points="
  242.135,1446.71 252.432,1446.71 262.729,1446.71 273.026,1446.7 283.324,1446.66 293.621,1446.6 303.918,1446.51 314.215,1446.42 324.512,1446.38 334.81,1446.39 
  345.107,1446.41 355.404,1446.42 365.701,1446.42 375.999,1446.41 386.296,1446.35 396.593,1446.22 406.89,1446.01 417.187,1445.76 427.485,1445.51 437.782,1445.29 
  448.079,1445.1 458.376,1444.92 468.674,1444.68 478.971,1444.27 489.268,1443.69 499.565,1443.08 509.862,1442.58 520.16,1442.2 530.457,1441.8 540.754,1441.25 
  551.051,1440.38 561.349,1439.13 571.646,1437.5 581.943,1435.49 592.24,1433.04 602.537,1430.11 612.835,1426.85 623.132,1423.56 633.429,1420.34 643.726,1416.86 
  654.024,1412.65 664.321,1407.7 674.618,1402.56 684.915,1397.69 695.212,1392.97 705.51,1387.94 715.807,1382.12 726.104,1375.24 736.401,1367.25 746.698,1358.33 
  756.996,1348.71 767.293,1338.43 777.59,1327.39 787.887,1315.26 798.185,1301.19 808.482,1284.27 818.779,1264.71 829.076,1244.03 839.373,1223.78 849.671,1203.91 
  859.968,1182.84 870.265,1159.04 880.562,1132.34 890.86,1103.68 901.157,1074.17 911.454,1044.7 921.751,1015.82 932.048,987.013 942.346,956.469 952.643,922.339 
  962.94,884.8 973.237,846.456 983.535,810.514 993.832,778.414 1004.13,748.809 1014.43,718.453 1024.72,684.105 1035.02,644.325 1045.32,600.295 1055.62,554.889 
  1065.91,510.512 1076.21,467.9 1086.51,427.03 1096.8,388.284 1107.1,352.162 1117.4,318.689 1127.7,287.811 1137.99,259.832 1148.29,234.993 1158.59,213.102 
  1168.88,193.983 1179.18,177.914 1189.48,165.184 1199.78,155.368 1210.07,147.267 1220.37,139.334 1230.67,130.562 1240.97,121.581 1251.26,114.446 1261.56,110.942 
  1271.86,111.737 1282.15,116.949 1292.45,126.421 1302.75,139.725 1313.05,156.639 1323.34,177.017 1333.64,199.936 1343.94,223.998 1354.23,248.617 1364.53,274.101 
  1374.83,300.528 1385.13,327.615 1395.42,355.781 1405.72,386.468 1416.02,420.924 1426.32,458.763 1436.61,497.83 1446.91,535.672 1457.21,571.571 1467.5,607.232 
  1477.8,644.96 1488.1,685.038 1498.4,725.503 1508.69,764.42 1518.99,801.29 1529.29,836.471 1539.58,870.729 1549.88,905.252 1560.18,940.736 1570.48,976.594 
  1580.77,1011.85 1591.07,1046.03 1601.37,1078.45 1611.66,1107.69 1621.96,1132.94 1632.26,1155.27 1642.56,1176.61 1652.85,1197.83 1663.15,1218.4 1673.45,1237.55 
  1683.75,1255.16 1694.04,1271.68 1704.34,1287.62 1714.64,1303.29 1724.93,1318.62 1735.23,1333.11 1745.53,1345.99 1755.83,1356.62 1766.12,1365.14 1776.42,1372.61 
  1786.72,1380.29 1797.01,1388.58 1807.31,1396.78 1817.61,1403.88 1827.91,1409.39 1838.2,1413.5 1848.5,1416.79 1858.8,1419.81 1869.1,1422.81 1879.39,1425.73 
  1889.69,1428.38 1899.99,1430.63 1910.28,1432.47 1920.58,1433.94 1930.88,1435.19 1941.18,1436.45 1951.47,1437.9 1961.77,1439.49 1972.07,1440.94 1982.36,1441.99 
  1992.66,1442.61 2002.96,1443.04 2013.26,1443.49 2023.55,1443.98 2033.85,1444.46 2044.15,1444.9 2054.45,1445.32 2064.74,1445.71 2075.04,1446.01 2085.34,1446.21 
  2095.63,1446.32 2105.93,1446.35 2116.23,1446.33 2126.53,1446.31 2136.82,1446.33 2147.12,1446.41 2157.42,1446.49 2167.71,1446.54 2178.01,1446.53 2188.31,1446.49 
  2198.61,1446.46 2208.9,1446.47 2219.2,1446.52 2229.5,1446.58 2239.8,1446.64 2250.09,1446.68 2260.39,1446.7 2270.69,1446.71 2280.98,1446.71 2291.28,1446.71 
  
  "/>
<polygon clip-path="url(#clip2900)" points="
1987.23,312.204 2280.76,312.204 2280.76,130.764 1987.23,130.764 
  " fill="#ffffff" fill-rule="evenodd" fill-opacity="1"/>
<polyline clip-path="url(#clip2900)" style="stroke:#000000; stroke-width:4; stroke-opacity:1; fill:none" points="
  1987.23,312.204 2280.76,312.204 2280.76,130.764 1987.23,130.764 1987.23,312.204 
  "/>
<polyline clip-path="url(#clip2900)" style="stroke:#009af9; stroke-width:12; stroke-opacity:1; fill:none" points="
  2011.23,191.244 2155.23,191.244 
  "/>
<g clip-path="url(#clip2900)">
<text style="fill:#000000; fill-opacity:1; font-family:Arial,Helvetica Neue,Helvetica,sans-serif; font-size:48px; text-anchor:start;" transform="rotate(0, 2179.23, 208.744)" x="2179.23" y="208.744">d1</text>
</g>
<polyline clip-path="url(#clip2900)" style="stroke:#e26f46; stroke-width:12; stroke-opacity:1; fill:none" points="
  2011.23,251.724 2155.23,251.724 
  "/>
<g clip-path="url(#clip2900)">
<text style="fill:#000000; fill-opacity:1; font-family:Arial,Helvetica Neue,Helvetica,sans-serif; font-size:48px; text-anchor:start;" transform="rotate(0, 2179.23, 269.224)" x="2179.23" y="269.224">d2</text>
</g>
</svg>
