<?xml version="1.0" encoding="utf-8"?>
<svg xmlns="http://www.w3.org/2000/svg" xmlns:xlink="http://www.w3.org/1999/xlink" width="600" height="400" viewBox="0 0 2400 1600">
<defs>
  <clipPath id="clip2700">
    <rect x="0" y="0" width="2400" height="1600"/>
  </clipPath>
</defs>
<polygon clip-path="url(#clip2700)" points="
0,1600 2400,1600 2400,0 0,0 
  " fill="#ffffff" fill-rule="evenodd" fill-opacity="1"/>
<defs>
  <clipPath id="clip2701">
    <rect x="480" y="0" width="1681" height="1600"/>
  </clipPath>
</defs>
<polygon clip-path="url(#clip2700)" points="
180.66,1487.47 2352.76,1487.47 2352.76,47.2441 180.66,47.2441 
  " fill="#ffffff" fill-rule="evenodd" fill-opacity="1"/>
<defs>
  <clipPath id="clip2702">
    <rect x="180" y="47" width="2173" height="1441"/>
  </clipPath>
</defs>
<polyline clip-path="url(#clip2702)" style="stroke:#000000; stroke-width:2; stroke-opacity:0.1; fill:none" points="
  515.354,1487.47 515.354,47.2441 
  "/>
<polyline clip-path="url(#clip2702)" style="stroke:#000000; stroke-width:2; stroke-opacity:0.1; fill:none" points="
  856.879,1487.47 856.879,47.2441 
  "/>
<polyline clip-path="url(#clip2702)" style="stroke:#000000; stroke-width:2; stroke-opacity:0.1; fill:none" points="
  1198.4,1487.47 1198.4,47.2441 
  "/>
<polyline clip-path="url(#clip2702)" style="stroke:#000000; stroke-width:2; stroke-opacity:0.1; fill:none" points="
  1539.93,1487.47 1539.93,47.2441 
  "/>
<polyline clip-path="url(#clip2702)" style="stroke:#000000; stroke-width:2; stroke-opacity:0.1; fill:none" points="
  1881.45,1487.47 1881.45,47.2441 
  "/>
<polyline clip-path="url(#clip2702)" style="stroke:#000000; stroke-width:2; stroke-opacity:0.1; fill:none" points="
  2222.98,1487.47 2222.98,47.2441 
  "/>
<polyline clip-path="url(#clip2702)" style="stroke:#000000; stroke-width:2; stroke-opacity:0.1; fill:none" points="
  180.66,1461.98 2352.76,1461.98 
  "/>
<polyline clip-path="url(#clip2702)" style="stroke:#000000; stroke-width:2; stroke-opacity:0.1; fill:none" points="
  180.66,1117.57 2352.76,1117.57 
  "/>
<polyline clip-path="url(#clip2702)" style="stroke:#000000; stroke-width:2; stroke-opacity:0.1; fill:none" points="
  180.66,773.17 2352.76,773.17 
  "/>
<polyline clip-path="url(#clip2702)" style="stroke:#000000; stroke-width:2; stroke-opacity:0.1; fill:none" points="
  180.66,428.766 2352.76,428.766 
  "/>
<polyline clip-path="url(#clip2702)" style="stroke:#000000; stroke-width:2; stroke-opacity:0.1; fill:none" points="
  180.66,84.3625 2352.76,84.3625 
  "/>
<polyline clip-path="url(#clip2700)" style="stroke:#000000; stroke-width:4; stroke-opacity:1; fill:none" points="
  180.66,1487.47 2352.76,1487.47 
  "/>
<polyline clip-path="url(#clip2700)" style="stroke:#000000; stroke-width:4; stroke-opacity:1; fill:none" points="
  180.66,1487.47 180.66,47.2441 
  "/>
<polyline clip-path="url(#clip2700)" style="stroke:#000000; stroke-width:4; stroke-opacity:1; fill:none" points="
  515.354,1487.47 515.354,1465.87 
  "/>
<polyline clip-path="url(#clip2700)" style="stroke:#000000; stroke-width:4; stroke-opacity:1; fill:none" points="
  856.879,1487.47 856.879,1465.87 
  "/>
<polyline clip-path="url(#clip2700)" style="stroke:#000000; stroke-width:4; stroke-opacity:1; fill:none" points="
  1198.4,1487.47 1198.4,1465.87 
  "/>
<polyline clip-path="url(#clip2700)" style="stroke:#000000; stroke-width:4; stroke-opacity:1; fill:none" points="
  1539.93,1487.47 1539.93,1465.87 
  "/>
<polyline clip-path="url(#clip2700)" style="stroke:#000000; stroke-width:4; stroke-opacity:1; fill:none" points="
  1881.45,1487.47 1881.45,1465.87 
  "/>
<polyline clip-path="url(#clip2700)" style="stroke:#000000; stroke-width:4; stroke-opacity:1; fill:none" points="
  2222.98,1487.47 2222.98,1465.87 
  "/>
<polyline clip-path="url(#clip2700)" style="stroke:#000000; stroke-width:4; stroke-opacity:1; fill:none" points="
  180.66,1461.98 213.242,1461.98 
  "/>
<polyline clip-path="url(#clip2700)" style="stroke:#000000; stroke-width:4; stroke-opacity:1; fill:none" points="
  180.66,1117.57 213.242,1117.57 
  "/>
<polyline clip-path="url(#clip2700)" style="stroke:#000000; stroke-width:4; stroke-opacity:1; fill:none" points="
  180.66,773.17 213.242,773.17 
  "/>
<polyline clip-path="url(#clip2700)" style="stroke:#000000; stroke-width:4; stroke-opacity:1; fill:none" points="
  180.66,428.766 213.242,428.766 
  "/>
<polyline clip-path="url(#clip2700)" style="stroke:#000000; stroke-width:4; stroke-opacity:1; fill:none" points="
  180.66,84.3625 213.242,84.3625 
  "/>
<g clip-path="url(#clip2700)">
<text style="fill:#000000; fill-opacity:1; font-family:Arial,Helvetica Neue,Helvetica,sans-serif; font-size:48px; text-anchor:middle;" transform="rotate(0, 515.354, 1541.47)" x="515.354" y="1541.47">-10</text>
</g>
<g clip-path="url(#clip2700)">
<text style="fill:#000000; fill-opacity:1; font-family:Arial,Helvetica Neue,Helvetica,sans-serif; font-size:48px; text-anchor:middle;" transform="rotate(0, 856.879, 1541.47)" x="856.879" y="1541.47">-5</text>
</g>
<g clip-path="url(#clip2700)">
<text style="fill:#000000; fill-opacity:1; font-family:Arial,Helvetica Neue,Helvetica,sans-serif; font-size:48px; text-anchor:middle;" transform="rotate(0, 1198.4, 1541.47)" x="1198.4" y="1541.47">0</text>
</g>
<g clip-path="url(#clip2700)">
<text style="fill:#000000; fill-opacity:1; font-family:Arial,Helvetica Neue,Helvetica,sans-serif; font-size:48px; text-anchor:middle;" transform="rotate(0, 1539.93, 1541.47)" x="1539.93" y="1541.47">5</text>
</g>
<g clip-path="url(#clip2700)">
<text style="fill:#000000; fill-opacity:1; font-family:Arial,Helvetica Neue,Helvetica,sans-serif; font-size:48px; text-anchor:middle;" transform="rotate(0, 1881.45, 1541.47)" x="1881.45" y="1541.47">10</text>
</g>
<g clip-path="url(#clip2700)">
<text style="fill:#000000; fill-opacity:1; font-family:Arial,Helvetica Neue,Helvetica,sans-serif; font-size:48px; text-anchor:middle;" transform="rotate(0, 2222.98, 1541.47)" x="2222.98" y="1541.47">15</text>
</g>
<g clip-path="url(#clip2700)">
<text style="fill:#000000; fill-opacity:1; font-family:Arial,Helvetica Neue,Helvetica,sans-serif; font-size:48px; text-anchor:end;" transform="rotate(0, 156.66, 1479.48)" x="156.66" y="1479.48">0.00</text>
</g>
<g clip-path="url(#clip2700)">
<text style="fill:#000000; fill-opacity:1; font-family:Arial,Helvetica Neue,Helvetica,sans-serif; font-size:48px; text-anchor:end;" transform="rotate(0, 156.66, 1135.07)" x="156.66" y="1135.07">0.02</text>
</g>
<g clip-path="url(#clip2700)">
<text style="fill:#000000; fill-opacity:1; font-family:Arial,Helvetica Neue,Helvetica,sans-serif; font-size:48px; text-anchor:end;" transform="rotate(0, 156.66, 790.67)" x="156.66" y="790.67">0.04</text>
</g>
<g clip-path="url(#clip2700)">
<text style="fill:#000000; fill-opacity:1; font-family:Arial,Helvetica Neue,Helvetica,sans-serif; font-size:48px; text-anchor:end;" transform="rotate(0, 156.66, 446.266)" x="156.66" y="446.266">0.06</text>
</g>
<g clip-path="url(#clip2700)">
<text style="fill:#000000; fill-opacity:1; font-family:Arial,Helvetica Neue,Helvetica,sans-serif; font-size:48px; text-anchor:end;" transform="rotate(0, 156.66, 101.863)" x="156.66" y="101.863">0.08</text>
</g>
<polyline clip-path="url(#clip2702)" style="stroke:#009af9; stroke-width:16; stroke-opacity:1; fill:none" stroke-dasharray="64, 40" points="
  242.135,1446.71 245.55,1446.25 248.965,1445.77 252.38,1445.28 255.796,1444.78 259.211,1444.27 262.626,1443.74 266.041,1443.19 269.457,1442.64 272.872,1442.06 
  276.287,1441.48 279.702,1440.87 283.118,1440.26 286.533,1439.62 289.948,1438.97 293.363,1438.31 296.779,1437.62 300.194,1436.92 303.609,1436.21 307.024,1435.47 
  310.44,1434.72 313.855,1433.94 317.27,1433.15 320.685,1432.34 324.101,1431.51 327.516,1430.66 330.931,1429.79 334.346,1428.89 337.762,1427.98 341.177,1427.04 
  344.592,1426.09 348.007,1425.11 351.423,1424.1 354.838,1423.08 358.253,1422.03 361.668,1420.95 365.084,1419.85 368.499,1418.73 371.914,1417.58 375.329,1416.4 
  378.745,1415.2 382.16,1413.97 385.575,1412.71 388.99,1411.42 392.405,1410.11 395.821,1408.77 399.236,1407.4 402.651,1406 406.066,1404.56 409.482,1403.1 
  412.897,1401.61 416.312,1400.08 419.727,1398.53 423.143,1396.94 426.558,1395.31 429.973,1393.66 433.388,1391.97 436.804,1390.24 440.219,1388.48 443.634,1386.68 
  447.049,1384.85 450.465,1382.98 453.88,1381.07 457.295,1379.13 460.71,1377.15 464.126,1375.12 467.541,1373.06 470.956,1370.96 474.371,1368.82 477.787,1366.64 
  481.202,1364.42 484.617,1362.15 488.032,1359.85 491.448,1357.5 494.863,1355.1 498.278,1352.66 501.693,1350.18 505.109,1347.66 508.524,1345.08 511.939,1342.47 
  515.354,1339.8 518.77,1337.09 522.185,1334.33 525.6,1331.52 529.015,1328.67 532.431,1325.77 535.846,1322.81 539.261,1319.81 542.676,1316.76 546.091,1313.65 
  549.507,1310.5 552.922,1307.29 556.337,1304.03 559.752,1300.72 563.168,1297.35 566.583,1293.94 569.998,1290.46 573.413,1286.94 576.829,1283.36 580.244,1279.72 
  583.659,1276.03 587.074,1272.28 590.49,1268.48 593.905,1264.62 597.32,1260.7 600.735,1256.73 604.151,1252.7 607.566,1248.61 610.981,1244.46 614.396,1240.26 
  617.812,1235.99 621.227,1231.67 624.642,1227.29 628.057,1222.85 631.473,1218.34 634.888,1213.78 638.303,1209.16 641.718,1204.48 645.134,1199.74 648.549,1194.93 
  651.964,1190.07 655.379,1185.14 658.795,1180.16 662.21,1175.11 665.625,1170 669.04,1164.83 672.456,1159.6 675.871,1154.31 679.286,1148.96 682.701,1143.54 
  686.117,1138.07 689.532,1132.53 692.947,1126.93 696.362,1121.27 699.778,1115.55 703.193,1109.77 706.608,1103.93 710.023,1098.03 713.438,1092.07 716.854,1086.04 
  720.269,1079.96 723.684,1073.82 727.099,1067.62 730.515,1061.36 733.93,1055.04 737.345,1048.66 740.76,1042.23 744.176,1035.73 747.591,1029.18 751.006,1022.58 
  754.421,1015.91 757.837,1009.19 761.252,1002.42 764.667,995.592 768.082,988.709 771.498,981.773 774.913,974.784 778.328,967.742 781.743,960.649 785.159,953.505 
  788.574,946.31 791.989,939.066 795.404,931.773 798.82,924.433 802.235,917.045 805.65,909.611 809.065,902.131 812.481,894.607 815.896,887.04 819.311,879.429 
  822.726,871.777 826.142,864.085 829.557,856.352 832.972,848.581 836.387,840.772 839.803,832.927 843.218,825.046 846.633,817.131 850.048,809.183 853.464,801.204 
  856.879,793.193 860.294,785.153 863.709,777.085 867.124,768.99 870.54,760.87 873.955,752.725 877.37,744.557 880.785,736.368 884.201,728.159 887.616,719.931 
  891.031,711.686 894.446,703.425 897.862,695.15 901.277,686.862 904.692,678.563 908.107,670.255 911.523,661.938 914.938,653.614 918.353,645.286 921.768,636.954 
  925.184,628.621 928.599,620.288 932.014,611.956 935.429,603.628 938.845,595.305 942.26,586.988 945.675,578.681 949.09,570.383 952.506,562.097 955.921,553.826 
  959.336,545.57 962.751,537.331 966.167,529.112 969.582,520.913 972.997,512.738 976.412,504.587 979.828,496.463 983.243,488.367 986.658,480.301 990.073,472.268 
  993.489,464.269 996.904,456.305 1000.32,448.38 1003.73,440.494 1007.15,432.65 1010.56,424.849 1013.98,417.093 1017.4,409.385 1020.81,401.726 1024.23,394.118 
  1027.64,386.563 1031.06,379.063 1034.47,371.62 1037.89,364.235 1041.3,356.91 1044.72,349.648 1048.13,342.451 1051.55,335.319 1054.96,328.256 1058.38,321.262 
  1061.79,314.339 1065.21,307.491 1068.62,300.717 1072.04,294.021 1075.45,287.403 1078.87,280.866 1082.28,274.411 1085.7,268.041 1089.12,261.756 1092.53,255.559 
  1095.95,249.451 1099.36,243.434 1102.78,237.51 1106.19,231.68 1109.61,225.946 1113.02,220.309 1116.44,214.771 1119.85,209.334 1123.27,203.999 1126.68,198.768 
  1130.1,193.641 1133.51,188.621 1136.93,183.71 1140.34,178.907 1143.76,174.215 1147.17,169.636 1150.59,165.169 1154.01,160.818 1157.42,156.582 1160.84,152.464 
  1164.25,148.464 1167.67,144.583 1171.08,140.823 1174.5,137.185 1177.91,133.67 1181.33,130.278 1184.74,127.011 1188.16,123.87 1191.57,120.856 1194.99,117.97 
  1198.4,115.212 1201.82,112.583 1205.23,110.084 1208.65,107.716 1212.06,105.48 1215.48,103.376 1218.89,101.404 1222.31,99.5665 1225.73,97.8624 1229.14,96.2928 
  1232.56,94.8581 1235.97,93.5587 1239.39,92.395 1242.8,91.3674 1246.22,90.4763 1249.63,89.7217 1253.05,89.1041 1256.46,88.6235 1259.88,88.2801 1263.29,88.074 
  1266.71,88.0053 1270.12,88.074 1273.54,88.2801 1276.95,88.6235 1280.37,89.1041 1283.78,89.7217 1287.2,90.4763 1290.61,91.3674 1294.03,92.395 1297.45,93.5587 
  1300.86,94.8581 1304.28,96.2928 1307.69,97.8624 1311.11,99.5665 1314.52,101.404 1317.94,103.376 1321.35,105.48 1324.77,107.716 1328.18,110.084 1331.6,112.583 
  1335.01,115.212 1338.43,117.97 1341.84,120.856 1345.26,123.87 1348.67,127.011 1352.09,130.278 1355.5,133.67 1358.92,137.185 1362.33,140.823 1365.75,144.583 
  1369.17,148.464 1372.58,152.464 1376,156.582 1379.41,160.818 1382.83,165.169 1386.24,169.636 1389.66,174.215 1393.07,178.907 1396.49,183.71 1399.9,188.621 
  1403.32,193.641 1406.73,198.768 1410.15,203.999 1413.56,209.334 1416.98,214.771 1420.39,220.309 1423.81,225.946 1427.22,231.68 1430.64,237.51 1434.06,243.434 
  1437.47,249.451 1440.89,255.559 1444.3,261.756 1447.72,268.041 1451.13,274.411 1454.55,280.866 1457.96,287.403 1461.38,294.021 1464.79,300.717 1468.21,307.491 
  1471.62,314.339 1475.04,321.262 1478.45,328.256 1481.87,335.319 1485.28,342.451 1488.7,349.648 1492.11,356.91 1495.53,364.235 1498.94,371.62 1502.36,379.063 
  1505.78,386.563 1509.19,394.118 1512.61,401.726 1516.02,409.385 1519.44,417.093 1522.85,424.849 1526.27,432.65 1529.68,440.494 1533.1,448.38 1536.51,456.305 
  1539.93,464.269 1543.34,472.268 1546.76,480.301 1550.17,488.367 1553.59,496.463 1557,504.587 1560.42,512.738 1563.83,520.913 1567.25,529.112 1570.66,537.331 
  1574.08,545.57 1577.5,553.826 1580.91,562.097 1584.33,570.383 1587.74,578.681 1591.16,586.988 1594.57,595.305 1597.99,603.628 1601.4,611.956 1604.82,620.288 
  1608.23,628.621 1611.65,636.954 1615.06,645.286 1618.48,653.614 1621.89,661.938 1625.31,670.255 1628.72,678.563 1632.14,686.862 1635.55,695.15 1638.97,703.425 
  1642.39,711.686 1645.8,719.931 1649.22,728.159 1652.63,736.368 1656.05,744.557 1659.46,752.725 1662.88,760.87 1666.29,768.99 1669.71,777.085 1673.12,785.153 
  1676.54,793.193 1679.95,801.204 1683.37,809.183 1686.78,817.131 1690.2,825.046 1693.61,832.927 1697.03,840.772 1700.44,848.581 1703.86,856.352 1707.27,864.085 
  1710.69,871.777 1714.11,879.429 1717.52,887.04 1720.94,894.607 1724.35,902.131 1727.77,909.611 1731.18,917.045 1734.6,924.433 1738.01,931.773 1741.43,939.066 
  1744.84,946.31 1748.26,953.505 1751.67,960.649 1755.09,967.742 1758.5,974.784 1761.92,981.773 1765.33,988.709 1768.75,995.592 1772.16,1002.42 1775.58,1009.19 
  1778.99,1015.91 1782.41,1022.58 1785.83,1029.18 1789.24,1035.73 1792.66,1042.23 1796.07,1048.66 1799.49,1055.04 1802.9,1061.36 1806.32,1067.62 1809.73,1073.82 
  1813.15,1079.96 1816.56,1086.04 1819.98,1092.07 1823.39,1098.03 1826.81,1103.93 1830.22,1109.77 1833.64,1115.55 1837.05,1121.27 1840.47,1126.93 1843.88,1132.53 
  1847.3,1138.07 1850.71,1143.54 1854.13,1148.96 1857.55,1154.31 1860.96,1159.6 1864.38,1164.83 1867.79,1170 1871.21,1175.11 1874.62,1180.16 1878.04,1185.14 
  1881.45,1190.07 1884.87,1194.93 1888.28,1199.74 1891.7,1204.48 1895.11,1209.16 1898.53,1213.78 1901.94,1218.34 1905.36,1222.85 1908.77,1227.29 1912.19,1231.67 
  1915.6,1235.99 1919.02,1240.26 1922.44,1244.46 1925.85,1248.61 1929.27,1252.7 1932.68,1256.73 1936.1,1260.7 1939.51,1264.62 1942.93,1268.48 1946.34,1272.28 
  1949.76,1276.03 1953.17,1279.72 1956.59,1283.36 1960,1286.94 1963.42,1290.46 1966.83,1293.94 1970.25,1297.35 1973.66,1300.72 1977.08,1304.03 1980.49,1307.29 
  1983.91,1310.5 1987.32,1313.65 1990.74,1316.76 1994.16,1319.81 1997.57,1322.81 2000.99,1325.77 2004.4,1328.67 2007.82,1331.52 2011.23,1334.33 2014.65,1337.09 
  2018.06,1339.8 2021.48,1342.47 2024.89,1345.08 2028.31,1347.66 2031.72,1350.18 2035.14,1352.66 2038.55,1355.1 2041.97,1357.5 2045.38,1359.85 2048.8,1362.15 
  2052.21,1364.42 2055.63,1366.64 2059.04,1368.82 2062.46,1370.96 2065.88,1373.06 2069.29,1375.12 2072.71,1377.15 2076.12,1379.13 2079.54,1381.07 2082.95,1382.98 
  2086.37,1384.85 2089.78,1386.68 2093.2,1388.48 2096.61,1390.24 2100.03,1391.97 2103.44,1393.66 2106.86,1395.31 2110.27,1396.94 2113.69,1398.53 2117.1,1400.08 
  2120.52,1401.61 2123.93,1403.1 2127.35,1404.56 2130.77,1406 2134.18,1407.4 2137.6,1408.77 2141.01,1410.11 2144.43,1411.42 2147.84,1412.71 2151.26,1413.97 
  2154.67,1415.2 2158.09,1416.4 2161.5,1417.58 2164.92,1418.73 2168.33,1419.85 2171.75,1420.95 2175.16,1422.03 2178.58,1423.08 2181.99,1424.1 2185.41,1425.11 
  2188.82,1426.09 2192.24,1427.04 2195.65,1427.98 2199.07,1428.89 2202.49,1429.79 2205.9,1430.66 2209.32,1431.51 2212.73,1432.34 2216.15,1433.15 2219.56,1433.94 
  2222.98,1434.72 2226.39,1435.47 2229.81,1436.21 2233.22,1436.92 2236.64,1437.62 2240.05,1438.31 2243.47,1438.97 2246.88,1439.62 2250.3,1440.26 2253.71,1440.87 
  2257.13,1441.48 2260.54,1442.06 2263.96,1442.64 2267.37,1443.19 2270.79,1443.74 2274.21,1444.27 2277.62,1444.78 2281.04,1445.28 2284.45,1445.77 2287.87,1446.25 
  2291.28,1446.71 
  "/>
<polyline clip-path="url(#clip2702)" style="stroke:#e26f46; stroke-width:16; stroke-opacity:0.6; fill:none" points="
  242.135,1446.71 245.55,1446.25 248.965,1445.77 252.38,1445.28 255.796,1444.78 259.211,1444.27 262.626,1443.74 266.041,1443.19 269.457,1442.64 272.872,1442.06 
  276.287,1441.48 279.702,1440.87 283.118,1440.26 286.533,1439.62 289.948,1438.97 293.363,1438.31 296.779,1437.62 300.194,1436.92 303.609,1436.21 307.024,1435.47 
  310.44,1434.72 313.855,1433.94 317.27,1433.15 320.685,1432.34 324.101,1431.51 327.516,1430.66 330.931,1429.79 334.346,1428.89 337.762,1427.98 341.177,1427.04 
  344.592,1426.09 348.007,1425.11 351.423,1424.1 354.838,1423.08 358.253,1422.03 361.668,1420.95 365.084,1419.85 368.499,1418.73 371.914,1417.58 375.329,1416.4 
  378.745,1415.2 382.16,1413.97 385.575,1412.71 388.99,1411.42 392.405,1410.11 395.821,1408.77 399.236,1407.4 402.651,1406 406.066,1404.56 409.482,1403.1 
  412.897,1401.61 416.312,1400.08 419.727,1398.53 423.143,1396.94 426.558,1395.31 429.973,1393.66 433.388,1391.97 436.804,1390.24 440.219,1388.48 443.634,1386.68 
  447.049,1384.85 450.465,1382.98 453.88,1381.07 457.295,1379.13 460.71,1377.15 464.126,1375.12 467.541,1373.06 470.956,1370.96 474.371,1368.82 477.787,1366.64 
  481.202,1364.42 484.617,1362.15 488.032,1359.85 491.448,1357.5 494.863,1355.1 498.278,1352.66 501.693,1350.18 505.109,1347.66 508.524,1345.08 511.939,1342.47 
  515.354,1339.8 518.77,1337.09 522.185,1334.33 525.6,1331.52 529.015,1328.67 532.431,1325.77 535.846,1322.81 539.261,1319.81 542.676,1316.76 546.091,1313.65 
  549.507,1310.5 552.922,1307.29 556.337,1304.03 559.752,1300.72 563.168,1297.35 566.583,1293.94 569.998,1290.46 573.413,1286.94 576.829,1283.36 580.244,1279.72 
  583.659,1276.03 587.074,1272.28 590.49,1268.48 593.905,1264.62 597.32,1260.7 600.735,1256.73 604.151,1252.7 607.566,1248.61 610.981,1244.46 614.396,1240.26 
  617.812,1235.99 621.227,1231.67 624.642,1227.29 628.057,1222.85 631.473,1218.34 634.888,1213.78 638.303,1209.16 641.718,1204.48 645.134,1199.74 648.549,1194.93 
  651.964,1190.07 655.379,1185.14 658.795,1180.16 662.21,1175.11 665.625,1170 669.04,1164.83 672.456,1159.6 675.871,1154.31 679.286,1148.96 682.701,1143.54 
  686.117,1138.07 689.532,1132.53 692.947,1126.93 696.362,1121.27 699.778,1115.55 703.193,1109.77 706.608,1103.93 710.023,1098.03 713.438,1092.07 716.854,1086.04 
  720.269,1079.96 723.684,1073.82 727.099,1067.62 730.515,1061.36 733.93,1055.04 737.345,1048.66 740.76,1042.23 744.176,1035.73 747.591,1029.18 751.006,1022.58 
  754.421,1015.91 757.837,1009.19 761.252,1002.42 764.667,995.592 768.082,988.709 771.498,981.773 774.913,974.784 778.328,967.742 781.743,960.649 785.159,953.505 
  788.574,946.31 791.989,939.066 795.404,931.773 798.82,924.433 802.235,917.045 805.65,909.611 809.065,902.131 812.481,894.607 815.896,887.04 819.311,879.429 
  822.726,871.777 826.142,864.085 829.557,856.352 832.972,848.581 836.387,840.772 839.803,832.927 843.218,825.046 846.633,817.131 850.048,809.183 853.464,801.204 
  856.879,793.193 860.294,785.153 863.709,777.085 867.124,768.99 870.54,760.87 873.955,752.725 877.37,744.557 880.785,736.368 884.201,728.159 887.616,719.931 
  891.031,711.686 894.446,703.425 897.862,695.15 901.277,686.862 904.692,678.563 908.107,670.255 911.523,661.938 914.938,653.614 918.353,645.286 921.768,636.954 
  925.184,628.621 928.599,620.288 932.014,611.956 935.429,603.628 938.845,595.305 942.26,586.988 945.675,578.681 949.09,570.383 952.506,562.097 955.921,553.826 
  959.336,545.57 962.751,537.331 966.167,529.112 969.582,520.913 972.997,512.738 976.412,504.587 979.828,496.463 983.243,488.367 986.658,480.301 990.073,472.268 
  993.489,464.269 996.904,456.305 1000.32,448.38 1003.73,440.494 1007.15,432.65 1010.56,424.849 1013.98,417.093 1017.4,409.385 1020.81,401.726 1024.23,394.118 
  1027.64,386.563 1031.06,379.063 1034.47,371.62 1037.89,364.235 1041.3,356.91 1044.72,349.648 1048.13,342.451 1051.55,335.319 1054.96,328.256 1058.38,321.262 
  1061.79,314.339 1065.21,307.491 1068.62,300.717 1072.04,294.021 1075.45,287.403 1078.87,280.866 1082.28,274.411 1085.7,268.041 1089.12,261.756 1092.53,255.559 
  1095.95,249.451 1099.36,243.434 1102.78,237.51 1106.19,231.68 1109.61,225.946 1113.02,220.309 1116.44,214.771 1119.85,209.334 1123.27,203.999 1126.68,198.768 
  1130.1,193.641 1133.51,188.621 1136.93,183.71 1140.34,178.907 1143.76,174.215 1147.17,169.636 1150.59,165.169 1154.01,160.818 1157.42,156.582 1160.84,152.464 
  1164.25,148.464 1167.67,144.583 1171.08,140.823 1174.5,137.185 1177.91,133.67 1181.33,130.278 1184.74,127.011 1188.16,123.87 1191.57,120.856 1194.99,117.97 
  1198.4,115.212 1201.82,112.583 1205.23,110.084 1208.65,107.716 1212.06,105.48 1215.48,103.376 1218.89,101.404 1222.31,99.5665 1225.73,97.8624 1229.14,96.2928 
  1232.56,94.8581 1235.97,93.5587 1239.39,92.395 1242.8,91.3674 1246.22,90.4763 1249.63,89.7217 1253.05,89.1041 1256.46,88.6235 1259.88,88.2801 1263.29,88.074 
  1266.71,88.0053 1270.12,88.074 1273.54,88.2801 1276.95,88.6235 1280.37,89.1041 1283.78,89.7217 1287.2,90.4763 1290.61,91.3674 1294.03,92.395 1297.45,93.5587 
  1300.86,94.8581 1304.28,96.2928 1307.69,97.8624 1311.11,99.5665 1314.52,101.404 1317.94,103.376 1321.35,105.48 1324.77,107.716 1328.18,110.084 1331.6,112.583 
  1335.01,115.212 1338.43,117.97 1341.84,120.856 1345.26,123.87 1348.67,127.011 1352.09,130.278 1355.5,133.67 1358.92,137.185 1362.33,140.823 1365.75,144.583 
  1369.17,148.464 1372.58,152.464 1376,156.582 1379.41,160.818 1382.83,165.169 1386.24,169.636 1389.66,174.215 1393.07,178.907 1396.49,183.71 1399.9,188.621 
  1403.32,193.641 1406.73,198.768 1410.15,203.999 1413.56,209.334 1416.98,214.771 1420.39,220.309 1423.81,225.946 1427.22,231.68 1430.64,237.51 1434.06,243.434 
  1437.47,249.451 1440.89,255.559 1444.3,261.756 1447.72,268.041 1451.13,274.411 1454.55,280.866 1457.96,287.403 1461.38,294.021 1464.79,300.717 1468.21,307.491 
  1471.62,314.339 1475.04,321.262 1478.45,328.256 1481.87,335.319 1485.28,342.451 1488.7,349.648 1492.11,356.91 1495.53,364.235 1498.94,371.62 1502.36,379.063 
  1505.78,386.563 1509.19,394.118 1512.61,401.726 1516.02,409.385 1519.44,417.093 1522.85,424.849 1526.27,432.65 1529.68,440.494 1533.1,448.38 1536.51,456.305 
  1539.93,464.269 1543.34,472.268 1546.76,480.301 1550.17,488.367 1553.59,496.463 1557,504.587 1560.42,512.738 1563.83,520.913 1567.25,529.112 1570.66,537.331 
  1574.08,545.57 1577.5,553.826 1580.91,562.097 1584.33,570.383 1587.74,578.681 1591.16,586.988 1594.57,595.305 1597.99,603.628 1601.4,611.956 1604.82,620.288 
  1608.23,628.621 1611.65,636.954 1615.06,645.286 1618.48,653.614 1621.89,661.938 1625.31,670.255 1628.72,678.563 1632.14,686.862 1635.55,695.15 1638.97,703.425 
  1642.39,711.686 1645.8,719.931 1649.22,728.159 1652.63,736.368 1656.05,744.557 1659.46,752.725 1662.88,760.87 1666.29,768.99 1669.71,777.085 1673.12,785.153 
  1676.54,793.193 1679.95,801.204 1683.37,809.183 1686.78,817.131 1690.2,825.046 1693.61,832.927 1697.03,840.772 1700.44,848.581 1703.86,856.352 1707.27,864.085 
  1710.69,871.777 1714.11,879.429 1717.52,887.04 1720.94,894.607 1724.35,902.131 1727.77,909.611 1731.18,917.045 1734.6,924.433 1738.01,931.773 1741.43,939.066 
  1744.84,946.31 1748.26,953.505 1751.67,960.649 1755.09,967.742 1758.5,974.784 1761.92,981.773 1765.33,988.709 1768.75,995.592 1772.16,1002.42 1775.58,1009.19 
  1778.99,1015.91 1782.41,1022.58 1785.83,1029.18 1789.24,1035.73 1792.66,1042.23 1796.07,1048.66 1799.49,1055.04 1802.9,1061.36 1806.32,1067.62 1809.73,1073.82 
  1813.15,1079.96 1816.56,1086.04 1819.98,1092.07 1823.39,1098.03 1826.81,1103.93 1830.22,1109.77 1833.64,1115.55 1837.05,1121.27 1840.47,1126.93 1843.88,1132.53 
  1847.3,1138.07 1850.71,1143.54 1854.13,1148.96 1857.55,1154.31 1860.96,1159.6 1864.38,1164.83 1867.79,1170 1871.21,1175.11 1874.62,1180.16 1878.04,1185.14 
  1881.45,1190.07 1884.87,1194.93 1888.28,1199.74 1891.7,1204.48 1895.11,1209.16 1898.53,1213.78 1901.94,1218.34 1905.36,1222.85 1908.77,1227.29 1912.19,1231.67 
  1915.6,1235.99 1919.02,1240.26 1922.44,1244.46 1925.85,1248.61 1929.27,1252.7 1932.68,1256.73 1936.1,1260.7 1939.51,1264.62 1942.93,1268.48 1946.34,1272.28 
  1949.76,1276.03 1953.17,1279.72 1956.59,1283.36 1960,1286.94 1963.42,1290.46 1966.83,1293.94 1970.25,1297.35 1973.66,1300.72 1977.08,1304.03 1980.49,1307.29 
  1983.91,1310.5 1987.32,1313.65 1990.74,1316.76 1994.16,1319.81 1997.57,1322.81 2000.99,1325.77 2004.4,1328.67 2007.82,1331.52 2011.23,1334.33 2014.65,1337.09 
  2018.06,1339.8 2021.48,1342.47 2024.89,1345.08 2028.31,1347.66 2031.72,1350.18 2035.14,1352.66 2038.55,1355.1 2041.97,1357.5 2045.38,1359.85 2048.8,1362.15 
  2052.21,1364.42 2055.63,1366.64 2059.04,1368.82 2062.46,1370.96 2065.88,1373.06 2069.29,1375.12 2072.71,1377.15 2076.12,1379.13 2079.54,1381.07 2082.95,1382.98 
  2086.37,1384.85 2089.78,1386.68 2093.2,1388.48 2096.61,1390.24 2100.03,1391.97 2103.44,1393.66 2106.86,1395.31 2110.27,1396.94 2113.69,1398.53 2117.1,1400.08 
  2120.52,1401.61 2123.93,1403.1 2127.35,1404.56 2130.77,1406 2134.18,1407.4 2137.6,1408.77 2141.01,1410.11 2144.43,1411.42 2147.84,1412.71 2151.26,1413.97 
  2154.67,1415.2 2158.09,1416.4 2161.5,1417.58 2164.92,1418.73 2168.33,1419.85 2171.75,1420.95 2175.16,1422.03 2178.58,1423.08 2181.99,1424.1 2185.41,1425.11 
  2188.82,1426.09 2192.24,1427.04 2195.65,1427.98 2199.07,1428.89 2202.49,1429.79 2205.9,1430.66 2209.32,1431.51 2212.73,1432.34 2216.15,1433.15 2219.56,1433.94 
  2222.98,1434.72 2226.39,1435.47 2229.81,1436.21 2233.22,1436.92 2236.64,1437.62 2240.05,1438.31 2243.47,1438.97 2246.88,1439.62 2250.3,1440.26 2253.71,1440.87 
  2257.13,1441.48 2260.54,1442.06 2263.96,1442.64 2267.37,1443.19 2270.79,1443.74 2274.21,1444.27 2277.62,1444.78 2281.04,1445.28 2284.45,1445.77 2287.87,1446.25 
  2291.28,1446.71 
  "/>
<polygon clip-path="url(#clip2700)" points="
1987.23,312.204 2280.76,312.204 2280.76,130.764 1987.23,130.764 
  " fill="#ffffff" fill-rule="evenodd" fill-opacity="1"/>
<polyline clip-path="url(#clip2700)" style="stroke:#000000; stroke-width:4; stroke-opacity:1; fill:none" points="
  1987.23,312.204 2280.76,312.204 2280.76,130.764 1987.23,130.764 1987.23,312.204 
  "/>
<polyline clip-path="url(#clip2700)" style="stroke:#009af9; stroke-width:16; stroke-opacity:1; fill:none" stroke-dasharray="64, 40" points="
  2011.23,191.244 2155.23,191.244 
  "/>
<g clip-path="url(#clip2700)">
<text style="fill:#000000; fill-opacity:1; font-family:Arial,Helvetica Neue,Helvetica,sans-serif; font-size:48px; text-anchor:start;" transform="rotate(0, 2179.23, 208.744)" x="2179.23" y="208.744">d1</text>
</g>
<polyline clip-path="url(#clip2700)" style="stroke:#e26f46; stroke-width:16; stroke-opacity:0.6; fill:none" points="
  2011.23,251.724 2155.23,251.724 
  "/>
<g clip-path="url(#clip2700)">
<text style="fill:#000000; fill-opacity:1; font-family:Arial,Helvetica Neue,Helvetica,sans-serif; font-size:48px; text-anchor:start;" transform="rotate(0, 2179.23, 269.224)" x="2179.23" y="269.224">td</text>
</g>
</svg>
