<?xml version="1.0" encoding="utf-8"?>
<svg xmlns="http://www.w3.org/2000/svg" xmlns:xlink="http://www.w3.org/1999/xlink" width="600" height="400" viewBox="0 0 2400 1600">
<defs>
  <clipPath id="clip1900">
    <rect x="0" y="0" width="2400" height="1600"/>
  </clipPath>
</defs>
<polygon clip-path="url(#clip1900)" points="
0,1600 2400,1600 2400,0 0,0 
  " fill="#ffffff" fill-rule="evenodd" fill-opacity="1"/>
<defs>
  <clipPath id="clip1901">
    <rect x="480" y="0" width="1681" height="1600"/>
  </clipPath>
</defs>
<polygon clip-path="url(#clip1900)" points="
196.66,1491.86 2352.76,1491.86 2352.76,47.2441 196.66,47.2441 
  " fill="#ffffff" fill-rule="evenodd" fill-opacity="1"/>
<defs>
  <clipPath id="clip1902">
    <rect x="196" y="47" width="2157" height="1446"/>
  </clipPath>
</defs>
<polyline clip-path="url(#clip1902)" style="stroke:#000000; stroke-width:2; stroke-opacity:0.1; fill:none" points="
  364.75,1491.86 364.75,47.2441 
  "/>
<polyline clip-path="url(#clip1902)" style="stroke:#000000; stroke-width:2; stroke-opacity:0.1; fill:none" points="
  793.826,1491.86 793.826,47.2441 
  "/>
<polyline clip-path="url(#clip1902)" style="stroke:#000000; stroke-width:2; stroke-opacity:0.1; fill:none" points="
  1222.9,1491.86 1222.9,47.2441 
  "/>
<polyline clip-path="url(#clip1902)" style="stroke:#000000; stroke-width:2; stroke-opacity:0.1; fill:none" points="
  1651.98,1491.86 1651.98,47.2441 
  "/>
<polyline clip-path="url(#clip1902)" style="stroke:#000000; stroke-width:2; stroke-opacity:0.1; fill:none" points="
  2081.05,1491.86 2081.05,47.2441 
  "/>
<polyline clip-path="url(#clip1902)" style="stroke:#000000; stroke-width:2; stroke-opacity:0.1; fill:none" points="
  196.66,1450.97 2352.76,1450.97 
  "/>
<polyline clip-path="url(#clip1902)" style="stroke:#000000; stroke-width:2; stroke-opacity:0.1; fill:none" points="
  196.66,1111.59 2352.76,1111.59 
  "/>
<polyline clip-path="url(#clip1902)" style="stroke:#000000; stroke-width:2; stroke-opacity:0.1; fill:none" points="
  196.66,772.204 2352.76,772.204 
  "/>
<polyline clip-path="url(#clip1902)" style="stroke:#000000; stroke-width:2; stroke-opacity:0.1; fill:none" points="
  196.66,432.82 2352.76,432.82 
  "/>
<polyline clip-path="url(#clip1902)" style="stroke:#000000; stroke-width:2; stroke-opacity:0.1; fill:none" points="
  196.66,93.4358 2352.76,93.4358 
  "/>
<polyline clip-path="url(#clip1900)" style="stroke:#000000; stroke-width:4; stroke-opacity:1; fill:none" points="
  196.66,1491.86 2352.76,1491.86 
  "/>
<polyline clip-path="url(#clip1900)" style="stroke:#000000; stroke-width:4; stroke-opacity:1; fill:none" points="
  196.66,1491.86 196.66,47.2441 
  "/>
<polyline clip-path="url(#clip1900)" style="stroke:#000000; stroke-width:4; stroke-opacity:1; fill:none" points="
  364.75,1491.86 364.75,1470.19 
  "/>
<polyline clip-path="url(#clip1900)" style="stroke:#000000; stroke-width:4; stroke-opacity:1; fill:none" points="
  793.826,1491.86 793.826,1470.19 
  "/>
<polyline clip-path="url(#clip1900)" style="stroke:#000000; stroke-width:4; stroke-opacity:1; fill:none" points="
  1222.9,1491.86 1222.9,1470.19 
  "/>
<polyline clip-path="url(#clip1900)" style="stroke:#000000; stroke-width:4; stroke-opacity:1; fill:none" points="
  1651.98,1491.86 1651.98,1470.19 
  "/>
<polyline clip-path="url(#clip1900)" style="stroke:#000000; stroke-width:4; stroke-opacity:1; fill:none" points="
  2081.05,1491.86 2081.05,1470.19 
  "/>
<polyline clip-path="url(#clip1900)" style="stroke:#000000; stroke-width:4; stroke-opacity:1; fill:none" points="
  196.66,1450.97 229.002,1450.97 
  "/>
<polyline clip-path="url(#clip1900)" style="stroke:#000000; stroke-width:4; stroke-opacity:1; fill:none" points="
  196.66,1111.59 229.002,1111.59 
  "/>
<polyline clip-path="url(#clip1900)" style="stroke:#000000; stroke-width:4; stroke-opacity:1; fill:none" points="
  196.66,772.204 229.002,772.204 
  "/>
<polyline clip-path="url(#clip1900)" style="stroke:#000000; stroke-width:4; stroke-opacity:1; fill:none" points="
  196.66,432.82 229.002,432.82 
  "/>
<polyline clip-path="url(#clip1900)" style="stroke:#000000; stroke-width:4; stroke-opacity:1; fill:none" points="
  196.66,93.4358 229.002,93.4358 
  "/>
<g clip-path="url(#clip1900)">
<text style="fill:#000000; fill-opacity:1; font-family:Arial,Helvetica Neue,Helvetica,sans-serif; font-size:48px; text-anchor:middle;" transform="rotate(0, 364.75, 1545.86)" x="364.75" y="1545.86">-20</text>
</g>
<g clip-path="url(#clip1900)">
<text style="fill:#000000; fill-opacity:1; font-family:Arial,Helvetica Neue,Helvetica,sans-serif; font-size:48px; text-anchor:middle;" transform="rotate(0, 793.826, 1545.86)" x="793.826" y="1545.86">-10</text>
</g>
<g clip-path="url(#clip1900)">
<text style="fill:#000000; fill-opacity:1; font-family:Arial,Helvetica Neue,Helvetica,sans-serif; font-size:48px; text-anchor:middle;" transform="rotate(0, 1222.9, 1545.86)" x="1222.9" y="1545.86">0</text>
</g>
<g clip-path="url(#clip1900)">
<text style="fill:#000000; fill-opacity:1; font-family:Arial,Helvetica Neue,Helvetica,sans-serif; font-size:48px; text-anchor:middle;" transform="rotate(0, 1651.98, 1545.86)" x="1651.98" y="1545.86">10</text>
</g>
<g clip-path="url(#clip1900)">
<text style="fill:#000000; fill-opacity:1; font-family:Arial,Helvetica Neue,Helvetica,sans-serif; font-size:48px; text-anchor:middle;" transform="rotate(0, 2081.05, 1545.86)" x="2081.05" y="1545.86">20</text>
</g>
<g clip-path="url(#clip1900)">
<text style="fill:#000000; fill-opacity:1; font-family:Arial,Helvetica Neue,Helvetica,sans-serif; font-size:48px; text-anchor:end;" transform="rotate(0, 172.66, 1468.47)" x="172.66" y="1468.47">0.00</text>
</g>
<g clip-path="url(#clip1900)">
<text style="fill:#000000; fill-opacity:1; font-family:Arial,Helvetica Neue,Helvetica,sans-serif; font-size:48px; text-anchor:end;" transform="rotate(0, 172.66, 1129.09)" x="172.66" y="1129.09">0.02</text>
</g>
<g clip-path="url(#clip1900)">
<text style="fill:#000000; fill-opacity:1; font-family:Arial,Helvetica Neue,Helvetica,sans-serif; font-size:48px; text-anchor:end;" transform="rotate(0, 172.66, 789.704)" x="172.66" y="789.704">0.04</text>
</g>
<g clip-path="url(#clip1900)">
<text style="fill:#000000; fill-opacity:1; font-family:Arial,Helvetica Neue,Helvetica,sans-serif; font-size:48px; text-anchor:end;" transform="rotate(0, 172.66, 450.32)" x="172.66" y="450.32">0.06</text>
</g>
<g clip-path="url(#clip1900)">
<text style="fill:#000000; fill-opacity:1; font-family:Arial,Helvetica Neue,Helvetica,sans-serif; font-size:48px; text-anchor:end;" transform="rotate(0, 172.66, 110.936)" x="172.66" y="110.936">0.08</text>
</g>
<polyline clip-path="url(#clip1902)" style="stroke:#009af9; stroke-width:12; stroke-opacity:1; fill:none" points="
  257.682,1450.97 267.552,1450.97 277.422,1450.97 287.293,1450.97 297.163,1450.95 307.033,1450.92 316.904,1450.87 326.774,1450.83 336.644,1450.8 346.515,1450.79 
  356.385,1450.78 366.255,1450.78 376.125,1450.78 385.996,1450.77 395.866,1450.75 405.736,1450.69 415.607,1450.59 425.477,1450.47 435.347,1450.36 445.217,1450.27 
  455.088,1450.21 464.958,1450.14 474.828,1449.99 484.699,1449.75 494.569,1449.42 504.439,1448.97 514.31,1448.37 524.18,1447.55 534.05,1446.52 543.92,1445.35 
  553.791,1444.16 563.661,1442.96 573.531,1441.75 583.402,1440.47 593.272,1439.15 603.142,1437.74 613.012,1436.13 622.883,1434.28 632.753,1432.26 642.623,1430.22 
  652.494,1428.2 662.364,1425.96 672.234,1423.02 682.105,1418.79 691.975,1412.95 701.845,1405.63 711.715,1397.56 721.586,1389.73 731.456,1382.87 741.326,1376.93 
  751.197,1371.16 761.067,1364.59 770.937,1356.5 780.807,1346.53 790.678,1334.55 800.548,1320.72 810.418,1305.57 820.289,1289.99 830.159,1274.83 840.029,1260.05 
  849.899,1244.47 859.77,1226.42 869.64,1205.02 879.51,1180.91 889.381,1155.66 899.251,1130.63 909.121,1106.13 918.992,1081.49 928.862,1055.58 938.732,1027.78 
  948.602,998.535 958.473,968.522 968.343,937.364 978.213,903.856 988.084,867.501 997.954,829.314 1007.82,790.97 1017.69,753.448 1027.56,716.476 1037.44,679.08 
  1047.31,640.758 1057.18,602.266 1067.05,565.087 1076.92,530.051 1086.79,496.701 1096.66,464.044 1106.53,431.414 1116.4,398.471 1126.27,365.151 1136.14,332.085 
  1146.01,300.552 1155.88,271.772 1165.75,246.677 1175.62,225.914 1185.49,208.852 1195.36,192.729 1205.23,174.297 1215.1,152.953 1224.97,131.471 1234.84,113.333 
  1244.71,100.114 1254.58,91.7159 1264.45,88.1294 1274.32,89.9511 1284.19,97.1468 1294.06,108.061 1303.93,120.518 1313.8,133.851 1323.67,149.061 1333.54,167.084 
  1343.41,187.736 1353.28,210.419 1363.15,235.228 1373.03,262.904 1382.9,293.823 1392.77,327.456 1402.64,362.755 1412.51,398.424 1422.38,432.852 1432.25,464.738 
  1442.12,494.154 1451.99,522.794 1461.86,553.13 1471.73,587.112 1481.6,625.034 1491.47,665.257 1501.34,705.295 1511.21,743.662 1521.08,780.809 1530.95,818.102 
  1540.82,855.892 1550.69,892.911 1560.56,927.558 1570.43,959.272 1580.3,988.549 1590.17,1016.28 1600.04,1043.39 1609.91,1070.52 1619.78,1097.62 1629.65,1124.19 
  1639.52,1149.99 1649.39,1174.94 1659.26,1198.47 1669.13,1219.6 1679,1237.87 1688.87,1253.83 1698.74,1268.65 1708.62,1283.16 1718.49,1297.54 1728.36,1311.43 
  1738.23,1324.45 1748.1,1336.42 1757.97,1347.4 1767.84,1357.47 1777.71,1366.55 1787.58,1374.57 1797.45,1381.69 1807.32,1388.38 1817.19,1395.02 1827.06,1401.64 
  1836.93,1408.04 1846.8,1413.99 1856.67,1419.22 1866.54,1423.48 1876.41,1426.61 1886.28,1428.77 1896.15,1430.41 1906.02,1432.01 1915.89,1433.84 1925.76,1435.9 
  1935.63,1437.98 1945.5,1439.91 1955.37,1441.6 1965.24,1442.96 1975.11,1443.96 1984.98,1444.7 1994.85,1445.38 2004.72,1446.15 2014.59,1446.97 2024.46,1447.73 
  2034.33,1448.35 2044.2,1448.84 2054.08,1449.22 2063.95,1449.51 2073.82,1449.71 2083.69,1449.85 2093.56,1449.96 2103.43,1450.07 2113.3,1450.18 2123.17,1450.3 
  2133.04,1450.44 2142.91,1450.58 2152.78,1450.71 2162.65,1450.82 2172.52,1450.9 2182.39,1450.94 2192.26,1450.96 2202.13,1450.97 2212,1450.97 2221.87,1450.97 
  
  "/>
<polyline clip-path="url(#clip1902)" style="stroke:#e26f46; stroke-width:12; stroke-opacity:1; fill:none" points="
  268.308,1450.97 278.476,1450.97 288.644,1450.97 298.812,1450.96 308.98,1450.92 319.148,1450.86 329.316,1450.77 339.484,1450.68 349.651,1450.64 359.819,1450.64 
  369.987,1450.67 380.155,1450.68 390.323,1450.68 400.491,1450.66 410.659,1450.61 420.827,1450.48 430.995,1450.27 441.163,1450.01 451.331,1449.77 461.499,1449.54 
  471.667,1449.35 481.835,1449.18 492.003,1448.93 502.171,1448.52 512.339,1447.94 522.507,1447.33 532.675,1446.83 542.843,1446.44 553.011,1446.05 563.179,1445.49 
  573.347,1444.62 583.515,1443.36 593.683,1441.73 603.851,1439.72 614.019,1437.26 624.187,1434.32 634.355,1431.05 644.523,1427.75 654.691,1424.52 664.859,1421.03 
  675.027,1416.82 685.195,1411.86 695.363,1406.72 705.531,1401.88 715.699,1397.2 725.866,1392.16 736.034,1386.29 746.202,1379.33 756.37,1371.29 766.538,1362.42 
  776.706,1352.91 786.874,1342.75 797.042,1331.81 807.21,1319.73 817.378,1305.62 827.546,1288.59 837.714,1268.83 847.882,1247.94 858.05,1227.51 868.218,1207.56 
  878.386,1186.55 888.554,1162.94 898.722,1136.44 908.89,1107.81 919.058,1078.08 929.226,1048.26 939.394,1019.06 949.562,990.098 959.73,959.46 969.898,925.16 
  980.066,887.337 990.234,848.707 1000.4,812.639 1010.57,780.619 1020.74,751.2 1030.91,720.994 1041.07,686.652 1051.24,646.666 1061.41,602.215 1071.58,556.296 
  1081.75,511.528 1091.91,468.804 1102.08,428.078 1112.25,389.552 1122.42,353.51 1132.59,319.878 1142.75,288.683 1152.92,260.419 1163.09,235.454 1173.26,213.567 
  1183.43,194.478 1193.59,178.417 1203.76,165.678 1213.93,155.85 1224.1,147.74 1234.27,139.824 1244.43,131.107 1254.6,122.186 1264.77,115.039 1274.94,111.413 
  1285.11,112.036 1295.27,117.145 1305.44,126.651 1315.61,140.086 1325.78,157.162 1335.94,177.731 1346.11,200.898 1356.28,225.22 1366.45,250.023 1376.62,275.574 
  1386.78,302.014 1396.95,329.113 1407.12,357.238 1417.29,387.719 1427.46,421.791 1437.62,459.269 1447.79,498.292 1457.96,536.511 1468.13,572.993 1478.3,609.12 
  1488.46,647.07 1498.63,687.211 1508.8,727.696 1518.97,766.621 1529.14,803.479 1539.3,838.646 1549.47,872.938 1559.64,907.589 1569.81,943.305 1579.98,979.431 
  1590.14,1014.87 1600.31,1049.1 1610.48,1081.49 1620.65,1110.71 1630.82,1135.98 1640.98,1158.32 1651.15,1179.65 1661.32,1200.92 1671.49,1221.66 1681.66,1241.06 
  1691.82,1258.89 1701.99,1275.52 1712.16,1291.49 1722.33,1307.11 1732.5,1322.37 1742.66,1336.81 1752.83,1349.67 1763,1360.36 1773.17,1368.98 1783.34,1376.56 
  1793.5,1384.32 1803.67,1392.66 1813.84,1400.92 1824.01,1408.08 1834.18,1413.64 1844.34,1417.8 1854.51,1421.11 1864.68,1424.1 1874.85,1427.07 1885.02,1429.97 
  1895.18,1432.63 1905.35,1434.92 1915.52,1436.8 1925.69,1438.3 1935.86,1439.55 1946.02,1440.78 1956.19,1442.2 1966.36,1443.76 1976.53,1445.2 1986.7,1446.24 
  1996.86,1446.86 2007.03,1447.29 2017.2,1447.74 2027.37,1448.24 2037.54,1448.71 2047.7,1449.15 2057.87,1449.57 2068.04,1449.96 2078.21,1450.27 2088.37,1450.47 
  2098.54,1450.58 2108.71,1450.61 2118.88,1450.59 2129.05,1450.57 2139.21,1450.59 2149.38,1450.66 2159.55,1450.75 2169.72,1450.8 2179.89,1450.79 2190.05,1450.75 
  2200.22,1450.72 2210.39,1450.73 2220.56,1450.78 2230.73,1450.84 2240.89,1450.9 2251.06,1450.94 2261.23,1450.96 2271.4,1450.97 2281.57,1450.97 2291.73,1450.97 
  
  "/>
<polygon clip-path="url(#clip1900)" points="
1987.23,312.204 2280.76,312.204 2280.76,130.764 1987.23,130.764 
  " fill="#ffffff" fill-rule="evenodd" fill-opacity="1"/>
<polyline clip-path="url(#clip1900)" style="stroke:#000000; stroke-width:4; stroke-opacity:1; fill:none" points="
  1987.23,312.204 2280.76,312.204 2280.76,130.764 1987.23,130.764 1987.23,312.204 
  "/>
<polyline clip-path="url(#clip1900)" style="stroke:#009af9; stroke-width:12; stroke-opacity:1; fill:none" points="
  2011.23,191.244 2155.23,191.244 
  "/>
<g clip-path="url(#clip1900)">
<text style="fill:#000000; fill-opacity:1; font-family:Arial,Helvetica Neue,Helvetica,sans-serif; font-size:48px; text-anchor:start;" transform="rotate(0, 2179.23, 208.744)" x="2179.23" y="208.744">d1</text>
</g>
<polyline clip-path="url(#clip1900)" style="stroke:#e26f46; stroke-width:12; stroke-opacity:1; fill:none" points="
  2011.23,251.724 2155.23,251.724 
  "/>
<g clip-path="url(#clip1900)">
<text style="fill:#000000; fill-opacity:1; font-family:Arial,Helvetica Neue,Helvetica,sans-serif; font-size:48px; text-anchor:start;" transform="rotate(0, 2179.23, 269.224)" x="2179.23" y="269.224">d2</text>
</g>
</svg>
