<?xml version="1.0" encoding="utf-8"?>
<svg xmlns="http://www.w3.org/2000/svg" xmlns:xlink="http://www.w3.org/1999/xlink" width="600" height="400" viewBox="0 0 2400 1600">
<defs>
  <clipPath id="clip2500">
    <rect x="0" y="0" width="2400" height="1600"/>
  </clipPath>
</defs>
<polygon clip-path="url(#clip2500)" points="
0,1600 2400,1600 2400,0 0,0 
  " fill="#002b36" fill-rule="evenodd" fill-opacity="1"/>
<defs>
  <clipPath id="clip2501">
    <rect x="480" y="0" width="1681" height="1600"/>
  </clipPath>
</defs>
<polygon clip-path="url(#clip2500)" points="
180.66,1487.47 2352.76,1487.47 2352.76,47.2441 180.66,47.2441 
  " fill="#073642" fill-rule="evenodd" fill-opacity="1"/>
<defs>
  <clipPath id="clip2502">
    <rect x="180" y="47" width="2173" height="1441"/>
  </clipPath>
</defs>
<polyline clip-path="url(#clip2502)" style="stroke:#657b83; stroke-width:2; stroke-opacity:0.1; fill:none" points="
  352.254,1487.47 352.254,47.2441 
  "/>
<polyline clip-path="url(#clip2502)" style="stroke:#657b83; stroke-width:2; stroke-opacity:0.1; fill:none" points="
  779.429,1487.47 779.429,47.2441 
  "/>
<polyline clip-path="url(#clip2502)" style="stroke:#657b83; stroke-width:2; stroke-opacity:0.1; fill:none" points="
  1206.6,1487.47 1206.6,47.2441 
  "/>
<polyline clip-path="url(#clip2502)" style="stroke:#657b83; stroke-width:2; stroke-opacity:0.1; fill:none" points="
  1633.78,1487.47 1633.78,47.2441 
  "/>
<polyline clip-path="url(#clip2502)" style="stroke:#657b83; stroke-width:2; stroke-opacity:0.1; fill:none" points="
  2060.95,1487.47 2060.95,47.2441 
  "/>
<polyline clip-path="url(#clip2502)" style="stroke:#657b83; stroke-width:2; stroke-opacity:0.1; fill:none" points="
  180.66,1446.71 2352.76,1446.71 
  "/>
<polyline clip-path="url(#clip2502)" style="stroke:#657b83; stroke-width:2; stroke-opacity:0.1; fill:none" points="
  180.66,1106.2 2352.76,1106.2 
  "/>
<polyline clip-path="url(#clip2502)" style="stroke:#657b83; stroke-width:2; stroke-opacity:0.1; fill:none" points="
  180.66,765.692 2352.76,765.692 
  "/>
<polyline clip-path="url(#clip2502)" style="stroke:#657b83; stroke-width:2; stroke-opacity:0.1; fill:none" points="
  180.66,425.182 2352.76,425.182 
  "/>
<polyline clip-path="url(#clip2502)" style="stroke:#657b83; stroke-width:2; stroke-opacity:0.1; fill:none" points="
  180.66,84.6713 2352.76,84.6713 
  "/>
<polyline clip-path="url(#clip2500)" style="stroke:#657b83; stroke-width:4; stroke-opacity:1; fill:none" points="
  180.66,1487.47 2352.76,1487.47 
  "/>
<polyline clip-path="url(#clip2500)" style="stroke:#657b83; stroke-width:4; stroke-opacity:1; fill:none" points="
  180.66,1487.47 180.66,47.2441 
  "/>
<polyline clip-path="url(#clip2500)" style="stroke:#657b83; stroke-width:4; stroke-opacity:1; fill:none" points="
  352.254,1487.47 352.254,1465.87 
  "/>
<polyline clip-path="url(#clip2500)" style="stroke:#657b83; stroke-width:4; stroke-opacity:1; fill:none" points="
  779.429,1487.47 779.429,1465.87 
  "/>
<polyline clip-path="url(#clip2500)" style="stroke:#657b83; stroke-width:4; stroke-opacity:1; fill:none" points="
  1206.6,1487.47 1206.6,1465.87 
  "/>
<polyline clip-path="url(#clip2500)" style="stroke:#657b83; stroke-width:4; stroke-opacity:1; fill:none" points="
  1633.78,1487.47 1633.78,1465.87 
  "/>
<polyline clip-path="url(#clip2500)" style="stroke:#657b83; stroke-width:4; stroke-opacity:1; fill:none" points="
  2060.95,1487.47 2060.95,1465.87 
  "/>
<polyline clip-path="url(#clip2500)" style="stroke:#657b83; stroke-width:4; stroke-opacity:1; fill:none" points="
  180.66,1446.71 213.242,1446.71 
  "/>
<polyline clip-path="url(#clip2500)" style="stroke:#657b83; stroke-width:4; stroke-opacity:1; fill:none" points="
  180.66,1106.2 213.242,1106.2 
  "/>
<polyline clip-path="url(#clip2500)" style="stroke:#657b83; stroke-width:4; stroke-opacity:1; fill:none" points="
  180.66,765.692 213.242,765.692 
  "/>
<polyline clip-path="url(#clip2500)" style="stroke:#657b83; stroke-width:4; stroke-opacity:1; fill:none" points="
  180.66,425.182 213.242,425.182 
  "/>
<polyline clip-path="url(#clip2500)" style="stroke:#657b83; stroke-width:4; stroke-opacity:1; fill:none" points="
  180.66,84.6713 213.242,84.6713 
  "/>
<g clip-path="url(#clip2500)">
<text style="fill:#585858; fill-opacity:1; font-family:Arial,Helvetica Neue,Helvetica,sans-serif; font-size:48px; text-anchor:middle;" transform="rotate(0, 352.254, 1541.47)" x="352.254" y="1541.47">-20</text>
</g>
<g clip-path="url(#clip2500)">
<text style="fill:#585858; fill-opacity:1; font-family:Arial,Helvetica Neue,Helvetica,sans-serif; font-size:48px; text-anchor:middle;" transform="rotate(0, 779.429, 1541.47)" x="779.429" y="1541.47">-10</text>
</g>
<g clip-path="url(#clip2500)">
<text style="fill:#585858; fill-opacity:1; font-family:Arial,Helvetica Neue,Helvetica,sans-serif; font-size:48px; text-anchor:middle;" transform="rotate(0, 1206.6, 1541.47)" x="1206.6" y="1541.47">0</text>
</g>
<g clip-path="url(#clip2500)">
<text style="fill:#585858; fill-opacity:1; font-family:Arial,Helvetica Neue,Helvetica,sans-serif; font-size:48px; text-anchor:middle;" transform="rotate(0, 1633.78, 1541.47)" x="1633.78" y="1541.47">10</text>
</g>
<g clip-path="url(#clip2500)">
<text style="fill:#585858; fill-opacity:1; font-family:Arial,Helvetica Neue,Helvetica,sans-serif; font-size:48px; text-anchor:middle;" transform="rotate(0, 2060.95, 1541.47)" x="2060.95" y="1541.47">20</text>
</g>
<g clip-path="url(#clip2500)">
<text style="fill:#585858; fill-opacity:1; font-family:Arial,Helvetica Neue,Helvetica,sans-serif; font-size:48px; text-anchor:end;" transform="rotate(0, 156.66, 1464.21)" x="156.66" y="1464.21">0.00</text>
</g>
<g clip-path="url(#clip2500)">
<text style="fill:#585858; fill-opacity:1; font-family:Arial,Helvetica Neue,Helvetica,sans-serif; font-size:48px; text-anchor:end;" transform="rotate(0, 156.66, 1123.7)" x="156.66" y="1123.7">0.02</text>
</g>
<g clip-path="url(#clip2500)">
<text style="fill:#585858; fill-opacity:1; font-family:Arial,Helvetica Neue,Helvetica,sans-serif; font-size:48px; text-anchor:end;" transform="rotate(0, 156.66, 783.192)" x="156.66" y="783.192">0.04</text>
</g>
<g clip-path="url(#clip2500)">
<text style="fill:#585858; fill-opacity:1; font-family:Arial,Helvetica Neue,Helvetica,sans-serif; font-size:48px; text-anchor:end;" transform="rotate(0, 156.66, 442.682)" x="156.66" y="442.682">0.06</text>
</g>
<g clip-path="url(#clip2500)">
<text style="fill:#585858; fill-opacity:1; font-family:Arial,Helvetica Neue,Helvetica,sans-serif; font-size:48px; text-anchor:end;" transform="rotate(0, 156.66, 102.171)" x="156.66" y="102.171">0.08</text>
</g>
<polyline clip-path="url(#clip2502)" style="stroke:#dc322f; stroke-width:12; stroke-opacity:1; fill:none" points="
  248.826,1446.71 259.09,1446.71 269.353,1446.71 279.617,1446.7 289.88,1446.68 300.144,1446.64 310.408,1446.59 320.671,1446.52 330.935,1446.47 341.198,1446.44 
  351.462,1446.43 361.726,1446.41 371.989,1446.36 382.253,1446.27 392.516,1446.13 402.78,1445.97 413.044,1445.82 423.307,1445.69 433.571,1445.55 443.834,1445.43 
  454.098,1445.3 464.362,1445.12 474.625,1444.8 484.889,1444.31 495.152,1443.66 505.416,1442.89 515.679,1442.04 525.943,1441.17 536.207,1440.3 546.47,1439.4 
  556.734,1438.38 566.997,1437.18 577.261,1435.79 587.525,1434.19 597.788,1432.24 608.052,1429.77 618.315,1426.77 628.579,1423.56 638.843,1420.48 649.106,1417.42 
  659.37,1413.92 669.633,1409.67 679.897,1404.74 690.161,1399.25 700.424,1393.15 710.688,1386.29 720.951,1378.68 731.215,1370.42 741.479,1361.43 751.742,1351.64 
  762.006,1341.15 772.269,1330.17 782.533,1318.62 792.797,1306.17 803.06,1292.56 813.324,1277.57 823.587,1260.78 833.851,1241.89 844.115,1221.11 854.378,1198.97 
  864.642,1175.86 874.905,1152.03 885.169,1127.77 895.433,1103.18 905.696,1077.63 915.96,1049.79 926.223,1018.66 936.487,984.09 946.75,946.481 957.014,906.953 
  967.278,867.721 977.541,830.757 987.805,795.898 998.068,761.144 1008.33,724.705 1018.6,686.312 1028.86,646.913 1039.12,607.647 1049.39,568.791 1059.65,529.06 
  1069.91,486.574 1080.18,441.657 1090.44,398.242 1100.7,361.077 1110.97,331.505 1121.23,306.986 1131.5,284.347 1141.76,262.01 1152.02,239.022 1162.29,213.658 
  1172.55,184.587 1182.81,153.353 1193.08,124.458 1203.34,102.667 1213.6,90.6137 1223.87,88.0053 1234.13,91.7068 1244.39,97.3389 1254.66,102.099 1264.92,106.115 
  1275.19,111.311 1285.45,119.535 1295.71,131.519 1305.98,147.108 1316.24,166.267 1326.5,189.386 1336.77,216.314 1347.03,245.363 1357.29,273.9 1367.56,300.593 
  1377.82,326.93 1388.09,355.841 1398.35,388.803 1408.61,424.759 1418.88,461.679 1429.14,498.426 1439.4,534.918 1449.67,571.338 1459.93,608.172 1470.19,646.652 
  1480.46,687.808 1490.72,730.709 1500.98,772.768 1511.25,812.274 1521.51,849.542 1531.78,885.186 1542.04,918.841 1552.3,950.377 1562.57,981.038 1572.83,1012.32 
  1583.09,1044.19 1593.36,1075.07 1603.62,1103.46 1613.88,1129.14 1624.15,1153.1 1634.41,1176.6 1644.67,1200.05 1654.94,1222.7 1665.2,1243.31 1675.47,1261.24 
  1685.73,1276.77 1695.99,1290.66 1706.26,1303.73 1716.52,1316.54 1726.78,1329.33 1737.05,1342.1 1747.31,1354.67 1757.57,1366.51 1767.84,1376.91 1778.1,1385.33 
  1788.37,1391.91 1798.63,1397.38 1808.89,1402.51 1819.16,1407.57 1829.42,1412.3 1839.68,1416.37 1849.95,1419.69 1860.21,1422.48 1870.47,1425.11 1880.74,1427.76 
  1891,1430.3 1901.26,1432.56 1911.53,1434.47 1921.79,1436.08 1932.06,1437.36 1942.32,1438.4 1952.58,1439.41 1962.85,1440.55 1973.11,1441.72 1983.37,1442.69 
  1993.64,1443.38 2003.9,1443.86 2014.16,1444.22 2024.43,1444.47 2034.69,1444.63 2044.96,1444.79 2055.22,1445.06 2065.48,1445.41 2075.75,1445.72 2086.01,1445.91 
  2096.27,1445.98 2106.54,1446.01 2116.8,1446.04 2127.06,1446.14 2137.33,1446.29 2147.59,1446.45 2157.85,1446.58 2168.12,1446.65 2178.38,1446.67 2188.65,1446.64 
  2198.91,1446.6 2209.17,1446.57 2219.44,1446.57 2229.7,1446.61 2239.96,1446.65 2250.23,1446.69 2260.49,1446.7 2270.75,1446.71 2281.02,1446.71 2291.28,1446.71 
  
  "/>
<polyline clip-path="url(#clip2502)" style="stroke:#b58900; stroke-width:12; stroke-opacity:1; fill:none" points="
  242.135,1446.71 252.279,1446.71 262.424,1446.71 272.569,1446.7 282.713,1446.69 292.858,1446.65 303.003,1446.6 313.147,1446.57 323.292,1446.56 333.437,1446.56 
  343.581,1446.56 353.726,1446.55 363.871,1446.53 374.015,1446.51 384.16,1446.49 394.305,1446.45 404.449,1446.34 414.594,1446.17 424.739,1445.91 434.883,1445.6 
  445.028,1445.32 455.173,1445.15 465.317,1445.14 475.462,1445.22 485.607,1445.2 495.751,1444.92 505.896,1444.35 516.041,1443.64 526.185,1442.88 536.33,1442.04 
  546.475,1441.02 556.619,1439.79 566.764,1438.54 576.909,1437.42 587.053,1436.36 597.198,1435.09 607.343,1433.39 617.487,1431.24 627.632,1428.68 637.777,1425.67 
  647.921,1422.06 658.066,1417.88 668.211,1413.37 678.355,1408.74 688.5,1403.9 698.645,1398.51 708.789,1392.29 718.934,1385.2 729.079,1377.37 739.223,1368.68 
  749.368,1358.85 759.513,1347.97 769.657,1336.65 779.802,1325.2 789.947,1312.94 800.091,1298.89 810.236,1282.83 820.381,1265.24 830.525,1246.12 840.67,1224.91 
  850.815,1201.76 860.959,1178.14 871.104,1155.35 881.249,1132.93 891.393,1109.34 901.538,1083.87 911.683,1057.04 921.827,1029.47 931.972,1001.08 942.117,971.434 
  952.261,940.15 962.406,907.036 972.551,872.252 982.695,836.284 992.84,799.488 1002.98,761.637 1013.13,722.101 1023.27,680.496 1033.42,637.124 1043.56,592.843 
  1053.71,548.511 1063.85,504.598 1074,461.489 1084.14,420.114 1094.29,382.096 1104.43,348.94 1114.58,320.616 1124.72,294.967 1134.87,268.956 1145.01,240.77 
  1155.15,210.877 1165.3,181.498 1175.44,155.382 1185.59,134.466 1195.73,118.822 1205.88,107.113 1216.02,98.6437 1226.17,94.2091 1236.31,94.4082 1246.46,98.3092 
  1256.6,104.427 1266.75,112.034 1276.89,120.974 1287.04,131.073 1297.18,142.313 1307.32,154.815 1317.47,168.191 1327.61,181.674 1337.76,195.363 1347.9,211.113 
  1358.05,231.826 1368.19,259.451 1378.34,293.585 1388.48,332.123 1398.63,372.964 1408.77,414.793 1418.92,456.728 1429.06,497.946 1439.21,537.82 1449.35,576.149 
  1459.49,613.017 1469.64,648.68 1479.78,683.676 1489.93,718.858 1500.07,755.391 1510.22,794.406 1520.36,835.7 1530.51,876.896 1540.65,915.118 1550.8,949.567 
  1560.94,981.651 1571.09,1012.85 1581.23,1043.44 1591.38,1073.21 1601.52,1102.14 1611.66,1129.83 1621.81,1155.35 1631.95,1178.07 1642.1,1198.4 1652.24,1217.45 
  1662.39,1236.32 1672.53,1255.36 1682.68,1273.86 1692.82,1290.53 1702.97,1304.86 1713.11,1317.77 1723.26,1330.42 1733.4,1342.87 1743.55,1354.38 1753.69,1364.65 
  1763.83,1374.05 1773.98,1382.78 1784.12,1390.57 1794.27,1397.06 1804.41,1402.31 1814.56,1406.68 1824.7,1410.56 1834.85,1414.28 1844.99,1418.01 1855.14,1421.68 
  1865.28,1425.02 1875.43,1427.91 1885.57,1430.44 1895.72,1432.77 1905.86,1434.91 1916,1436.83 1926.15,1438.54 1936.29,1440 1946.44,1441.19 1956.58,1442.1 
  1966.73,1442.78 1976.87,1443.28 1987.02,1443.69 1997.16,1444.05 2007.31,1444.39 2017.45,1444.65 2027.6,1444.86 2037.74,1445.01 2047.88,1445.14 2058.03,1445.26 
  2068.17,1445.37 2078.32,1445.48 2088.46,1445.61 2098.61,1445.8 2108.75,1446.02 2118.9,1446.24 2129.04,1446.42 2139.19,1446.55 2149.33,1446.61 2159.48,1446.62 
  2169.62,1446.59 2179.77,1446.57 2189.91,1446.57 2200.05,1446.61 2210.2,1446.65 2220.34,1446.69 2230.49,1446.7 2240.63,1446.71 2250.78,1446.71 2260.92,1446.71 
  
  "/>
<polygon clip-path="url(#clip2500)" points="
1987.23,312.204 2280.76,312.204 2280.76,130.764 1987.23,130.764 
  " fill="#002b36" fill-rule="evenodd" fill-opacity="1"/>
<polyline clip-path="url(#clip2500)" style="stroke:#586e75; stroke-width:4; stroke-opacity:1; fill:none" points="
  1987.23,312.204 2280.76,312.204 2280.76,130.764 1987.23,130.764 1987.23,312.204 
  "/>
<polyline clip-path="url(#clip2500)" style="stroke:#dc322f; stroke-width:12; stroke-opacity:1; fill:none" points="
  2011.23,191.244 2155.23,191.244 
  "/>
<g clip-path="url(#clip2500)">
<text style="fill:#656565; fill-opacity:1; font-family:Arial,Helvetica Neue,Helvetica,sans-serif; font-size:48px; text-anchor:start;" transform="rotate(0, 2179.23, 208.744)" x="2179.23" y="208.744">d1</text>
</g>
<polyline clip-path="url(#clip2500)" style="stroke:#b58900; stroke-width:12; stroke-opacity:1; fill:none" points="
  2011.23,251.724 2155.23,251.724 
  "/>
<g clip-path="url(#clip2500)">
<text style="fill:#656565; fill-opacity:1; font-family:Arial,Helvetica Neue,Helvetica,sans-serif; font-size:48px; text-anchor:start;" transform="rotate(0, 2179.23, 269.224)" x="2179.23" y="269.224">d2</text>
</g>
</svg>
