<?xml version="1.0" encoding="utf-8"?>
<svg xmlns="http://www.w3.org/2000/svg" xmlns:xlink="http://www.w3.org/1999/xlink" width="600" height="400" viewBox="0 0 2400 1600">
<defs>
  <clipPath id="clip9300">
    <rect x="0" y="0" width="2400" height="1600"/>
  </clipPath>
</defs>
<polygon clip-path="url(#clip9300)" points="
0,1600 2400,1600 2400,0 0,0 
  " fill="#ffffff" fill-rule="evenodd" fill-opacity="1"/>
<defs>
  <clipPath id="clip9301">
    <rect x="480" y="0" width="1681" height="1600"/>
  </clipPath>
</defs>
<polygon clip-path="url(#clip9300)" points="
180.66,1425.62 2352.76,1425.62 2352.76,47.2441 180.66,47.2441 
  " fill="#ffffff" fill-rule="evenodd" fill-opacity="1"/>
<defs>
  <clipPath id="clip9302">
    <rect x="180" y="47" width="2173" height="1379"/>
  </clipPath>
</defs>
<polyline clip-path="url(#clip9302)" style="stroke:#000000; stroke-width:2; stroke-opacity:0.1; fill:none" points="
  484.24,1425.62 484.24,47.2441 
  "/>
<polyline clip-path="url(#clip9302)" style="stroke:#000000; stroke-width:2; stroke-opacity:0.1; fill:none" points="
  867.803,1425.62 867.803,47.2441 
  "/>
<polyline clip-path="url(#clip9302)" style="stroke:#000000; stroke-width:2; stroke-opacity:0.1; fill:none" points="
  1251.37,1425.62 1251.37,47.2441 
  "/>
<polyline clip-path="url(#clip9302)" style="stroke:#000000; stroke-width:2; stroke-opacity:0.1; fill:none" points="
  1634.93,1425.62 1634.93,47.2441 
  "/>
<polyline clip-path="url(#clip9302)" style="stroke:#000000; stroke-width:2; stroke-opacity:0.1; fill:none" points="
  2018.49,1425.62 2018.49,47.2441 
  "/>
<polyline clip-path="url(#clip9302)" style="stroke:#000000; stroke-width:2; stroke-opacity:0.1; fill:none" points="
  180.66,1386.61 2352.76,1386.61 
  "/>
<polyline clip-path="url(#clip9302)" style="stroke:#000000; stroke-width:2; stroke-opacity:0.1; fill:none" points="
  180.66,1112.85 2352.76,1112.85 
  "/>
<polyline clip-path="url(#clip9302)" style="stroke:#000000; stroke-width:2; stroke-opacity:0.1; fill:none" points="
  180.66,839.091 2352.76,839.091 
  "/>
<polyline clip-path="url(#clip9302)" style="stroke:#000000; stroke-width:2; stroke-opacity:0.1; fill:none" points="
  180.66,565.332 2352.76,565.332 
  "/>
<polyline clip-path="url(#clip9302)" style="stroke:#000000; stroke-width:2; stroke-opacity:0.1; fill:none" points="
  180.66,291.574 2352.76,291.574 
  "/>
<polyline clip-path="url(#clip9300)" style="stroke:#000000; stroke-width:4; stroke-opacity:1; fill:none" points="
  180.66,1425.62 2352.76,1425.62 
  "/>
<polyline clip-path="url(#clip9300)" style="stroke:#000000; stroke-width:4; stroke-opacity:1; fill:none" points="
  180.66,1425.62 180.66,47.2441 
  "/>
<polyline clip-path="url(#clip9300)" style="stroke:#000000; stroke-width:4; stroke-opacity:1; fill:none" points="
  484.24,1425.62 484.24,1404.94 
  "/>
<polyline clip-path="url(#clip9300)" style="stroke:#000000; stroke-width:4; stroke-opacity:1; fill:none" points="
  867.803,1425.62 867.803,1404.94 
  "/>
<polyline clip-path="url(#clip9300)" style="stroke:#000000; stroke-width:4; stroke-opacity:1; fill:none" points="
  1251.37,1425.62 1251.37,1404.94 
  "/>
<polyline clip-path="url(#clip9300)" style="stroke:#000000; stroke-width:4; stroke-opacity:1; fill:none" points="
  1634.93,1425.62 1634.93,1404.94 
  "/>
<polyline clip-path="url(#clip9300)" style="stroke:#000000; stroke-width:4; stroke-opacity:1; fill:none" points="
  2018.49,1425.62 2018.49,1404.94 
  "/>
<polyline clip-path="url(#clip9300)" style="stroke:#000000; stroke-width:4; stroke-opacity:1; fill:none" points="
  180.66,1386.61 213.242,1386.61 
  "/>
<polyline clip-path="url(#clip9300)" style="stroke:#000000; stroke-width:4; stroke-opacity:1; fill:none" points="
  180.66,1112.85 213.242,1112.85 
  "/>
<polyline clip-path="url(#clip9300)" style="stroke:#000000; stroke-width:4; stroke-opacity:1; fill:none" points="
  180.66,839.091 213.242,839.091 
  "/>
<polyline clip-path="url(#clip9300)" style="stroke:#000000; stroke-width:4; stroke-opacity:1; fill:none" points="
  180.66,565.332 213.242,565.332 
  "/>
<polyline clip-path="url(#clip9300)" style="stroke:#000000; stroke-width:4; stroke-opacity:1; fill:none" points="
  180.66,291.574 213.242,291.574 
  "/>
<g clip-path="url(#clip9300)">
<text style="fill:#000000; fill-opacity:1; font-family:Arial,Helvetica Neue,Helvetica,sans-serif; font-size:48px; text-anchor:middle;" transform="rotate(0, 484.24, 1479.62)" x="484.24" y="1479.62">-5.0</text>
</g>
<g clip-path="url(#clip9300)">
<text style="fill:#000000; fill-opacity:1; font-family:Arial,Helvetica Neue,Helvetica,sans-serif; font-size:48px; text-anchor:middle;" transform="rotate(0, 867.803, 1479.62)" x="867.803" y="1479.62">-2.5</text>
</g>
<g clip-path="url(#clip9300)">
<text style="fill:#000000; fill-opacity:1; font-family:Arial,Helvetica Neue,Helvetica,sans-serif; font-size:48px; text-anchor:middle;" transform="rotate(0, 1251.37, 1479.62)" x="1251.37" y="1479.62">0.0</text>
</g>
<g clip-path="url(#clip9300)">
<text style="fill:#000000; fill-opacity:1; font-family:Arial,Helvetica Neue,Helvetica,sans-serif; font-size:48px; text-anchor:middle;" transform="rotate(0, 1634.93, 1479.62)" x="1634.93" y="1479.62">2.5</text>
</g>
<g clip-path="url(#clip9300)">
<text style="fill:#000000; fill-opacity:1; font-family:Arial,Helvetica Neue,Helvetica,sans-serif; font-size:48px; text-anchor:middle;" transform="rotate(0, 2018.49, 1479.62)" x="2018.49" y="1479.62">5.0</text>
</g>
<g clip-path="url(#clip9300)">
<text style="fill:#000000; fill-opacity:1; font-family:Arial,Helvetica Neue,Helvetica,sans-serif; font-size:48px; text-anchor:end;" transform="rotate(0, 156.66, 1404.11)" x="156.66" y="1404.11">0.00</text>
</g>
<g clip-path="url(#clip9300)">
<text style="fill:#000000; fill-opacity:1; font-family:Arial,Helvetica Neue,Helvetica,sans-serif; font-size:48px; text-anchor:end;" transform="rotate(0, 156.66, 1130.35)" x="156.66" y="1130.35">0.05</text>
</g>
<g clip-path="url(#clip9300)">
<text style="fill:#000000; fill-opacity:1; font-family:Arial,Helvetica Neue,Helvetica,sans-serif; font-size:48px; text-anchor:end;" transform="rotate(0, 156.66, 856.591)" x="156.66" y="856.591">0.10</text>
</g>
<g clip-path="url(#clip9300)">
<text style="fill:#000000; fill-opacity:1; font-family:Arial,Helvetica Neue,Helvetica,sans-serif; font-size:48px; text-anchor:end;" transform="rotate(0, 156.66, 582.832)" x="156.66" y="582.832">0.15</text>
</g>
<g clip-path="url(#clip9300)">
<text style="fill:#000000; fill-opacity:1; font-family:Arial,Helvetica Neue,Helvetica,sans-serif; font-size:48px; text-anchor:end;" transform="rotate(0, 156.66, 309.074)" x="156.66" y="309.074">0.20</text>
</g>
<g clip-path="url(#clip9300)">
<text style="fill:#000000; fill-opacity:1; font-family:Arial,Helvetica Neue,Helvetica,sans-serif; font-size:66px; text-anchor:middle;" transform="rotate(0, 1266.71, 1559.48)" x="1266.71" y="1559.48">y</text>
</g>
<polygon clip-path="url(#clip9302)" points="
300.129,1381.13 300.129,1386.61 330.814,1386.61 330.814,1381.13 300.129,1381.13 300.129,1381.13 
  " fill="#009af9" fill-rule="evenodd" fill-opacity="0.7"/>
<polyline clip-path="url(#clip9302)" style="stroke:#000000; stroke-width:4; stroke-opacity:0.7; fill:none" points="
  300.129,1381.13 300.129,1386.61 330.814,1386.61 330.814,1381.13 300.129,1381.13 
  "/>
<polygon clip-path="url(#clip9302)" points="
330.814,1381.13 330.814,1386.61 361.5,1386.61 361.5,1381.13 330.814,1381.13 330.814,1381.13 
  " fill="#009af9" fill-rule="evenodd" fill-opacity="0.7"/>
<polyline clip-path="url(#clip9302)" style="stroke:#000000; stroke-width:4; stroke-opacity:0.7; fill:none" points="
  330.814,1381.13 330.814,1386.61 361.5,1386.61 361.5,1381.13 330.814,1381.13 
  "/>
<polygon clip-path="url(#clip9302)" points="
361.5,1370.18 361.5,1386.61 392.185,1386.61 392.185,1370.18 361.5,1370.18 361.5,1370.18 
  " fill="#009af9" fill-rule="evenodd" fill-opacity="0.7"/>
<polyline clip-path="url(#clip9302)" style="stroke:#000000; stroke-width:4; stroke-opacity:0.7; fill:none" points="
  361.5,1370.18 361.5,1386.61 392.185,1386.61 392.185,1370.18 361.5,1370.18 
  "/>
<polygon clip-path="url(#clip9302)" points="
392.185,1367.44 392.185,1386.61 422.87,1386.61 422.87,1367.44 392.185,1367.44 392.185,1367.44 
  " fill="#009af9" fill-rule="evenodd" fill-opacity="0.7"/>
<polyline clip-path="url(#clip9302)" style="stroke:#000000; stroke-width:4; stroke-opacity:0.7; fill:none" points="
  392.185,1367.44 392.185,1386.61 422.87,1386.61 422.87,1367.44 392.185,1367.44 
  "/>
<polygon clip-path="url(#clip9302)" points="
422.87,1353.76 422.87,1386.61 453.555,1386.61 453.555,1353.76 422.87,1353.76 422.87,1353.76 
  " fill="#009af9" fill-rule="evenodd" fill-opacity="0.7"/>
<polyline clip-path="url(#clip9302)" style="stroke:#000000; stroke-width:4; stroke-opacity:0.7; fill:none" points="
  422.87,1353.76 422.87,1386.61 453.555,1386.61 453.555,1353.76 422.87,1353.76 
  "/>
<polygon clip-path="url(#clip9302)" points="
453.555,1301.74 453.555,1386.61 484.24,1386.61 484.24,1301.74 453.555,1301.74 453.555,1301.74 
  " fill="#009af9" fill-rule="evenodd" fill-opacity="0.7"/>
<polyline clip-path="url(#clip9302)" style="stroke:#000000; stroke-width:4; stroke-opacity:0.7; fill:none" points="
  453.555,1301.74 453.555,1386.61 484.24,1386.61 484.24,1301.74 453.555,1301.74 
  "/>
<polygon clip-path="url(#clip9302)" points="
484.24,1285.32 484.24,1386.61 514.925,1386.61 514.925,1285.32 484.24,1285.32 484.24,1285.32 
  " fill="#009af9" fill-rule="evenodd" fill-opacity="0.7"/>
<polyline clip-path="url(#clip9302)" style="stroke:#000000; stroke-width:4; stroke-opacity:0.7; fill:none" points="
  484.24,1285.32 484.24,1386.61 514.925,1386.61 514.925,1285.32 484.24,1285.32 
  "/>
<polygon clip-path="url(#clip9302)" points="
514.925,1219.62 514.925,1386.61 545.61,1386.61 545.61,1219.62 514.925,1219.62 514.925,1219.62 
  " fill="#009af9" fill-rule="evenodd" fill-opacity="0.7"/>
<polyline clip-path="url(#clip9302)" style="stroke:#000000; stroke-width:4; stroke-opacity:0.7; fill:none" points="
  514.925,1219.62 514.925,1386.61 545.61,1386.61 545.61,1219.62 514.925,1219.62 
  "/>
<polygon clip-path="url(#clip9302)" points="
545.61,1216.88 545.61,1386.61 576.295,1386.61 576.295,1216.88 545.61,1216.88 545.61,1216.88 
  " fill="#009af9" fill-rule="evenodd" fill-opacity="0.7"/>
<polyline clip-path="url(#clip9302)" style="stroke:#000000; stroke-width:4; stroke-opacity:0.7; fill:none" points="
  545.61,1216.88 545.61,1386.61 576.295,1386.61 576.295,1216.88 545.61,1216.88 
  "/>
<polygon clip-path="url(#clip9302)" points="
576.295,1118.32 576.295,1386.61 606.98,1386.61 606.98,1118.32 576.295,1118.32 576.295,1118.32 
  " fill="#009af9" fill-rule="evenodd" fill-opacity="0.7"/>
<polyline clip-path="url(#clip9302)" style="stroke:#000000; stroke-width:4; stroke-opacity:0.7; fill:none" points="
  576.295,1118.32 576.295,1386.61 606.98,1386.61 606.98,1118.32 576.295,1118.32 
  "/>
<polygon clip-path="url(#clip9302)" points="
606.98,1052.62 606.98,1386.61 637.665,1386.61 637.665,1052.62 606.98,1052.62 606.98,1052.62 
  " fill="#009af9" fill-rule="evenodd" fill-opacity="0.7"/>
<polyline clip-path="url(#clip9302)" style="stroke:#000000; stroke-width:4; stroke-opacity:0.7; fill:none" points="
  606.98,1052.62 606.98,1386.61 637.665,1386.61 637.665,1052.62 606.98,1052.62 
  "/>
<polygon clip-path="url(#clip9302)" points="
637.665,1014.3 637.665,1386.61 668.35,1386.61 668.35,1014.3 637.665,1014.3 637.665,1014.3 
  " fill="#009af9" fill-rule="evenodd" fill-opacity="0.7"/>
<polyline clip-path="url(#clip9302)" style="stroke:#000000; stroke-width:4; stroke-opacity:0.7; fill:none" points="
  637.665,1014.3 637.665,1386.61 668.35,1386.61 668.35,1014.3 637.665,1014.3 
  "/>
<polygon clip-path="url(#clip9302)" points="
668.35,907.53 668.35,1386.61 699.035,1386.61 699.035,907.53 668.35,907.53 668.35,907.53 
  " fill="#009af9" fill-rule="evenodd" fill-opacity="0.7"/>
<polyline clip-path="url(#clip9302)" style="stroke:#000000; stroke-width:4; stroke-opacity:0.7; fill:none" points="
  668.35,907.53 668.35,1386.61 699.035,1386.61 699.035,907.53 668.35,907.53 
  "/>
<polygon clip-path="url(#clip9302)" points="
699.035,852.779 699.035,1386.61 729.72,1386.61 729.72,852.779 699.035,852.779 699.035,852.779 
  " fill="#009af9" fill-rule="evenodd" fill-opacity="0.7"/>
<polyline clip-path="url(#clip9302)" style="stroke:#000000; stroke-width:4; stroke-opacity:0.7; fill:none" points="
  699.035,852.779 699.035,1386.61 729.72,1386.61 729.72,852.779 699.035,852.779 
  "/>
<polygon clip-path="url(#clip9302)" points="
729.72,713.162 729.72,1386.61 760.405,1386.61 760.405,713.162 729.72,713.162 729.72,713.162 
  " fill="#009af9" fill-rule="evenodd" fill-opacity="0.7"/>
<polyline clip-path="url(#clip9302)" style="stroke:#000000; stroke-width:4; stroke-opacity:0.7; fill:none" points="
  729.72,713.162 729.72,1386.61 760.405,1386.61 760.405,713.162 729.72,713.162 
  "/>
<polygon clip-path="url(#clip9302)" points="
760.405,817.19 760.405,1386.61 791.09,1386.61 791.09,817.19 760.405,817.19 760.405,817.19 
  " fill="#009af9" fill-rule="evenodd" fill-opacity="0.7"/>
<polyline clip-path="url(#clip9302)" style="stroke:#000000; stroke-width:4; stroke-opacity:0.7; fill:none" points="
  760.405,817.19 760.405,1386.61 791.09,1386.61 791.09,817.19 760.405,817.19 
  "/>
<polygon clip-path="url(#clip9302)" points="
791.09,721.375 791.09,1386.61 821.775,1386.61 821.775,721.375 791.09,721.375 791.09,721.375 
  " fill="#009af9" fill-rule="evenodd" fill-opacity="0.7"/>
<polyline clip-path="url(#clip9302)" style="stroke:#000000; stroke-width:4; stroke-opacity:0.7; fill:none" points="
  791.09,721.375 791.09,1386.61 821.775,1386.61 821.775,721.375 791.09,721.375 
  "/>
<polygon clip-path="url(#clip9302)" points="
821.775,762.438 821.775,1386.61 852.46,1386.61 852.46,762.438 821.775,762.438 821.775,762.438 
  " fill="#009af9" fill-rule="evenodd" fill-opacity="0.7"/>
<polyline clip-path="url(#clip9302)" style="stroke:#000000; stroke-width:4; stroke-opacity:0.7; fill:none" points="
  821.775,762.438 821.775,1386.61 852.46,1386.61 852.46,762.438 821.775,762.438 
  "/>
<polygon clip-path="url(#clip9302)" points="
852.46,732.325 852.46,1386.61 883.145,1386.61 883.145,732.325 852.46,732.325 852.46,732.325 
  " fill="#009af9" fill-rule="evenodd" fill-opacity="0.7"/>
<polyline clip-path="url(#clip9302)" style="stroke:#000000; stroke-width:4; stroke-opacity:0.7; fill:none" points="
  852.46,732.325 852.46,1386.61 883.145,1386.61 883.145,732.325 852.46,732.325 
  "/>
<polygon clip-path="url(#clip9302)" points="
883.145,800.765 883.145,1386.61 913.83,1386.61 913.83,800.765 883.145,800.765 883.145,800.765 
  " fill="#009af9" fill-rule="evenodd" fill-opacity="0.7"/>
<polyline clip-path="url(#clip9302)" style="stroke:#000000; stroke-width:4; stroke-opacity:0.7; fill:none" points="
  883.145,800.765 883.145,1386.61 913.83,1386.61 913.83,800.765 883.145,800.765 
  "/>
<polygon clip-path="url(#clip9302)" points="
913.83,825.403 913.83,1386.61 944.515,1386.61 944.515,825.403 913.83,825.403 913.83,825.403 
  " fill="#009af9" fill-rule="evenodd" fill-opacity="0.7"/>
<polyline clip-path="url(#clip9302)" style="stroke:#000000; stroke-width:4; stroke-opacity:0.7; fill:none" points="
  913.83,825.403 913.83,1386.61 944.515,1386.61 944.515,825.403 913.83,825.403 
  "/>
<polygon clip-path="url(#clip9302)" points="
944.515,913.006 944.515,1386.61 975.2,1386.61 975.2,913.006 944.515,913.006 944.515,913.006 
  " fill="#009af9" fill-rule="evenodd" fill-opacity="0.7"/>
<polyline clip-path="url(#clip9302)" style="stroke:#000000; stroke-width:4; stroke-opacity:0.7; fill:none" points="
  944.515,913.006 944.515,1386.61 975.2,1386.61 975.2,913.006 944.515,913.006 
  "/>
<polygon clip-path="url(#clip9302)" points="
975.2,1017.03 975.2,1386.61 1005.89,1386.61 1005.89,1017.03 975.2,1017.03 975.2,1017.03 
  " fill="#009af9" fill-rule="evenodd" fill-opacity="0.7"/>
<polyline clip-path="url(#clip9302)" style="stroke:#000000; stroke-width:4; stroke-opacity:0.7; fill:none" points="
  975.2,1017.03 975.2,1386.61 1005.89,1386.61 1005.89,1017.03 975.2,1017.03 
  "/>
<polygon clip-path="url(#clip9302)" points="
1005.89,1074.52 1005.89,1386.61 1036.57,1386.61 1036.57,1074.52 1005.89,1074.52 1005.89,1074.52 
  " fill="#009af9" fill-rule="evenodd" fill-opacity="0.7"/>
<polyline clip-path="url(#clip9302)" style="stroke:#000000; stroke-width:4; stroke-opacity:0.7; fill:none" points="
  1005.89,1074.52 1005.89,1386.61 1036.57,1386.61 1036.57,1074.52 1005.89,1074.52 
  "/>
<polygon clip-path="url(#clip9302)" points="
1036.57,1104.64 1036.57,1386.61 1067.26,1386.61 1067.26,1104.64 1036.57,1104.64 1036.57,1104.64 
  " fill="#009af9" fill-rule="evenodd" fill-opacity="0.7"/>
<polyline clip-path="url(#clip9302)" style="stroke:#000000; stroke-width:4; stroke-opacity:0.7; fill:none" points="
  1036.57,1104.64 1036.57,1386.61 1067.26,1386.61 1067.26,1104.64 1036.57,1104.64 
  "/>
<polygon clip-path="url(#clip9302)" points="
1067.26,1156.65 1067.26,1386.61 1097.94,1386.61 1097.94,1156.65 1067.26,1156.65 1067.26,1156.65 
  " fill="#009af9" fill-rule="evenodd" fill-opacity="0.7"/>
<polyline clip-path="url(#clip9302)" style="stroke:#000000; stroke-width:4; stroke-opacity:0.7; fill:none" points="
  1067.26,1156.65 1067.26,1386.61 1097.94,1386.61 1097.94,1156.65 1067.26,1156.65 
  "/>
<polygon clip-path="url(#clip9302)" points="
1097.94,1230.57 1097.94,1386.61 1128.63,1386.61 1128.63,1230.57 1097.94,1230.57 1097.94,1230.57 
  " fill="#009af9" fill-rule="evenodd" fill-opacity="0.7"/>
<polyline clip-path="url(#clip9302)" style="stroke:#000000; stroke-width:4; stroke-opacity:0.7; fill:none" points="
  1097.94,1230.57 1097.94,1386.61 1128.63,1386.61 1128.63,1230.57 1097.94,1230.57 
  "/>
<polygon clip-path="url(#clip9302)" points="
1128.63,1197.71 1128.63,1386.61 1159.31,1386.61 1159.31,1197.71 1128.63,1197.71 1128.63,1197.71 
  " fill="#009af9" fill-rule="evenodd" fill-opacity="0.7"/>
<polyline clip-path="url(#clip9302)" style="stroke:#000000; stroke-width:4; stroke-opacity:0.7; fill:none" points="
  1128.63,1197.71 1128.63,1386.61 1159.31,1386.61 1159.31,1197.71 1128.63,1197.71 
  "/>
<polygon clip-path="url(#clip9302)" points="
1159.31,1214.14 1159.31,1386.61 1190,1386.61 1190,1214.14 1159.31,1214.14 1159.31,1214.14 
  " fill="#009af9" fill-rule="evenodd" fill-opacity="0.7"/>
<polyline clip-path="url(#clip9302)" style="stroke:#000000; stroke-width:4; stroke-opacity:0.7; fill:none" points="
  1159.31,1214.14 1159.31,1386.61 1190,1386.61 1190,1214.14 1159.31,1214.14 
  "/>
<polygon clip-path="url(#clip9302)" points="
1190,1214.14 1190,1386.61 1220.68,1386.61 1220.68,1214.14 1190,1214.14 1190,1214.14 
  " fill="#009af9" fill-rule="evenodd" fill-opacity="0.7"/>
<polyline clip-path="url(#clip9302)" style="stroke:#000000; stroke-width:4; stroke-opacity:0.7; fill:none" points="
  1190,1214.14 1190,1386.61 1220.68,1386.61 1220.68,1214.14 1190,1214.14 
  "/>
<polygon clip-path="url(#clip9302)" points="
1220.68,1148.44 1220.68,1386.61 1251.37,1386.61 1251.37,1148.44 1220.68,1148.44 1220.68,1148.44 
  " fill="#009af9" fill-rule="evenodd" fill-opacity="0.7"/>
<polyline clip-path="url(#clip9302)" style="stroke:#000000; stroke-width:4; stroke-opacity:0.7; fill:none" points="
  1220.68,1148.44 1220.68,1386.61 1251.37,1386.61 1251.37,1148.44 1220.68,1148.44 
  "/>
<polygon clip-path="url(#clip9302)" points="
1251.37,1151.18 1251.37,1386.61 1282.05,1386.61 1282.05,1151.18 1251.37,1151.18 1251.37,1151.18 
  " fill="#009af9" fill-rule="evenodd" fill-opacity="0.7"/>
<polyline clip-path="url(#clip9302)" style="stroke:#000000; stroke-width:4; stroke-opacity:0.7; fill:none" points="
  1251.37,1151.18 1251.37,1386.61 1282.05,1386.61 1282.05,1151.18 1251.37,1151.18 
  "/>
<polygon clip-path="url(#clip9302)" points="
1282.05,1069.05 1282.05,1386.61 1312.74,1386.61 1312.74,1069.05 1282.05,1069.05 1282.05,1069.05 
  " fill="#009af9" fill-rule="evenodd" fill-opacity="0.7"/>
<polyline clip-path="url(#clip9302)" style="stroke:#000000; stroke-width:4; stroke-opacity:0.7; fill:none" points="
  1282.05,1069.05 1282.05,1386.61 1312.74,1386.61 1312.74,1069.05 1282.05,1069.05 
  "/>
<polygon clip-path="url(#clip9302)" points="
1312.74,1080 1312.74,1386.61 1343.42,1386.61 1343.42,1080 1312.74,1080 1312.74,1080 
  " fill="#009af9" fill-rule="evenodd" fill-opacity="0.7"/>
<polyline clip-path="url(#clip9302)" style="stroke:#000000; stroke-width:4; stroke-opacity:0.7; fill:none" points="
  1312.74,1080 1312.74,1386.61 1343.42,1386.61 1343.42,1080 1312.74,1080 
  "/>
<polygon clip-path="url(#clip9302)" points="
1343.42,970.495 1343.42,1386.61 1374.11,1386.61 1374.11,970.495 1343.42,970.495 1343.42,970.495 
  " fill="#009af9" fill-rule="evenodd" fill-opacity="0.7"/>
<polyline clip-path="url(#clip9302)" style="stroke:#000000; stroke-width:4; stroke-opacity:0.7; fill:none" points="
  1343.42,970.495 1343.42,1386.61 1374.11,1386.61 1374.11,970.495 1343.42,970.495 
  "/>
<polygon clip-path="url(#clip9302)" points="
1374.11,923.956 1374.11,1386.61 1404.79,1386.61 1404.79,923.956 1374.11,923.956 1374.11,923.956 
  " fill="#009af9" fill-rule="evenodd" fill-opacity="0.7"/>
<polyline clip-path="url(#clip9302)" style="stroke:#000000; stroke-width:4; stroke-opacity:0.7; fill:none" points="
  1374.11,923.956 1374.11,1386.61 1404.79,1386.61 1404.79,923.956 1374.11,923.956 
  "/>
<polygon clip-path="url(#clip9302)" points="
1404.79,806.24 1404.79,1386.61 1435.48,1386.61 1435.48,806.24 1404.79,806.24 1404.79,806.24 
  " fill="#009af9" fill-rule="evenodd" fill-opacity="0.7"/>
<polyline clip-path="url(#clip9302)" style="stroke:#000000; stroke-width:4; stroke-opacity:0.7; fill:none" points="
  1404.79,806.24 1404.79,1386.61 1435.48,1386.61 1435.48,806.24 1404.79,806.24 
  "/>
<polygon clip-path="url(#clip9302)" points="
1435.48,718.637 1435.48,1386.61 1466.16,1386.61 1466.16,718.637 1435.48,718.637 1435.48,718.637 
  " fill="#009af9" fill-rule="evenodd" fill-opacity="0.7"/>
<polyline clip-path="url(#clip9302)" style="stroke:#000000; stroke-width:4; stroke-opacity:0.7; fill:none" points="
  1435.48,718.637 1435.48,1386.61 1466.16,1386.61 1466.16,718.637 1435.48,718.637 
  "/>
<polygon clip-path="url(#clip9302)" points="
1466.16,674.836 1466.16,1386.61 1496.85,1386.61 1496.85,674.836 1466.16,674.836 1466.16,674.836 
  " fill="#009af9" fill-rule="evenodd" fill-opacity="0.7"/>
<polyline clip-path="url(#clip9302)" style="stroke:#000000; stroke-width:4; stroke-opacity:0.7; fill:none" points="
  1466.16,674.836 1466.16,1386.61 1496.85,1386.61 1496.85,674.836 1466.16,674.836 
  "/>
<polygon clip-path="url(#clip9302)" points="
1496.85,551.644 1496.85,1386.61 1527.53,1386.61 1527.53,551.644 1496.85,551.644 1496.85,551.644 
  " fill="#009af9" fill-rule="evenodd" fill-opacity="0.7"/>
<polyline clip-path="url(#clip9302)" style="stroke:#000000; stroke-width:4; stroke-opacity:0.7; fill:none" points="
  1496.85,551.644 1496.85,1386.61 1527.53,1386.61 1527.53,551.644 1496.85,551.644 
  "/>
<polygon clip-path="url(#clip9302)" points="
1527.53,365.488 1527.53,1386.61 1558.22,1386.61 1558.22,365.488 1527.53,365.488 1527.53,365.488 
  " fill="#009af9" fill-rule="evenodd" fill-opacity="0.7"/>
<polyline clip-path="url(#clip9302)" style="stroke:#000000; stroke-width:4; stroke-opacity:0.7; fill:none" points="
  1527.53,365.488 1527.53,1386.61 1558.22,1386.61 1558.22,365.488 1527.53,365.488 
  "/>
<polygon clip-path="url(#clip9302)" points="
1558.22,291.574 1558.22,1386.61 1588.9,1386.61 1588.9,291.574 1558.22,291.574 1558.22,291.574 
  " fill="#009af9" fill-rule="evenodd" fill-opacity="0.7"/>
<polyline clip-path="url(#clip9302)" style="stroke:#000000; stroke-width:4; stroke-opacity:0.7; fill:none" points="
  1558.22,291.574 1558.22,1386.61 1588.9,1386.61 1588.9,291.574 1558.22,291.574 
  "/>
<polygon clip-path="url(#clip9302)" points="
1588.9,214.921 1588.9,1386.61 1619.59,1386.61 1619.59,214.921 1588.9,214.921 1588.9,214.921 
  " fill="#009af9" fill-rule="evenodd" fill-opacity="0.7"/>
<polyline clip-path="url(#clip9302)" style="stroke:#000000; stroke-width:4; stroke-opacity:0.7; fill:none" points="
  1588.9,214.921 1588.9,1386.61 1619.59,1386.61 1619.59,214.921 1588.9,214.921 
  "/>
<polygon clip-path="url(#clip9302)" points="
1619.59,86.2547 1619.59,1386.61 1650.27,1386.61 1650.27,86.2547 1619.59,86.2547 1619.59,86.2547 
  " fill="#009af9" fill-rule="evenodd" fill-opacity="0.7"/>
<polyline clip-path="url(#clip9302)" style="stroke:#000000; stroke-width:4; stroke-opacity:0.7; fill:none" points="
  1619.59,86.2547 1619.59,1386.61 1650.27,1386.61 1650.27,86.2547 1619.59,86.2547 
  "/>
<polygon clip-path="url(#clip9302)" points="
1650.27,162.907 1650.27,1386.61 1680.96,1386.61 1680.96,162.907 1650.27,162.907 1650.27,162.907 
  " fill="#009af9" fill-rule="evenodd" fill-opacity="0.7"/>
<polyline clip-path="url(#clip9302)" style="stroke:#000000; stroke-width:4; stroke-opacity:0.7; fill:none" points="
  1650.27,162.907 1650.27,1386.61 1680.96,1386.61 1680.96,162.907 1650.27,162.907 
  "/>
<polygon clip-path="url(#clip9302)" points="
1680.96,160.17 1680.96,1386.61 1711.64,1386.61 1711.64,160.17 1680.96,160.17 1680.96,160.17 
  " fill="#009af9" fill-rule="evenodd" fill-opacity="0.7"/>
<polyline clip-path="url(#clip9302)" style="stroke:#000000; stroke-width:4; stroke-opacity:0.7; fill:none" points="
  1680.96,160.17 1680.96,1386.61 1711.64,1386.61 1711.64,160.17 1680.96,160.17 
  "/>
<polygon clip-path="url(#clip9302)" points="
1711.64,217.659 1711.64,1386.61 1742.33,1386.61 1742.33,217.659 1711.64,217.659 1711.64,217.659 
  " fill="#009af9" fill-rule="evenodd" fill-opacity="0.7"/>
<polyline clip-path="url(#clip9302)" style="stroke:#000000; stroke-width:4; stroke-opacity:0.7; fill:none" points="
  1711.64,217.659 1711.64,1386.61 1742.33,1386.61 1742.33,217.659 1711.64,217.659 
  "/>
<polygon clip-path="url(#clip9302)" points="
1742.33,351.801 1742.33,1386.61 1773.01,1386.61 1773.01,351.801 1742.33,351.801 1742.33,351.801 
  " fill="#009af9" fill-rule="evenodd" fill-opacity="0.7"/>
<polyline clip-path="url(#clip9302)" style="stroke:#000000; stroke-width:4; stroke-opacity:0.7; fill:none" points="
  1742.33,351.801 1742.33,1386.61 1773.01,1386.61 1773.01,351.801 1742.33,351.801 
  "/>
<polygon clip-path="url(#clip9302)" points="
1773.01,485.942 1773.01,1386.61 1803.7,1386.61 1803.7,485.942 1773.01,485.942 1773.01,485.942 
  " fill="#009af9" fill-rule="evenodd" fill-opacity="0.7"/>
<polyline clip-path="url(#clip9302)" style="stroke:#000000; stroke-width:4; stroke-opacity:0.7; fill:none" points="
  1773.01,485.942 1773.01,1386.61 1803.7,1386.61 1803.7,485.942 1773.01,485.942 
  "/>
<polygon clip-path="url(#clip9302)" points="
1803.7,614.609 1803.7,1386.61 1834.38,1386.61 1834.38,614.609 1803.7,614.609 1803.7,614.609 
  " fill="#009af9" fill-rule="evenodd" fill-opacity="0.7"/>
<polyline clip-path="url(#clip9302)" style="stroke:#000000; stroke-width:4; stroke-opacity:0.7; fill:none" points="
  1803.7,614.609 1803.7,1386.61 1834.38,1386.61 1834.38,614.609 1803.7,614.609 
  "/>
<polygon clip-path="url(#clip9302)" points="
1834.38,754.226 1834.38,1386.61 1865.07,1386.61 1865.07,754.226 1834.38,754.226 1834.38,754.226 
  " fill="#009af9" fill-rule="evenodd" fill-opacity="0.7"/>
<polyline clip-path="url(#clip9302)" style="stroke:#000000; stroke-width:4; stroke-opacity:0.7; fill:none" points="
  1834.38,754.226 1834.38,1386.61 1865.07,1386.61 1865.07,754.226 1834.38,754.226 
  "/>
<polygon clip-path="url(#clip9302)" points="
1865.07,874.679 1865.07,1386.61 1895.75,1386.61 1895.75,874.679 1865.07,874.679 1865.07,874.679 
  " fill="#009af9" fill-rule="evenodd" fill-opacity="0.7"/>
<polyline clip-path="url(#clip9302)" style="stroke:#000000; stroke-width:4; stroke-opacity:0.7; fill:none" points="
  1865.07,874.679 1865.07,1386.61 1895.75,1386.61 1895.75,874.679 1865.07,874.679 
  "/>
<polygon clip-path="url(#clip9302)" points="
1895.75,945.857 1895.75,1386.61 1926.44,1386.61 1926.44,945.857 1895.75,945.857 1895.75,945.857 
  " fill="#009af9" fill-rule="evenodd" fill-opacity="0.7"/>
<polyline clip-path="url(#clip9302)" style="stroke:#000000; stroke-width:4; stroke-opacity:0.7; fill:none" points="
  1895.75,945.857 1895.75,1386.61 1926.44,1386.61 1926.44,945.857 1895.75,945.857 
  "/>
<polygon clip-path="url(#clip9302)" points="
1926.44,1148.44 1926.44,1386.61 1957.12,1386.61 1957.12,1148.44 1926.44,1148.44 1926.44,1148.44 
  " fill="#009af9" fill-rule="evenodd" fill-opacity="0.7"/>
<polyline clip-path="url(#clip9302)" style="stroke:#000000; stroke-width:4; stroke-opacity:0.7; fill:none" points="
  1926.44,1148.44 1926.44,1386.61 1957.12,1386.61 1957.12,1148.44 1926.44,1148.44 
  "/>
<polygon clip-path="url(#clip9302)" points="
1957.12,1159.39 1957.12,1386.61 1987.81,1386.61 1987.81,1159.39 1957.12,1159.39 1957.12,1159.39 
  " fill="#009af9" fill-rule="evenodd" fill-opacity="0.7"/>
<polyline clip-path="url(#clip9302)" style="stroke:#000000; stroke-width:4; stroke-opacity:0.7; fill:none" points="
  1957.12,1159.39 1957.12,1386.61 1987.81,1386.61 1987.81,1159.39 1957.12,1159.39 
  "/>
<polygon clip-path="url(#clip9302)" points="
1987.81,1225.09 1987.81,1386.61 2018.49,1386.61 2018.49,1225.09 1987.81,1225.09 1987.81,1225.09 
  " fill="#009af9" fill-rule="evenodd" fill-opacity="0.7"/>
<polyline clip-path="url(#clip9302)" style="stroke:#000000; stroke-width:4; stroke-opacity:0.7; fill:none" points="
  1987.81,1225.09 1987.81,1386.61 2018.49,1386.61 2018.49,1225.09 1987.81,1225.09 
  "/>
<polygon clip-path="url(#clip9302)" points="
2018.49,1285.32 2018.49,1386.61 2049.18,1386.61 2049.18,1285.32 2018.49,1285.32 2018.49,1285.32 
  " fill="#009af9" fill-rule="evenodd" fill-opacity="0.7"/>
<polyline clip-path="url(#clip9302)" style="stroke:#000000; stroke-width:4; stroke-opacity:0.7; fill:none" points="
  2018.49,1285.32 2018.49,1386.61 2049.18,1386.61 2049.18,1285.32 2018.49,1285.32 
  "/>
<polygon clip-path="url(#clip9302)" points="
2049.18,1348.28 2049.18,1386.61 2079.86,1386.61 2079.86,1348.28 2049.18,1348.28 2049.18,1348.28 
  " fill="#009af9" fill-rule="evenodd" fill-opacity="0.7"/>
<polyline clip-path="url(#clip9302)" style="stroke:#000000; stroke-width:4; stroke-opacity:0.7; fill:none" points="
  2049.18,1348.28 2049.18,1386.61 2079.86,1386.61 2079.86,1348.28 2049.18,1348.28 
  "/>
<polygon clip-path="url(#clip9302)" points="
2079.86,1356.49 2079.86,1386.61 2110.55,1386.61 2110.55,1356.49 2079.86,1356.49 2079.86,1356.49 
  " fill="#009af9" fill-rule="evenodd" fill-opacity="0.7"/>
<polyline clip-path="url(#clip9302)" style="stroke:#000000; stroke-width:4; stroke-opacity:0.7; fill:none" points="
  2079.86,1356.49 2079.86,1386.61 2110.55,1386.61 2110.55,1356.49 2079.86,1356.49 
  "/>
<polygon clip-path="url(#clip9302)" points="
2110.55,1370.18 2110.55,1386.61 2141.23,1386.61 2141.23,1370.18 2110.55,1370.18 2110.55,1370.18 
  " fill="#009af9" fill-rule="evenodd" fill-opacity="0.7"/>
<polyline clip-path="url(#clip9302)" style="stroke:#000000; stroke-width:4; stroke-opacity:0.7; fill:none" points="
  2110.55,1370.18 2110.55,1386.61 2141.23,1386.61 2141.23,1370.18 2110.55,1370.18 
  "/>
<polygon clip-path="url(#clip9302)" points="
2141.23,1381.13 2141.23,1386.61 2171.92,1386.61 2171.92,1381.13 2141.23,1381.13 2141.23,1381.13 
  " fill="#009af9" fill-rule="evenodd" fill-opacity="0.7"/>
<polyline clip-path="url(#clip9302)" style="stroke:#000000; stroke-width:4; stroke-opacity:0.7; fill:none" points="
  2141.23,1381.13 2141.23,1386.61 2171.92,1386.61 2171.92,1381.13 2141.23,1381.13 
  "/>
<polygon clip-path="url(#clip9302)" points="
2171.92,1383.87 2171.92,1386.61 2202.6,1386.61 2202.6,1383.87 2171.92,1383.87 2171.92,1383.87 
  " fill="#009af9" fill-rule="evenodd" fill-opacity="0.7"/>
<polyline clip-path="url(#clip9302)" style="stroke:#000000; stroke-width:4; stroke-opacity:0.7; fill:none" points="
  2171.92,1383.87 2171.92,1386.61 2202.6,1386.61 2202.6,1383.87 2171.92,1383.87 
  "/>
<polygon clip-path="url(#clip9302)" points="
2202.6,1383.87 2202.6,1386.61 2233.29,1386.61 2233.29,1383.87 2202.6,1383.87 2202.6,1383.87 
  " fill="#009af9" fill-rule="evenodd" fill-opacity="0.7"/>
<polyline clip-path="url(#clip9302)" style="stroke:#000000; stroke-width:4; stroke-opacity:0.7; fill:none" points="
  2202.6,1383.87 2202.6,1386.61 2233.29,1386.61 2233.29,1383.87 2202.6,1383.87 
  "/>
<polyline clip-path="url(#clip9302)" style="stroke:#e26f46; stroke-width:12; stroke-opacity:1; fill:none" points="
  305.787,1382.93 313.458,1382.29 321.129,1381.56 328.8,1380.72 336.472,1379.76 344.143,1378.66 351.814,1377.41 359.485,1375.98 367.157,1374.37 374.828,1372.54 
  382.499,1370.48 390.17,1368.17 397.842,1365.57 405.513,1362.67 413.184,1359.44 420.856,1355.84 428.527,1351.86 436.198,1347.46 443.869,1342.6 451.541,1337.27 
  459.212,1331.43 466.883,1325.05 474.554,1318.1 482.226,1310.56 489.897,1302.39 497.568,1293.57 505.239,1284.08 512.911,1273.91 520.582,1263.03 528.253,1251.44 
  535.924,1239.12 543.596,1226.08 551.267,1212.31 558.938,1197.83 566.609,1182.66 574.281,1166.8 581.952,1150.3 589.623,1133.19 597.294,1115.51 604.966,1097.31 
  612.637,1078.66 620.308,1059.61 627.98,1040.24 635.651,1020.62 643.322,1000.86 650.993,981.026 658.665,961.227 666.336,941.563 674.007,922.137 681.678,903.057 
  689.35,884.432 697.021,866.371 704.692,848.982 712.363,832.372 720.035,816.645 727.706,801.899 735.377,788.228 743.048,775.718 750.72,764.449 758.391,754.489 
  766.062,745.9 773.733,738.731 781.405,733.02 789.076,728.793 796.747,726.066 804.418,724.842 812.09,725.109 819.761,726.848 827.432,730.025 835.104,734.596 
  842.775,740.508 850.446,747.699 858.117,756.096 865.789,765.623 873.46,776.194 881.131,787.722 888.802,800.115 896.474,813.279 904.145,827.119 911.816,841.542 
  919.487,856.455 927.159,871.767 934.83,887.391 942.501,903.245 950.172,919.251 957.844,935.336 965.515,951.433 973.186,967.481 980.857,983.426 988.529,999.217 
  996.2,1014.81 1003.87,1030.17 1011.54,1045.27 1019.21,1060.07 1026.88,1074.56 1034.56,1088.72 1042.23,1102.53 1049.9,1115.98 1057.57,1129.07 1065.24,1141.79 
  1072.91,1154.12 1080.58,1166.08 1088.26,1177.66 1095.93,1188.85 1103.6,1199.66 1111.27,1210.08 1118.94,1220.12 1126.61,1229.76 1134.28,1239.01 1141.95,1247.86 
  1149.63,1252.3 1157.3,1250.26 1164.97,1245.89 1172.64,1238.51 1180.31,1230.99 1187.98,1223.36 1195.65,1215.63 1203.32,1207.83 1211,1199.98 1218.67,1192.1 
  1226.34,1184.22 1234.01,1176.36 1241.68,1168.54 1249.35,1160.79 1257.02,1153.13 1264.69,1145.6 1272.37,1138.23 1280.04,1131.04 1287.71,1124.07 1295.38,1117.35 
  1303.05,1110.94 1310.72,1104.86 1318.39,1099.16 1326.06,1093.9 1333.74,1080.59 1341.41,1064.21 1349.08,1046.33 1356.75,1027.7 1364.42,1008.29 1372.09,988.07 
  1379.76,967.035 1387.43,945.168 1395.11,922.462 1402.78,898.917 1410.45,874.537 1418.12,849.336 1425.79,823.331 1433.46,796.551 1441.13,769.032 1448.8,740.818 
  1456.48,711.965 1464.15,682.537 1471.82,652.609 1479.49,622.265 1487.16,591.602 1494.83,560.724 1502.5,529.749 1510.17,498.8 1517.85,468.013 1525.52,437.529 
  1533.19,407.499 1540.86,378.077 1548.53,349.423 1556.2,321.7 1563.87,295.074 1571.54,269.708 1579.22,245.765 1586.89,223.405 1594.56,202.781 1602.23,184.039 
  1609.9,167.317 1617.57,152.744 1625.24,140.433 1632.91,130.487 1640.59,122.993 1648.26,118.024 1655.93,115.634 1663.6,115.862 1671.27,118.727 1678.94,124.232 
  1686.61,132.361 1694.28,143.08 1701.96,156.337 1709.63,172.065 1717.3,190.178 1724.97,210.575 1732.64,233.142 1740.31,257.75 1747.98,284.26 1755.65,312.521 
  1763.33,342.374 1771,373.653 1778.67,406.184 1786.34,439.793 1794.01,474.301 1801.68,509.529 1809.35,545.3 1817.02,581.438 1824.7,617.772 1832.37,654.137 
  1840.04,690.374 1847.71,726.331 1855.38,761.866 1863.05,796.846 1870.72,831.15 1878.39,864.665 1886.07,897.292 1893.74,928.942 1901.41,959.539 1909.08,989.017 
  1916.75,1017.32 1924.42,1044.41 1932.09,1070.26 1939.76,1094.84 1947.44,1118.14 1955.11,1140.16 1962.78,1160.9 1970.45,1180.39 1978.12,1198.64 1985.79,1215.68 
  1993.46,1231.54 2001.13,1246.26 2008.81,1259.89 2016.48,1272.47 2024.15,1284.04 2031.82,1294.66 2039.49,1304.38 2047.16,1313.24 2054.83,1321.31 2062.5,1328.62 
  2070.18,1335.24 2077.85,1341.22 2085.52,1346.59 2093.19,1351.42 2100.86,1355.74 2108.53,1359.59 2116.2,1363.02 2123.88,1366.06 2131.55,1368.75 2139.22,1371.13 
  2146.89,1373.22 2154.56,1375.06 2162.23,1376.67 2169.9,1378.08 2177.57,1379.3 2185.25,1380.37 2192.92,1381.29 2200.59,1382.09 2208.26,1382.77 2215.93,1383.36 
  2223.6,1383.87 2231.27,1384.3 
  "/>
<polygon clip-path="url(#clip9300)" points="
1957.87,251.724 2280.76,251.724 2280.76,130.764 1957.87,130.764 
  " fill="#ffffff" fill-rule="evenodd" fill-opacity="1"/>
<polyline clip-path="url(#clip9300)" style="stroke:#000000; stroke-width:4; stroke-opacity:1; fill:none" points="
  1957.87,251.724 2280.76,251.724 2280.76,130.764 1957.87,130.764 1957.87,251.724 
  "/>
<polyline clip-path="url(#clip9300)" style="stroke:#e26f46; stroke-width:12; stroke-opacity:1; fill:none" points="
  1981.87,191.244 2125.87,191.244 
  "/>
<g clip-path="url(#clip9300)">
<text style="fill:#000000; fill-opacity:1; font-family:Arial,Helvetica Neue,Helvetica,sans-serif; font-size:48px; text-anchor:start;" transform="rotate(0, 2149.87, 208.744)" x="2149.87" y="208.744">p(y)</text>
</g>
</svg>
