<?xml version="1.0" encoding="utf-8"?>
<svg xmlns="http://www.w3.org/2000/svg" xmlns:xlink="http://www.w3.org/1999/xlink" width="600" height="400" viewBox="0 0 2400 1600">
<defs>
  <clipPath id="clip2100">
    <rect x="0" y="0" width="2400" height="1600"/>
  </clipPath>
</defs>
<polygon clip-path="url(#clip2100)" points="
0,1600 2400,1600 2400,0 0,0 
  " fill="#002b36" fill-rule="evenodd" fill-opacity="1"/>
<defs>
  <clipPath id="clip2101">
    <rect x="480" y="0" width="1681" height="1600"/>
  </clipPath>
</defs>
<polygon clip-path="url(#clip2100)" points="
153.898,1487.47 2352.76,1487.47 2352.76,47.2441 153.898,47.2441 
  " fill="#073642" fill-rule="evenodd" fill-opacity="1"/>
<defs>
  <clipPath id="clip2102">
    <rect x="153" y="47" width="2200" height="1441"/>
  </clipPath>
</defs>
<polyline clip-path="url(#clip2102)" style="stroke:#657b83; stroke-width:2; stroke-opacity:0.1; fill:none" points="
  421.358,1487.47 421.358,47.2441 
  "/>
<polyline clip-path="url(#clip2102)" style="stroke:#657b83; stroke-width:2; stroke-opacity:0.1; fill:none" points="
  815.421,1487.47 815.421,47.2441 
  "/>
<polyline clip-path="url(#clip2102)" style="stroke:#657b83; stroke-width:2; stroke-opacity:0.1; fill:none" points="
  1209.48,1487.47 1209.48,47.2441 
  "/>
<polyline clip-path="url(#clip2102)" style="stroke:#657b83; stroke-width:2; stroke-opacity:0.1; fill:none" points="
  1603.55,1487.47 1603.55,47.2441 
  "/>
<polyline clip-path="url(#clip2102)" style="stroke:#657b83; stroke-width:2; stroke-opacity:0.1; fill:none" points="
  1997.61,1487.47 1997.61,47.2441 
  "/>
<polyline clip-path="url(#clip2102)" style="stroke:#657b83; stroke-width:2; stroke-opacity:0.1; fill:none" points="
  153.898,1446.71 2352.76,1446.71 
  "/>
<polyline clip-path="url(#clip2102)" style="stroke:#657b83; stroke-width:2; stroke-opacity:0.1; fill:none" points="
  153.898,996.81 2352.76,996.81 
  "/>
<polyline clip-path="url(#clip2102)" style="stroke:#657b83; stroke-width:2; stroke-opacity:0.1; fill:none" points="
  153.898,546.907 2352.76,546.907 
  "/>
<polyline clip-path="url(#clip2102)" style="stroke:#657b83; stroke-width:2; stroke-opacity:0.1; fill:none" points="
  153.898,97.0034 2352.76,97.0034 
  "/>
<polyline clip-path="url(#clip2100)" style="stroke:#657b83; stroke-width:4; stroke-opacity:1; fill:none" points="
  153.898,1487.47 2352.76,1487.47 
  "/>
<polyline clip-path="url(#clip2100)" style="stroke:#657b83; stroke-width:4; stroke-opacity:1; fill:none" points="
  153.898,1487.47 153.898,47.2441 
  "/>
<polyline clip-path="url(#clip2100)" style="stroke:#657b83; stroke-width:4; stroke-opacity:1; fill:none" points="
  421.358,1487.47 421.358,1465.87 
  "/>
<polyline clip-path="url(#clip2100)" style="stroke:#657b83; stroke-width:4; stroke-opacity:1; fill:none" points="
  815.421,1487.47 815.421,1465.87 
  "/>
<polyline clip-path="url(#clip2100)" style="stroke:#657b83; stroke-width:4; stroke-opacity:1; fill:none" points="
  1209.48,1487.47 1209.48,1465.87 
  "/>
<polyline clip-path="url(#clip2100)" style="stroke:#657b83; stroke-width:4; stroke-opacity:1; fill:none" points="
  1603.55,1487.47 1603.55,1465.87 
  "/>
<polyline clip-path="url(#clip2100)" style="stroke:#657b83; stroke-width:4; stroke-opacity:1; fill:none" points="
  1997.61,1487.47 1997.61,1465.87 
  "/>
<polyline clip-path="url(#clip2100)" style="stroke:#657b83; stroke-width:4; stroke-opacity:1; fill:none" points="
  153.898,1446.71 186.881,1446.71 
  "/>
<polyline clip-path="url(#clip2100)" style="stroke:#657b83; stroke-width:4; stroke-opacity:1; fill:none" points="
  153.898,996.81 186.881,996.81 
  "/>
<polyline clip-path="url(#clip2100)" style="stroke:#657b83; stroke-width:4; stroke-opacity:1; fill:none" points="
  153.898,546.907 186.881,546.907 
  "/>
<polyline clip-path="url(#clip2100)" style="stroke:#657b83; stroke-width:4; stroke-opacity:1; fill:none" points="
  153.898,97.0034 186.881,97.0034 
  "/>
<g clip-path="url(#clip2100)">
<text style="fill:#585858; fill-opacity:1; font-family:Arial,Helvetica Neue,Helvetica,sans-serif; font-size:48px; text-anchor:middle;" transform="rotate(0, 421.358, 1541.47)" x="421.358" y="1541.47">-4</text>
</g>
<g clip-path="url(#clip2100)">
<text style="fill:#585858; fill-opacity:1; font-family:Arial,Helvetica Neue,Helvetica,sans-serif; font-size:48px; text-anchor:middle;" transform="rotate(0, 815.421, 1541.47)" x="815.421" y="1541.47">-2</text>
</g>
<g clip-path="url(#clip2100)">
<text style="fill:#585858; fill-opacity:1; font-family:Arial,Helvetica Neue,Helvetica,sans-serif; font-size:48px; text-anchor:middle;" transform="rotate(0, 1209.48, 1541.47)" x="1209.48" y="1541.47">0</text>
</g>
<g clip-path="url(#clip2100)">
<text style="fill:#585858; fill-opacity:1; font-family:Arial,Helvetica Neue,Helvetica,sans-serif; font-size:48px; text-anchor:middle;" transform="rotate(0, 1603.55, 1541.47)" x="1603.55" y="1541.47">2</text>
</g>
<g clip-path="url(#clip2100)">
<text style="fill:#585858; fill-opacity:1; font-family:Arial,Helvetica Neue,Helvetica,sans-serif; font-size:48px; text-anchor:middle;" transform="rotate(0, 1997.61, 1541.47)" x="1997.61" y="1541.47">4</text>
</g>
<g clip-path="url(#clip2100)">
<text style="fill:#585858; fill-opacity:1; font-family:Arial,Helvetica Neue,Helvetica,sans-serif; font-size:48px; text-anchor:end;" transform="rotate(0, 129.898, 1464.21)" x="129.898" y="1464.21">0.0</text>
</g>
<g clip-path="url(#clip2100)">
<text style="fill:#585858; fill-opacity:1; font-family:Arial,Helvetica Neue,Helvetica,sans-serif; font-size:48px; text-anchor:end;" transform="rotate(0, 129.898, 1014.31)" x="129.898" y="1014.31">0.1</text>
</g>
<g clip-path="url(#clip2100)">
<text style="fill:#585858; fill-opacity:1; font-family:Arial,Helvetica Neue,Helvetica,sans-serif; font-size:48px; text-anchor:end;" transform="rotate(0, 129.898, 564.407)" x="129.898" y="564.407">0.2</text>
</g>
<g clip-path="url(#clip2100)">
<text style="fill:#585858; fill-opacity:1; font-family:Arial,Helvetica Neue,Helvetica,sans-serif; font-size:48px; text-anchor:end;" transform="rotate(0, 129.898, 114.503)" x="129.898" y="114.503">0.3</text>
</g>
<polygon clip-path="url(#clip2102)" points="
342.545,1442.21 342.545,1446.71 362.248,1446.71 362.248,1442.21 342.545,1442.21 342.545,1442.21 
  " fill="#dc322f" fill-rule="evenodd" fill-opacity="0.7"/>
<polyline clip-path="url(#clip2102)" style="stroke:#657b83; stroke-width:4; stroke-opacity:0.7; fill:none" points="
  342.545,1442.21 342.545,1446.71 362.248,1446.71 362.248,1442.21 342.545,1442.21 
  "/>
<polygon clip-path="url(#clip2102)" points="
362.248,1442.21 362.248,1446.71 381.951,1446.71 381.951,1442.21 362.248,1442.21 362.248,1442.21 
  " fill="#dc322f" fill-rule="evenodd" fill-opacity="0.7"/>
<polyline clip-path="url(#clip2102)" style="stroke:#657b83; stroke-width:4; stroke-opacity:0.7; fill:none" points="
  362.248,1442.21 362.248,1446.71 381.951,1446.71 381.951,1442.21 362.248,1442.21 
  "/>
<polygon clip-path="url(#clip2102)" points="
381.951,1442.21 381.951,1446.71 401.655,1446.71 401.655,1442.21 381.951,1442.21 381.951,1442.21 
  " fill="#dc322f" fill-rule="evenodd" fill-opacity="0.7"/>
<polyline clip-path="url(#clip2102)" style="stroke:#657b83; stroke-width:4; stroke-opacity:0.7; fill:none" points="
  381.951,1442.21 381.951,1446.71 401.655,1446.71 401.655,1442.21 381.951,1442.21 
  "/>
<polygon clip-path="url(#clip2102)" points="
401.655,1437.72 401.655,1446.71 421.358,1446.71 421.358,1437.72 401.655,1437.72 401.655,1437.72 
  " fill="#dc322f" fill-rule="evenodd" fill-opacity="0.7"/>
<polyline clip-path="url(#clip2102)" style="stroke:#657b83; stroke-width:4; stroke-opacity:0.7; fill:none" points="
  401.655,1437.72 401.655,1446.71 421.358,1446.71 421.358,1437.72 401.655,1437.72 
  "/>
<polygon clip-path="url(#clip2102)" points="
421.358,1446.71 421.358,1446.71 441.061,1446.71 441.061,1446.71 421.358,1446.71 421.358,1446.71 
  " fill="#dc322f" fill-rule="evenodd" fill-opacity="0.7"/>
<polyline clip-path="url(#clip2102)" style="stroke:#657b83; stroke-width:4; stroke-opacity:0.7; fill:none" points="
  421.358,1446.71 421.358,1446.71 441.061,1446.71 421.358,1446.71 
  "/>
<polygon clip-path="url(#clip2102)" points="
441.061,1433.22 441.061,1446.71 460.764,1446.71 460.764,1433.22 441.061,1433.22 441.061,1433.22 
  " fill="#dc322f" fill-rule="evenodd" fill-opacity="0.7"/>
<polyline clip-path="url(#clip2102)" style="stroke:#657b83; stroke-width:4; stroke-opacity:0.7; fill:none" points="
  441.061,1433.22 441.061,1446.71 460.764,1446.71 460.764,1433.22 441.061,1433.22 
  "/>
<polygon clip-path="url(#clip2102)" points="
460.764,1433.22 460.764,1446.71 480.467,1446.71 480.467,1433.22 460.764,1433.22 460.764,1433.22 
  " fill="#dc322f" fill-rule="evenodd" fill-opacity="0.7"/>
<polyline clip-path="url(#clip2102)" style="stroke:#657b83; stroke-width:4; stroke-opacity:0.7; fill:none" points="
  460.764,1433.22 460.764,1446.71 480.467,1446.71 480.467,1433.22 460.764,1433.22 
  "/>
<polygon clip-path="url(#clip2102)" points="
480.467,1437.72 480.467,1446.71 500.17,1446.71 500.17,1437.72 480.467,1437.72 480.467,1437.72 
  " fill="#dc322f" fill-rule="evenodd" fill-opacity="0.7"/>
<polyline clip-path="url(#clip2102)" style="stroke:#657b83; stroke-width:4; stroke-opacity:0.7; fill:none" points="
  480.467,1437.72 480.467,1446.71 500.17,1446.71 500.17,1437.72 480.467,1437.72 
  "/>
<polygon clip-path="url(#clip2102)" points="
500.17,1415.22 500.17,1446.71 519.873,1446.71 519.873,1415.22 500.17,1415.22 500.17,1415.22 
  " fill="#dc322f" fill-rule="evenodd" fill-opacity="0.7"/>
<polyline clip-path="url(#clip2102)" style="stroke:#657b83; stroke-width:4; stroke-opacity:0.7; fill:none" points="
  500.17,1415.22 500.17,1446.71 519.873,1446.71 519.873,1415.22 500.17,1415.22 
  "/>
<polygon clip-path="url(#clip2102)" points="
519.873,1415.22 519.873,1446.71 539.577,1446.71 539.577,1415.22 519.873,1415.22 519.873,1415.22 
  " fill="#dc322f" fill-rule="evenodd" fill-opacity="0.7"/>
<polyline clip-path="url(#clip2102)" style="stroke:#657b83; stroke-width:4; stroke-opacity:0.7; fill:none" points="
  519.873,1415.22 519.873,1446.71 539.577,1446.71 539.577,1415.22 519.873,1415.22 
  "/>
<polygon clip-path="url(#clip2102)" points="
539.577,1410.72 539.577,1446.71 559.28,1446.71 559.28,1410.72 539.577,1410.72 539.577,1410.72 
  " fill="#dc322f" fill-rule="evenodd" fill-opacity="0.7"/>
<polyline clip-path="url(#clip2102)" style="stroke:#657b83; stroke-width:4; stroke-opacity:0.7; fill:none" points="
  539.577,1410.72 539.577,1446.71 559.28,1446.71 559.28,1410.72 539.577,1410.72 
  "/>
<polygon clip-path="url(#clip2102)" points="
559.28,1374.73 559.28,1446.71 578.983,1446.71 578.983,1374.73 559.28,1374.73 559.28,1374.73 
  " fill="#dc322f" fill-rule="evenodd" fill-opacity="0.7"/>
<polyline clip-path="url(#clip2102)" style="stroke:#657b83; stroke-width:4; stroke-opacity:0.7; fill:none" points="
  559.28,1374.73 559.28,1446.71 578.983,1446.71 578.983,1374.73 559.28,1374.73 
  "/>
<polygon clip-path="url(#clip2102)" points="
578.983,1406.22 578.983,1446.71 598.686,1446.71 598.686,1406.22 578.983,1406.22 578.983,1406.22 
  " fill="#dc322f" fill-rule="evenodd" fill-opacity="0.7"/>
<polyline clip-path="url(#clip2102)" style="stroke:#657b83; stroke-width:4; stroke-opacity:0.7; fill:none" points="
  578.983,1406.22 578.983,1446.71 598.686,1446.71 598.686,1406.22 578.983,1406.22 
  "/>
<polygon clip-path="url(#clip2102)" points="
598.686,1356.73 598.686,1446.71 618.389,1446.71 618.389,1356.73 598.686,1356.73 598.686,1356.73 
  " fill="#dc322f" fill-rule="evenodd" fill-opacity="0.7"/>
<polyline clip-path="url(#clip2102)" style="stroke:#657b83; stroke-width:4; stroke-opacity:0.7; fill:none" points="
  598.686,1356.73 598.686,1446.71 618.389,1446.71 618.389,1356.73 598.686,1356.73 
  "/>
<polygon clip-path="url(#clip2102)" points="
618.389,1347.73 618.389,1446.71 638.092,1446.71 638.092,1347.73 618.389,1347.73 618.389,1347.73 
  " fill="#dc322f" fill-rule="evenodd" fill-opacity="0.7"/>
<polyline clip-path="url(#clip2102)" style="stroke:#657b83; stroke-width:4; stroke-opacity:0.7; fill:none" points="
  618.389,1347.73 618.389,1446.71 638.092,1446.71 638.092,1347.73 618.389,1347.73 
  "/>
<polygon clip-path="url(#clip2102)" points="
638.092,1320.74 638.092,1446.71 657.795,1446.71 657.795,1320.74 638.092,1320.74 638.092,1320.74 
  " fill="#dc322f" fill-rule="evenodd" fill-opacity="0.7"/>
<polyline clip-path="url(#clip2102)" style="stroke:#657b83; stroke-width:4; stroke-opacity:0.7; fill:none" points="
  638.092,1320.74 638.092,1446.71 657.795,1446.71 657.795,1320.74 638.092,1320.74 
  "/>
<polygon clip-path="url(#clip2102)" points="
657.795,1316.24 657.795,1446.71 677.499,1446.71 677.499,1316.24 657.795,1316.24 657.795,1316.24 
  " fill="#dc322f" fill-rule="evenodd" fill-opacity="0.7"/>
<polyline clip-path="url(#clip2102)" style="stroke:#657b83; stroke-width:4; stroke-opacity:0.7; fill:none" points="
  657.795,1316.24 657.795,1446.71 677.499,1446.71 677.499,1316.24 657.795,1316.24 
  "/>
<polygon clip-path="url(#clip2102)" points="
677.499,1262.25 677.499,1446.71 697.202,1446.71 697.202,1262.25 677.499,1262.25 677.499,1262.25 
  " fill="#dc322f" fill-rule="evenodd" fill-opacity="0.7"/>
<polyline clip-path="url(#clip2102)" style="stroke:#657b83; stroke-width:4; stroke-opacity:0.7; fill:none" points="
  677.499,1262.25 677.499,1446.71 697.202,1446.71 697.202,1262.25 677.499,1262.25 
  "/>
<polygon clip-path="url(#clip2102)" points="
697.202,1149.78 697.202,1446.71 716.905,1446.71 716.905,1149.78 697.202,1149.78 697.202,1149.78 
  " fill="#dc322f" fill-rule="evenodd" fill-opacity="0.7"/>
<polyline clip-path="url(#clip2102)" style="stroke:#657b83; stroke-width:4; stroke-opacity:0.7; fill:none" points="
  697.202,1149.78 697.202,1446.71 716.905,1446.71 716.905,1149.78 697.202,1149.78 
  "/>
<polygon clip-path="url(#clip2102)" points="
716.905,1073.29 716.905,1446.71 736.608,1446.71 736.608,1073.29 716.905,1073.29 716.905,1073.29 
  " fill="#dc322f" fill-rule="evenodd" fill-opacity="0.7"/>
<polyline clip-path="url(#clip2102)" style="stroke:#657b83; stroke-width:4; stroke-opacity:0.7; fill:none" points="
  716.905,1073.29 716.905,1446.71 736.608,1446.71 736.608,1073.29 716.905,1073.29 
  "/>
<polygon clip-path="url(#clip2102)" points="
736.608,1059.8 736.608,1446.71 756.311,1446.71 756.311,1059.8 736.608,1059.8 736.608,1059.8 
  " fill="#dc322f" fill-rule="evenodd" fill-opacity="0.7"/>
<polyline clip-path="url(#clip2102)" style="stroke:#657b83; stroke-width:4; stroke-opacity:0.7; fill:none" points="
  736.608,1059.8 736.608,1446.71 756.311,1446.71 756.311,1059.8 736.608,1059.8 
  "/>
<polygon clip-path="url(#clip2102)" points="
756.311,992.311 756.311,1446.71 776.014,1446.71 776.014,992.311 756.311,992.311 756.311,992.311 
  " fill="#dc322f" fill-rule="evenodd" fill-opacity="0.7"/>
<polyline clip-path="url(#clip2102)" style="stroke:#657b83; stroke-width:4; stroke-opacity:0.7; fill:none" points="
  756.311,992.311 756.311,1446.71 776.014,1446.71 776.014,992.311 756.311,992.311 
  "/>
<polygon clip-path="url(#clip2102)" points="
776.014,843.843 776.014,1446.71 795.717,1446.71 795.717,843.843 776.014,843.843 776.014,843.843 
  " fill="#dc322f" fill-rule="evenodd" fill-opacity="0.7"/>
<polyline clip-path="url(#clip2102)" style="stroke:#657b83; stroke-width:4; stroke-opacity:0.7; fill:none" points="
  776.014,843.843 776.014,1446.71 795.717,1446.71 795.717,843.843 776.014,843.843 
  "/>
<polygon clip-path="url(#clip2102)" points="
795.717,726.868 795.717,1446.71 815.421,1446.71 815.421,726.868 795.717,726.868 795.717,726.868 
  " fill="#dc322f" fill-rule="evenodd" fill-opacity="0.7"/>
<polyline clip-path="url(#clip2102)" style="stroke:#657b83; stroke-width:4; stroke-opacity:0.7; fill:none" points="
  795.717,726.868 795.717,1446.71 815.421,1446.71 815.421,726.868 795.717,726.868 
  "/>
<polygon clip-path="url(#clip2102)" points="
815.421,663.882 815.421,1446.71 835.124,1446.71 835.124,663.882 815.421,663.882 815.421,663.882 
  " fill="#dc322f" fill-rule="evenodd" fill-opacity="0.7"/>
<polyline clip-path="url(#clip2102)" style="stroke:#657b83; stroke-width:4; stroke-opacity:0.7; fill:none" points="
  815.421,663.882 815.421,1446.71 835.124,1446.71 835.124,663.882 815.421,663.882 
  "/>
<polygon clip-path="url(#clip2102)" points="
835.124,515.414 835.124,1446.71 854.827,1446.71 854.827,515.414 835.124,515.414 835.124,515.414 
  " fill="#dc322f" fill-rule="evenodd" fill-opacity="0.7"/>
<polyline clip-path="url(#clip2102)" style="stroke:#657b83; stroke-width:4; stroke-opacity:0.7; fill:none" points="
  835.124,515.414 835.124,1446.71 854.827,1446.71 854.827,515.414 835.124,515.414 
  "/>
<polygon clip-path="url(#clip2102)" points="
854.827,438.93 854.827,1446.71 874.53,1446.71 874.53,438.93 854.827,438.93 854.827,438.93 
  " fill="#dc322f" fill-rule="evenodd" fill-opacity="0.7"/>
<polyline clip-path="url(#clip2102)" style="stroke:#657b83; stroke-width:4; stroke-opacity:0.7; fill:none" points="
  854.827,438.93 854.827,1446.71 874.53,1446.71 874.53,438.93 854.827,438.93 
  "/>
<polygon clip-path="url(#clip2102)" points="
874.53,308.458 874.53,1446.71 894.233,1446.71 894.233,308.458 874.53,308.458 874.53,308.458 
  " fill="#dc322f" fill-rule="evenodd" fill-opacity="0.7"/>
<polyline clip-path="url(#clip2102)" style="stroke:#657b83; stroke-width:4; stroke-opacity:0.7; fill:none" points="
  874.53,308.458 874.53,1446.71 894.233,1446.71 894.233,308.458 874.53,308.458 
  "/>
<polygon clip-path="url(#clip2102)" points="
894.233,272.466 894.233,1446.71 913.936,1446.71 913.936,272.466 894.233,272.466 894.233,272.466 
  " fill="#dc322f" fill-rule="evenodd" fill-opacity="0.7"/>
<polyline clip-path="url(#clip2102)" style="stroke:#657b83; stroke-width:4; stroke-opacity:0.7; fill:none" points="
  894.233,272.466 894.233,1446.71 913.936,1446.71 913.936,272.466 894.233,272.466 
  "/>
<polygon clip-path="url(#clip2102)" points="
913.936,177.986 913.936,1446.71 933.639,1446.71 933.639,177.986 913.936,177.986 913.936,177.986 
  " fill="#dc322f" fill-rule="evenodd" fill-opacity="0.7"/>
<polyline clip-path="url(#clip2102)" style="stroke:#657b83; stroke-width:4; stroke-opacity:0.7; fill:none" points="
  913.936,177.986 913.936,1446.71 933.639,1446.71 933.639,177.986 913.936,177.986 
  "/>
<polygon clip-path="url(#clip2102)" points="
933.639,290.462 933.639,1446.71 953.343,1446.71 953.343,290.462 933.639,290.462 933.639,290.462 
  " fill="#dc322f" fill-rule="evenodd" fill-opacity="0.7"/>
<polyline clip-path="url(#clip2102)" style="stroke:#657b83; stroke-width:4; stroke-opacity:0.7; fill:none" points="
  933.639,290.462 933.639,1446.71 953.343,1446.71 953.343,290.462 933.639,290.462 
  "/>
<polygon clip-path="url(#clip2102)" points="
953.343,492.918 953.343,1446.71 973.046,1446.71 973.046,492.918 953.343,492.918 953.343,492.918 
  " fill="#dc322f" fill-rule="evenodd" fill-opacity="0.7"/>
<polyline clip-path="url(#clip2102)" style="stroke:#657b83; stroke-width:4; stroke-opacity:0.7; fill:none" points="
  953.343,492.918 953.343,1446.71 973.046,1446.71 973.046,492.918 953.343,492.918 
  "/>
<polygon clip-path="url(#clip2102)" points="
973.046,308.458 973.046,1446.71 992.749,1446.71 992.749,308.458 973.046,308.458 973.046,308.458 
  " fill="#dc322f" fill-rule="evenodd" fill-opacity="0.7"/>
<polyline clip-path="url(#clip2102)" style="stroke:#657b83; stroke-width:4; stroke-opacity:0.7; fill:none" points="
  973.046,308.458 973.046,1446.71 992.749,1446.71 992.749,308.458 973.046,308.458 
  "/>
<polygon clip-path="url(#clip2102)" points="
992.749,470.423 992.749,1446.71 1012.45,1446.71 1012.45,470.423 992.749,470.423 992.749,470.423 
  " fill="#dc322f" fill-rule="evenodd" fill-opacity="0.7"/>
<polyline clip-path="url(#clip2102)" style="stroke:#657b83; stroke-width:4; stroke-opacity:0.7; fill:none" points="
  992.749,470.423 992.749,1446.71 1012.45,1446.71 1012.45,470.423 992.749,470.423 
  "/>
<polygon clip-path="url(#clip2102)" points="
1012.45,470.423 1012.45,1446.71 1032.16,1446.71 1032.16,470.423 1012.45,470.423 1012.45,470.423 
  " fill="#dc322f" fill-rule="evenodd" fill-opacity="0.7"/>
<polyline clip-path="url(#clip2102)" style="stroke:#657b83; stroke-width:4; stroke-opacity:0.7; fill:none" points="
  1012.45,470.423 1012.45,1446.71 1032.16,1446.71 1032.16,470.423 1012.45,470.423 
  "/>
<polygon clip-path="url(#clip2102)" points="
1032.16,578.4 1032.16,1446.71 1051.86,1446.71 1051.86,578.4 1032.16,578.4 1032.16,578.4 
  " fill="#dc322f" fill-rule="evenodd" fill-opacity="0.7"/>
<polyline clip-path="url(#clip2102)" style="stroke:#657b83; stroke-width:4; stroke-opacity:0.7; fill:none" points="
  1032.16,578.4 1032.16,1446.71 1051.86,1446.71 1051.86,578.4 1032.16,578.4 
  "/>
<polygon clip-path="url(#clip2102)" points="
1051.86,506.415 1051.86,1446.71 1071.56,1446.71 1071.56,506.415 1051.86,506.415 1051.86,506.415 
  " fill="#dc322f" fill-rule="evenodd" fill-opacity="0.7"/>
<polyline clip-path="url(#clip2102)" style="stroke:#657b83; stroke-width:4; stroke-opacity:0.7; fill:none" points="
  1051.86,506.415 1051.86,1446.71 1071.56,1446.71 1071.56,506.415 1051.86,506.415 
  "/>
<polygon clip-path="url(#clip2102)" points="
1071.56,497.417 1071.56,1446.71 1091.26,1446.71 1091.26,497.417 1071.56,497.417 1071.56,497.417 
  " fill="#dc322f" fill-rule="evenodd" fill-opacity="0.7"/>
<polyline clip-path="url(#clip2102)" style="stroke:#657b83; stroke-width:4; stroke-opacity:0.7; fill:none" points="
  1071.56,497.417 1071.56,1446.71 1091.26,1446.71 1091.26,497.417 1071.56,497.417 
  "/>
<polygon clip-path="url(#clip2102)" points="
1091.26,483.92 1091.26,1446.71 1110.97,1446.71 1110.97,483.92 1091.26,483.92 1091.26,483.92 
  " fill="#dc322f" fill-rule="evenodd" fill-opacity="0.7"/>
<polyline clip-path="url(#clip2102)" style="stroke:#657b83; stroke-width:4; stroke-opacity:0.7; fill:none" points="
  1091.26,483.92 1091.26,1446.71 1110.97,1446.71 1110.97,483.92 1091.26,483.92 
  "/>
<polygon clip-path="url(#clip2102)" points="
1110.97,434.431 1110.97,1446.71 1130.67,1446.71 1130.67,434.431 1110.97,434.431 1110.97,434.431 
  " fill="#dc322f" fill-rule="evenodd" fill-opacity="0.7"/>
<polyline clip-path="url(#clip2102)" style="stroke:#657b83; stroke-width:4; stroke-opacity:0.7; fill:none" points="
  1110.97,434.431 1110.97,1446.71 1130.67,1446.71 1130.67,434.431 1110.97,434.431 
  "/>
<polygon clip-path="url(#clip2102)" points="
1130.67,213.978 1130.67,1446.71 1150.37,1446.71 1150.37,213.978 1130.67,213.978 1130.67,213.978 
  " fill="#dc322f" fill-rule="evenodd" fill-opacity="0.7"/>
<polyline clip-path="url(#clip2102)" style="stroke:#657b83; stroke-width:4; stroke-opacity:0.7; fill:none" points="
  1130.67,213.978 1130.67,1446.71 1150.37,1446.71 1150.37,213.978 1130.67,213.978 
  "/>
<polygon clip-path="url(#clip2102)" points="
1150.37,204.98 1150.37,1446.71 1170.08,1446.71 1170.08,204.98 1150.37,204.98 1150.37,204.98 
  " fill="#dc322f" fill-rule="evenodd" fill-opacity="0.7"/>
<polyline clip-path="url(#clip2102)" style="stroke:#657b83; stroke-width:4; stroke-opacity:0.7; fill:none" points="
  1150.37,204.98 1150.37,1446.71 1170.08,1446.71 1170.08,204.98 1150.37,204.98 
  "/>
<polygon clip-path="url(#clip2102)" points="
1170.08,263.468 1170.08,1446.71 1189.78,1446.71 1189.78,263.468 1170.08,263.468 1170.08,263.468 
  " fill="#dc322f" fill-rule="evenodd" fill-opacity="0.7"/>
<polyline clip-path="url(#clip2102)" style="stroke:#657b83; stroke-width:4; stroke-opacity:0.7; fill:none" points="
  1170.08,263.468 1170.08,1446.71 1189.78,1446.71 1189.78,263.468 1170.08,263.468 
  "/>
<polygon clip-path="url(#clip2102)" points="
1189.78,272.466 1189.78,1446.71 1209.48,1446.71 1209.48,272.466 1189.78,272.466 1189.78,272.466 
  " fill="#dc322f" fill-rule="evenodd" fill-opacity="0.7"/>
<polyline clip-path="url(#clip2102)" style="stroke:#657b83; stroke-width:4; stroke-opacity:0.7; fill:none" points="
  1189.78,272.466 1189.78,1446.71 1209.48,1446.71 1209.48,272.466 1189.78,272.466 
  "/>
<polygon clip-path="url(#clip2102)" points="
1209.48,258.969 1209.48,1446.71 1229.19,1446.71 1229.19,258.969 1209.48,258.969 1209.48,258.969 
  " fill="#dc322f" fill-rule="evenodd" fill-opacity="0.7"/>
<polyline clip-path="url(#clip2102)" style="stroke:#657b83; stroke-width:4; stroke-opacity:0.7; fill:none" points="
  1209.48,258.969 1209.48,1446.71 1229.19,1446.71 1229.19,258.969 1209.48,258.969 
  "/>
<polygon clip-path="url(#clip2102)" points="
1229.19,123.998 1229.19,1446.71 1248.89,1446.71 1248.89,123.998 1229.19,123.998 1229.19,123.998 
  " fill="#dc322f" fill-rule="evenodd" fill-opacity="0.7"/>
<polyline clip-path="url(#clip2102)" style="stroke:#657b83; stroke-width:4; stroke-opacity:0.7; fill:none" points="
  1229.19,123.998 1229.19,1446.71 1248.89,1446.71 1248.89,123.998 1229.19,123.998 
  "/>
<polygon clip-path="url(#clip2102)" points="
1248.89,88.0053 1248.89,1446.71 1268.59,1446.71 1268.59,88.0053 1248.89,88.0053 1248.89,88.0053 
  " fill="#dc322f" fill-rule="evenodd" fill-opacity="0.7"/>
<polyline clip-path="url(#clip2102)" style="stroke:#657b83; stroke-width:4; stroke-opacity:0.7; fill:none" points="
  1248.89,88.0053 1248.89,1446.71 1268.59,1446.71 1268.59,88.0053 1248.89,88.0053 
  "/>
<polygon clip-path="url(#clip2102)" points="
1268.59,213.978 1268.59,1446.71 1288.3,1446.71 1288.3,213.978 1268.59,213.978 1268.59,213.978 
  " fill="#dc322f" fill-rule="evenodd" fill-opacity="0.7"/>
<polyline clip-path="url(#clip2102)" style="stroke:#657b83; stroke-width:4; stroke-opacity:0.7; fill:none" points="
  1268.59,213.978 1268.59,1446.71 1288.3,1446.71 1288.3,213.978 1268.59,213.978 
  "/>
<polygon clip-path="url(#clip2102)" points="
1288.3,236.473 1288.3,1446.71 1308,1446.71 1308,236.473 1288.3,236.473 1288.3,236.473 
  " fill="#dc322f" fill-rule="evenodd" fill-opacity="0.7"/>
<polyline clip-path="url(#clip2102)" style="stroke:#657b83; stroke-width:4; stroke-opacity:0.7; fill:none" points="
  1288.3,236.473 1288.3,1446.71 1308,1446.71 1308,236.473 1288.3,236.473 
  "/>
<polygon clip-path="url(#clip2102)" points="
1308,128.497 1308,1446.71 1327.7,1446.71 1327.7,128.497 1308,128.497 1308,128.497 
  " fill="#dc322f" fill-rule="evenodd" fill-opacity="0.7"/>
<polyline clip-path="url(#clip2102)" style="stroke:#657b83; stroke-width:4; stroke-opacity:0.7; fill:none" points="
  1308,128.497 1308,1446.71 1327.7,1446.71 1327.7,128.497 1308,128.497 
  "/>
<polygon clip-path="url(#clip2102)" points="
1327.7,177.986 1327.7,1446.71 1347.41,1446.71 1347.41,177.986 1327.7,177.986 1327.7,177.986 
  " fill="#dc322f" fill-rule="evenodd" fill-opacity="0.7"/>
<polyline clip-path="url(#clip2102)" style="stroke:#657b83; stroke-width:4; stroke-opacity:0.7; fill:none" points="
  1327.7,177.986 1327.7,1446.71 1347.41,1446.71 1347.41,177.986 1327.7,177.986 
  "/>
<polygon clip-path="url(#clip2102)" points="
1347.41,159.99 1347.41,1446.71 1367.11,1446.71 1367.11,159.99 1347.41,159.99 1347.41,159.99 
  " fill="#dc322f" fill-rule="evenodd" fill-opacity="0.7"/>
<polyline clip-path="url(#clip2102)" style="stroke:#657b83; stroke-width:4; stroke-opacity:0.7; fill:none" points="
  1347.41,159.99 1347.41,1446.71 1367.11,1446.71 1367.11,159.99 1347.41,159.99 
  "/>
<polygon clip-path="url(#clip2102)" points="
1367.11,204.98 1367.11,1446.71 1386.81,1446.71 1386.81,204.98 1367.11,204.98 1367.11,204.98 
  " fill="#dc322f" fill-rule="evenodd" fill-opacity="0.7"/>
<polyline clip-path="url(#clip2102)" style="stroke:#657b83; stroke-width:4; stroke-opacity:0.7; fill:none" points="
  1367.11,204.98 1367.11,1446.71 1386.81,1446.71 1386.81,204.98 1367.11,204.98 
  "/>
<polygon clip-path="url(#clip2102)" points="
1386.81,173.487 1386.81,1446.71 1406.51,1446.71 1406.51,173.487 1386.81,173.487 1386.81,173.487 
  " fill="#dc322f" fill-rule="evenodd" fill-opacity="0.7"/>
<polyline clip-path="url(#clip2102)" style="stroke:#657b83; stroke-width:4; stroke-opacity:0.7; fill:none" points="
  1386.81,173.487 1386.81,1446.71 1406.51,1446.71 1406.51,173.487 1386.81,173.487 
  "/>
<polygon clip-path="url(#clip2102)" points="
1406.51,317.456 1406.51,1446.71 1426.22,1446.71 1426.22,317.456 1406.51,317.456 1406.51,317.456 
  " fill="#dc322f" fill-rule="evenodd" fill-opacity="0.7"/>
<polyline clip-path="url(#clip2102)" style="stroke:#657b83; stroke-width:4; stroke-opacity:0.7; fill:none" points="
  1406.51,317.456 1406.51,1446.71 1426.22,1446.71 1426.22,317.456 1406.51,317.456 
  "/>
<polygon clip-path="url(#clip2102)" points="
1426.22,533.41 1426.22,1446.71 1445.92,1446.71 1445.92,533.41 1426.22,533.41 1426.22,533.41 
  " fill="#dc322f" fill-rule="evenodd" fill-opacity="0.7"/>
<polyline clip-path="url(#clip2102)" style="stroke:#657b83; stroke-width:4; stroke-opacity:0.7; fill:none" points="
  1426.22,533.41 1426.22,1446.71 1445.92,1446.71 1445.92,533.41 1426.22,533.41 
  "/>
<polygon clip-path="url(#clip2102)" points="
1445.92,897.831 1445.92,1446.71 1465.62,1446.71 1465.62,897.831 1445.92,897.831 1445.92,897.831 
  " fill="#dc322f" fill-rule="evenodd" fill-opacity="0.7"/>
<polyline clip-path="url(#clip2102)" style="stroke:#657b83; stroke-width:4; stroke-opacity:0.7; fill:none" points="
  1445.92,897.831 1445.92,1446.71 1465.62,1446.71 1465.62,897.831 1445.92,897.831 
  "/>
<polygon clip-path="url(#clip2102)" points="
1465.62,1019.31 1465.62,1446.71 1485.33,1446.71 1485.33,1019.31 1465.62,1019.31 1465.62,1019.31 
  " fill="#dc322f" fill-rule="evenodd" fill-opacity="0.7"/>
<polyline clip-path="url(#clip2102)" style="stroke:#657b83; stroke-width:4; stroke-opacity:0.7; fill:none" points="
  1465.62,1019.31 1465.62,1446.71 1485.33,1446.71 1485.33,1019.31 1465.62,1019.31 
  "/>
<polygon clip-path="url(#clip2102)" points="
1485.33,1023.8 1485.33,1446.71 1505.03,1446.71 1505.03,1023.8 1485.33,1023.8 1485.33,1023.8 
  " fill="#dc322f" fill-rule="evenodd" fill-opacity="0.7"/>
<polyline clip-path="url(#clip2102)" style="stroke:#657b83; stroke-width:4; stroke-opacity:0.7; fill:none" points="
  1485.33,1023.8 1485.33,1446.71 1505.03,1446.71 1505.03,1023.8 1485.33,1023.8 
  "/>
<polygon clip-path="url(#clip2102)" points="
1505.03,1014.81 1505.03,1446.71 1524.73,1446.71 1524.73,1014.81 1505.03,1014.81 1505.03,1014.81 
  " fill="#dc322f" fill-rule="evenodd" fill-opacity="0.7"/>
<polyline clip-path="url(#clip2102)" style="stroke:#657b83; stroke-width:4; stroke-opacity:0.7; fill:none" points="
  1505.03,1014.81 1505.03,1446.71 1524.73,1446.71 1524.73,1014.81 1505.03,1014.81 
  "/>
<polygon clip-path="url(#clip2102)" points="
1524.73,1095.79 1524.73,1446.71 1544.44,1446.71 1544.44,1095.79 1524.73,1095.79 1524.73,1095.79 
  " fill="#dc322f" fill-rule="evenodd" fill-opacity="0.7"/>
<polyline clip-path="url(#clip2102)" style="stroke:#657b83; stroke-width:4; stroke-opacity:0.7; fill:none" points="
  1524.73,1095.79 1524.73,1446.71 1544.44,1446.71 1544.44,1095.79 1524.73,1095.79 
  "/>
<polygon clip-path="url(#clip2102)" points="
1544.44,1041.8 1544.44,1446.71 1564.14,1446.71 1564.14,1041.8 1544.44,1041.8 1544.44,1041.8 
  " fill="#dc322f" fill-rule="evenodd" fill-opacity="0.7"/>
<polyline clip-path="url(#clip2102)" style="stroke:#657b83; stroke-width:4; stroke-opacity:0.7; fill:none" points="
  1544.44,1041.8 1544.44,1446.71 1564.14,1446.71 1564.14,1041.8 1544.44,1041.8 
  "/>
<polygon clip-path="url(#clip2102)" points="
1564.14,1100.29 1564.14,1446.71 1583.84,1446.71 1583.84,1100.29 1564.14,1100.29 1564.14,1100.29 
  " fill="#dc322f" fill-rule="evenodd" fill-opacity="0.7"/>
<polyline clip-path="url(#clip2102)" style="stroke:#657b83; stroke-width:4; stroke-opacity:0.7; fill:none" points="
  1564.14,1100.29 1564.14,1446.71 1583.84,1446.71 1583.84,1100.29 1564.14,1100.29 
  "/>
<polygon clip-path="url(#clip2102)" points="
1583.84,1086.79 1583.84,1446.71 1603.55,1446.71 1603.55,1086.79 1583.84,1086.79 1583.84,1086.79 
  " fill="#dc322f" fill-rule="evenodd" fill-opacity="0.7"/>
<polyline clip-path="url(#clip2102)" style="stroke:#657b83; stroke-width:4; stroke-opacity:0.7; fill:none" points="
  1583.84,1086.79 1583.84,1446.71 1603.55,1446.71 1603.55,1086.79 1583.84,1086.79 
  "/>
<polygon clip-path="url(#clip2102)" points="
1603.55,1041.8 1603.55,1446.71 1623.25,1446.71 1623.25,1041.8 1603.55,1041.8 1603.55,1041.8 
  " fill="#dc322f" fill-rule="evenodd" fill-opacity="0.7"/>
<polyline clip-path="url(#clip2102)" style="stroke:#657b83; stroke-width:4; stroke-opacity:0.7; fill:none" points="
  1603.55,1041.8 1603.55,1446.71 1623.25,1446.71 1623.25,1041.8 1603.55,1041.8 
  "/>
<polygon clip-path="url(#clip2102)" points="
1623.25,1172.27 1623.25,1446.71 1642.95,1446.71 1642.95,1172.27 1623.25,1172.27 1623.25,1172.27 
  " fill="#dc322f" fill-rule="evenodd" fill-opacity="0.7"/>
<polyline clip-path="url(#clip2102)" style="stroke:#657b83; stroke-width:4; stroke-opacity:0.7; fill:none" points="
  1623.25,1172.27 1623.25,1446.71 1642.95,1446.71 1642.95,1172.27 1623.25,1172.27 
  "/>
<polygon clip-path="url(#clip2102)" points="
1642.95,1239.76 1642.95,1446.71 1662.66,1446.71 1662.66,1239.76 1642.95,1239.76 1642.95,1239.76 
  " fill="#dc322f" fill-rule="evenodd" fill-opacity="0.7"/>
<polyline clip-path="url(#clip2102)" style="stroke:#657b83; stroke-width:4; stroke-opacity:0.7; fill:none" points="
  1642.95,1239.76 1642.95,1446.71 1662.66,1446.71 1662.66,1239.76 1642.95,1239.76 
  "/>
<polygon clip-path="url(#clip2102)" points="
1662.66,1176.77 1662.66,1446.71 1682.36,1446.71 1682.36,1176.77 1662.66,1176.77 1662.66,1176.77 
  " fill="#dc322f" fill-rule="evenodd" fill-opacity="0.7"/>
<polyline clip-path="url(#clip2102)" style="stroke:#657b83; stroke-width:4; stroke-opacity:0.7; fill:none" points="
  1662.66,1176.77 1662.66,1446.71 1682.36,1446.71 1682.36,1176.77 1662.66,1176.77 
  "/>
<polygon clip-path="url(#clip2102)" points="
1682.36,1289.25 1682.36,1446.71 1702.06,1446.71 1702.06,1289.25 1682.36,1289.25 1682.36,1289.25 
  " fill="#dc322f" fill-rule="evenodd" fill-opacity="0.7"/>
<polyline clip-path="url(#clip2102)" style="stroke:#657b83; stroke-width:4; stroke-opacity:0.7; fill:none" points="
  1682.36,1289.25 1682.36,1446.71 1702.06,1446.71 1702.06,1289.25 1682.36,1289.25 
  "/>
<polygon clip-path="url(#clip2102)" points="
1702.06,1293.75 1702.06,1446.71 1721.77,1446.71 1721.77,1293.75 1702.06,1293.75 1702.06,1293.75 
  " fill="#dc322f" fill-rule="evenodd" fill-opacity="0.7"/>
<polyline clip-path="url(#clip2102)" style="stroke:#657b83; stroke-width:4; stroke-opacity:0.7; fill:none" points="
  1702.06,1293.75 1702.06,1446.71 1721.77,1446.71 1721.77,1293.75 1702.06,1293.75 
  "/>
<polygon clip-path="url(#clip2102)" points="
1721.77,1257.75 1721.77,1446.71 1741.47,1446.71 1741.47,1257.75 1721.77,1257.75 1721.77,1257.75 
  " fill="#dc322f" fill-rule="evenodd" fill-opacity="0.7"/>
<polyline clip-path="url(#clip2102)" style="stroke:#657b83; stroke-width:4; stroke-opacity:0.7; fill:none" points="
  1721.77,1257.75 1721.77,1446.71 1741.47,1446.71 1741.47,1257.75 1721.77,1257.75 
  "/>
<polygon clip-path="url(#clip2102)" points="
1741.47,1352.23 1741.47,1446.71 1761.17,1446.71 1761.17,1352.23 1741.47,1352.23 1741.47,1352.23 
  " fill="#dc322f" fill-rule="evenodd" fill-opacity="0.7"/>
<polyline clip-path="url(#clip2102)" style="stroke:#657b83; stroke-width:4; stroke-opacity:0.7; fill:none" points="
  1741.47,1352.23 1741.47,1446.71 1761.17,1446.71 1761.17,1352.23 1741.47,1352.23 
  "/>
<polygon clip-path="url(#clip2102)" points="
1761.17,1307.24 1761.17,1446.71 1780.87,1446.71 1780.87,1307.24 1761.17,1307.24 1761.17,1307.24 
  " fill="#dc322f" fill-rule="evenodd" fill-opacity="0.7"/>
<polyline clip-path="url(#clip2102)" style="stroke:#657b83; stroke-width:4; stroke-opacity:0.7; fill:none" points="
  1761.17,1307.24 1761.17,1446.71 1780.87,1446.71 1780.87,1307.24 1761.17,1307.24 
  "/>
<polygon clip-path="url(#clip2102)" points="
1780.87,1388.23 1780.87,1446.71 1800.58,1446.71 1800.58,1388.23 1780.87,1388.23 1780.87,1388.23 
  " fill="#dc322f" fill-rule="evenodd" fill-opacity="0.7"/>
<polyline clip-path="url(#clip2102)" style="stroke:#657b83; stroke-width:4; stroke-opacity:0.7; fill:none" points="
  1780.87,1388.23 1780.87,1446.71 1800.58,1446.71 1800.58,1388.23 1780.87,1388.23 
  "/>
<polygon clip-path="url(#clip2102)" points="
1800.58,1401.72 1800.58,1446.71 1820.28,1446.71 1820.28,1401.72 1800.58,1401.72 1800.58,1401.72 
  " fill="#dc322f" fill-rule="evenodd" fill-opacity="0.7"/>
<polyline clip-path="url(#clip2102)" style="stroke:#657b83; stroke-width:4; stroke-opacity:0.7; fill:none" points="
  1800.58,1401.72 1800.58,1446.71 1820.28,1446.71 1820.28,1401.72 1800.58,1401.72 
  "/>
<polygon clip-path="url(#clip2102)" points="
1820.28,1406.22 1820.28,1446.71 1839.98,1446.71 1839.98,1406.22 1820.28,1406.22 1820.28,1406.22 
  " fill="#dc322f" fill-rule="evenodd" fill-opacity="0.7"/>
<polyline clip-path="url(#clip2102)" style="stroke:#657b83; stroke-width:4; stroke-opacity:0.7; fill:none" points="
  1820.28,1406.22 1820.28,1446.71 1839.98,1446.71 1839.98,1406.22 1820.28,1406.22 
  "/>
<polygon clip-path="url(#clip2102)" points="
1839.98,1415.22 1839.98,1446.71 1859.69,1446.71 1859.69,1415.22 1839.98,1415.22 1839.98,1415.22 
  " fill="#dc322f" fill-rule="evenodd" fill-opacity="0.7"/>
<polyline clip-path="url(#clip2102)" style="stroke:#657b83; stroke-width:4; stroke-opacity:0.7; fill:none" points="
  1839.98,1415.22 1839.98,1446.71 1859.69,1446.71 1859.69,1415.22 1839.98,1415.22 
  "/>
<polygon clip-path="url(#clip2102)" points="
1859.69,1433.22 1859.69,1446.71 1879.39,1446.71 1879.39,1433.22 1859.69,1433.22 1859.69,1433.22 
  " fill="#dc322f" fill-rule="evenodd" fill-opacity="0.7"/>
<polyline clip-path="url(#clip2102)" style="stroke:#657b83; stroke-width:4; stroke-opacity:0.7; fill:none" points="
  1859.69,1433.22 1859.69,1446.71 1879.39,1446.71 1879.39,1433.22 1859.69,1433.22 
  "/>
<polygon clip-path="url(#clip2102)" points="
1879.39,1428.72 1879.39,1446.71 1899.09,1446.71 1899.09,1428.72 1879.39,1428.72 1879.39,1428.72 
  " fill="#dc322f" fill-rule="evenodd" fill-opacity="0.7"/>
<polyline clip-path="url(#clip2102)" style="stroke:#657b83; stroke-width:4; stroke-opacity:0.7; fill:none" points="
  1879.39,1428.72 1879.39,1446.71 1899.09,1446.71 1899.09,1428.72 1879.39,1428.72 
  "/>
<polygon clip-path="url(#clip2102)" points="
1899.09,1437.72 1899.09,1446.71 1918.8,1446.71 1918.8,1437.72 1899.09,1437.72 1899.09,1437.72 
  " fill="#dc322f" fill-rule="evenodd" fill-opacity="0.7"/>
<polyline clip-path="url(#clip2102)" style="stroke:#657b83; stroke-width:4; stroke-opacity:0.7; fill:none" points="
  1899.09,1437.72 1899.09,1446.71 1918.8,1446.71 1918.8,1437.72 1899.09,1437.72 
  "/>
<polygon clip-path="url(#clip2102)" points="
1918.8,1437.72 1918.8,1446.71 1938.5,1446.71 1938.5,1437.72 1918.8,1437.72 1918.8,1437.72 
  " fill="#dc322f" fill-rule="evenodd" fill-opacity="0.7"/>
<polyline clip-path="url(#clip2102)" style="stroke:#657b83; stroke-width:4; stroke-opacity:0.7; fill:none" points="
  1918.8,1437.72 1918.8,1446.71 1938.5,1446.71 1938.5,1437.72 1918.8,1437.72 
  "/>
<polygon clip-path="url(#clip2102)" points="
1938.5,1437.72 1938.5,1446.71 1958.2,1446.71 1958.2,1437.72 1938.5,1437.72 1938.5,1437.72 
  " fill="#dc322f" fill-rule="evenodd" fill-opacity="0.7"/>
<polyline clip-path="url(#clip2102)" style="stroke:#657b83; stroke-width:4; stroke-opacity:0.7; fill:none" points="
  1938.5,1437.72 1938.5,1446.71 1958.2,1446.71 1958.2,1437.72 1938.5,1437.72 
  "/>
<polygon clip-path="url(#clip2102)" points="
1958.2,1442.21 1958.2,1446.71 1977.91,1446.71 1977.91,1442.21 1958.2,1442.21 1958.2,1442.21 
  " fill="#dc322f" fill-rule="evenodd" fill-opacity="0.7"/>
<polyline clip-path="url(#clip2102)" style="stroke:#657b83; stroke-width:4; stroke-opacity:0.7; fill:none" points="
  1958.2,1442.21 1958.2,1446.71 1977.91,1446.71 1977.91,1442.21 1958.2,1442.21 
  "/>
<polygon clip-path="url(#clip2102)" points="
1977.91,1442.21 1977.91,1446.71 1997.61,1446.71 1997.61,1442.21 1977.91,1442.21 1977.91,1442.21 
  " fill="#dc322f" fill-rule="evenodd" fill-opacity="0.7"/>
<polyline clip-path="url(#clip2102)" style="stroke:#657b83; stroke-width:4; stroke-opacity:0.7; fill:none" points="
  1977.91,1442.21 1977.91,1446.71 1997.61,1446.71 1997.61,1442.21 1977.91,1442.21 
  "/>
<polygon clip-path="url(#clip2102)" points="
1997.61,1437.72 1997.61,1446.71 2017.31,1446.71 2017.31,1437.72 1997.61,1437.72 1997.61,1437.72 
  " fill="#dc322f" fill-rule="evenodd" fill-opacity="0.7"/>
<polyline clip-path="url(#clip2102)" style="stroke:#657b83; stroke-width:4; stroke-opacity:0.7; fill:none" points="
  1997.61,1437.72 1997.61,1446.71 2017.31,1446.71 2017.31,1437.72 1997.61,1437.72 
  "/>
<polygon clip-path="url(#clip2102)" points="
2017.31,1442.21 2017.31,1446.71 2037.02,1446.71 2037.02,1442.21 2017.31,1442.21 2017.31,1442.21 
  " fill="#dc322f" fill-rule="evenodd" fill-opacity="0.7"/>
<polyline clip-path="url(#clip2102)" style="stroke:#657b83; stroke-width:4; stroke-opacity:0.7; fill:none" points="
  2017.31,1442.21 2017.31,1446.71 2037.02,1446.71 2037.02,1442.21 2017.31,1442.21 
  "/>
<polygon clip-path="url(#clip2102)" points="
2037.02,1446.71 2037.02,1446.71 2056.72,1446.71 2056.72,1446.71 2037.02,1446.71 2037.02,1446.71 
  " fill="#dc322f" fill-rule="evenodd" fill-opacity="0.7"/>
<polyline clip-path="url(#clip2102)" style="stroke:#657b83; stroke-width:4; stroke-opacity:0.7; fill:none" points="
  2037.02,1446.71 2037.02,1446.71 2056.72,1446.71 2037.02,1446.71 
  "/>
<polygon clip-path="url(#clip2102)" points="
2056.72,1446.71 2056.72,1446.71 2076.42,1446.71 2076.42,1446.71 2056.72,1446.71 2056.72,1446.71 
  " fill="#dc322f" fill-rule="evenodd" fill-opacity="0.7"/>
<polyline clip-path="url(#clip2102)" style="stroke:#657b83; stroke-width:4; stroke-opacity:0.7; fill:none" points="
  2056.72,1446.71 2056.72,1446.71 2076.42,1446.71 2056.72,1446.71 
  "/>
<polygon clip-path="url(#clip2102)" points="
2076.42,1446.71 2076.42,1446.71 2096.13,1446.71 2096.13,1446.71 2076.42,1446.71 2076.42,1446.71 
  " fill="#dc322f" fill-rule="evenodd" fill-opacity="0.7"/>
<polyline clip-path="url(#clip2102)" style="stroke:#657b83; stroke-width:4; stroke-opacity:0.7; fill:none" points="
  2076.42,1446.71 2076.42,1446.71 2096.13,1446.71 2076.42,1446.71 
  "/>
<polygon clip-path="url(#clip2102)" points="
2096.13,1446.71 2096.13,1446.71 2115.83,1446.71 2115.83,1446.71 2096.13,1446.71 2096.13,1446.71 
  " fill="#dc322f" fill-rule="evenodd" fill-opacity="0.7"/>
<polyline clip-path="url(#clip2102)" style="stroke:#657b83; stroke-width:4; stroke-opacity:0.7; fill:none" points="
  2096.13,1446.71 2096.13,1446.71 2115.83,1446.71 2096.13,1446.71 
  "/>
<polygon clip-path="url(#clip2102)" points="
2115.83,1446.71 2115.83,1446.71 2135.53,1446.71 2135.53,1446.71 2115.83,1446.71 2115.83,1446.71 
  " fill="#dc322f" fill-rule="evenodd" fill-opacity="0.7"/>
<polyline clip-path="url(#clip2102)" style="stroke:#657b83; stroke-width:4; stroke-opacity:0.7; fill:none" points="
  2115.83,1446.71 2115.83,1446.71 2135.53,1446.71 2115.83,1446.71 
  "/>
<polygon clip-path="url(#clip2102)" points="
2135.53,1442.21 2135.53,1446.71 2155.23,1446.71 2155.23,1442.21 2135.53,1442.21 2135.53,1442.21 
  " fill="#dc322f" fill-rule="evenodd" fill-opacity="0.7"/>
<polyline clip-path="url(#clip2102)" style="stroke:#657b83; stroke-width:4; stroke-opacity:0.7; fill:none" points="
  2135.53,1442.21 2135.53,1446.71 2155.23,1446.71 2155.23,1442.21 2135.53,1442.21 
  "/>
<polyline clip-path="url(#clip2102)" style="stroke:#b58900; stroke-width:12; stroke-opacity:1; fill:none" points="
  216.13,1446.71 226.554,1446.71 236.978,1446.71 247.402,1446.7 257.826,1446.69 268.25,1446.66 278.674,1446.6 289.098,1446.48 299.523,1446.3 309.947,1446.01 
  320.371,1445.61 330.795,1445.09 341.219,1444.48 351.643,1443.8 362.067,1443.1 372.491,1442.42 382.915,1441.77 393.339,1441.12 403.763,1440.45 414.188,1439.69 
  424.612,1438.8 435.036,1437.75 445.46,1436.49 455.884,1434.97 466.308,1433.14 476.732,1430.91 487.156,1428.23 497.58,1425.04 508.004,1421.35 518.428,1417.17 
  528.853,1412.55 539.277,1407.5 549.701,1402.02 560.125,1396.09 570.549,1389.62 580.973,1382.54 591.397,1374.74 601.821,1366.11 612.245,1356.48 622.669,1345.57 
  633.093,1332.96 643.518,1318.13 653.942,1300.51 664.366,1279.72 674.79,1255.63 685.214,1228.48 695.638,1198.78 706.062,1167.05 716.486,1133.65 726.91,1098.52 
  737.334,1061.27 747.758,1021.24 758.183,977.886 768.607,930.933 779.031,880.554 789.455,827.32 799.879,772.076 810.303,715.795 820.727,659.48 831.151,604.122 
  841.575,550.697 851.999,500.172 862.423,453.52 872.848,411.759 883.272,375.988 893.696,347.356 904.12,326.927 914.544,315.414 924.968,312.887 935.392,318.592 
  945.816,331.02 956.24,348.216 966.664,368.214 977.089,389.399 987.513,410.645 997.937,431.227 1008.36,450.574 1018.78,468.001 1029.21,482.561 1039.63,493.064 
  1050.06,498.272 1060.48,497.18 1070.91,489.266 1081.33,474.624 1091.75,453.955 1102.18,428.475 1112.6,399.8 1123.03,369.817 1133.45,340.506 1143.87,313.661 
  1154.3,290.538 1164.72,271.55 1175.15,256.191 1185.57,243.261 1195.99,231.363 1206.42,219.483 1216.84,207.4 1227.27,195.749 1237.69,185.714 1248.11,178.469 
  1258.54,174.649 1268.96,174.057 1279.39,175.751 1289.81,178.433 1300.24,180.958 1310.66,182.739 1321.08,183.938 1331.51,185.43 1341.93,188.659 1352.36,195.482 
  1362.78,208.026 1373.2,228.547 1383.63,259.2 1394.05,301.685 1404.48,356.803 1414.9,424.012 1425.32,501.169 1435.75,584.596 1446.17,669.556 1456.6,751.05 
  1467.02,824.733 1477.44,887.655 1487.87,938.601 1498.29,977.965 1508.72,1007.26 1519.14,1028.53 1529.57,1043.81 1539.99,1054.89 1550.41,1063.25 1560.84,1070.12 
  1571.26,1076.65 1581.69,1083.93 1592.11,1092.95 1602.53,1104.42 1612.96,1118.65 1623.38,1135.42 1633.81,1154.03 1644.23,1173.49 1654.65,1192.81 1665.08,1211.18 
  1675.5,1228.16 1685.93,1243.6 1696.35,1257.59 1706.77,1270.37 1717.2,1282.25 1727.62,1293.63 1738.05,1304.9 1748.47,1316.42 1758.9,1328.34 1769.32,1340.64 
  1779.74,1353.05 1790.17,1365.15 1800.59,1376.51 1811.02,1386.78 1821.44,1395.77 1831.86,1403.45 1842.29,1409.94 1852.71,1415.41 1863.14,1420.04 1873.56,1423.95 
  1883.98,1427.27 1894.41,1430.08 1904.83,1432.45 1915.26,1434.43 1925.68,1436.08 1936.1,1437.44 1946.53,1438.53 1956.95,1439.39 1967.38,1440.06 1977.8,1440.58 
  1988.23,1441.01 1998.65,1441.44 2009.07,1441.93 2019.5,1442.51 2029.92,1443.18 2040.35,1443.89 2050.77,1444.58 2061.19,1445.17 2071.62,1445.62 2082.04,1445.91 
  2092.47,1446.04 2102.89,1446.04 2113.31,1445.96 2123.74,1445.85 2134.16,1445.77 2144.59,1445.74 2155.01,1445.78 2165.43,1445.89 2175.86,1446.04 2186.28,1446.21 
  2196.71,1446.36 2207.13,1446.49 2217.56,1446.58 2227.98,1446.64 2238.4,1446.68 2248.83,1446.7 2259.25,1446.71 2269.68,1446.71 2280.1,1446.71 2290.52,1446.71 
  
  "/>
</svg>
