<?xml version="1.0" encoding="utf-8"?>
<svg xmlns="http://www.w3.org/2000/svg" xmlns:xlink="http://www.w3.org/1999/xlink" width="500" height="300" viewBox="0 0 2000 1200">
<defs>
  <clipPath id="clip460">
    <rect x="0" y="0" width="2000" height="1200"/>
  </clipPath>
</defs>
<path clip-path="url(#clip460)" d="
M0 1200 L2000 1200 L2000 0 L0 0  Z
  " fill="#ffffff" fill-rule="evenodd" fill-opacity="1"/>
<defs>
  <clipPath id="clip461">
    <rect x="400" y="0" width="1401" height="1200"/>
  </clipPath>
</defs>
<path clip-path="url(#clip460)" d="
M168.015 1035.39 L1952.76 1035.39 L1952.76 47.2441 L168.015 47.2441  Z
  " fill="#ffffff" fill-rule="evenodd" fill-opacity="1"/>
<defs>
  <clipPath id="clip462">
    <rect x="168" y="47" width="1786" height="989"/>
  </clipPath>
</defs>
<polyline clip-path="url(#clip462)" style="stroke:#000000; stroke-linecap:round; stroke-linejoin:round; stroke-width:2; stroke-opacity:0.1; fill:none" points="
  168.015,1035.39 168.015,47.2441 
  "/>
<polyline clip-path="url(#clip462)" style="stroke:#000000; stroke-linecap:round; stroke-linejoin:round; stroke-width:2; stroke-opacity:0.1; fill:none" points="
  422.978,1035.39 422.978,47.2441 
  "/>
<polyline clip-path="url(#clip462)" style="stroke:#000000; stroke-linecap:round; stroke-linejoin:round; stroke-width:2; stroke-opacity:0.1; fill:none" points="
  677.941,1035.39 677.941,47.2441 
  "/>
<polyline clip-path="url(#clip462)" style="stroke:#000000; stroke-linecap:round; stroke-linejoin:round; stroke-width:2; stroke-opacity:0.1; fill:none" points="
  932.904,1035.39 932.904,47.2441 
  "/>
<polyline clip-path="url(#clip462)" style="stroke:#000000; stroke-linecap:round; stroke-linejoin:round; stroke-width:2; stroke-opacity:0.1; fill:none" points="
  1187.87,1035.39 1187.87,47.2441 
  "/>
<polyline clip-path="url(#clip462)" style="stroke:#000000; stroke-linecap:round; stroke-linejoin:round; stroke-width:2; stroke-opacity:0.1; fill:none" points="
  1442.83,1035.39 1442.83,47.2441 
  "/>
<polyline clip-path="url(#clip462)" style="stroke:#000000; stroke-linecap:round; stroke-linejoin:round; stroke-width:2; stroke-opacity:0.1; fill:none" points="
  1697.79,1035.39 1697.79,47.2441 
  "/>
<polyline clip-path="url(#clip462)" style="stroke:#000000; stroke-linecap:round; stroke-linejoin:round; stroke-width:2; stroke-opacity:0.1; fill:none" points="
  1952.76,1035.39 1952.76,47.2441 
  "/>
<polyline clip-path="url(#clip460)" style="stroke:#000000; stroke-linecap:round; stroke-linejoin:round; stroke-width:4; stroke-opacity:1; fill:none" points="
  168.015,1035.39 1952.76,1035.39 
  "/>
<polyline clip-path="url(#clip460)" style="stroke:#000000; stroke-linecap:round; stroke-linejoin:round; stroke-width:4; stroke-opacity:1; fill:none" points="
  168.015,1035.39 168.015,1016.49 
  "/>
<polyline clip-path="url(#clip460)" style="stroke:#000000; stroke-linecap:round; stroke-linejoin:round; stroke-width:4; stroke-opacity:1; fill:none" points="
  422.978,1035.39 422.978,1016.49 
  "/>
<polyline clip-path="url(#clip460)" style="stroke:#000000; stroke-linecap:round; stroke-linejoin:round; stroke-width:4; stroke-opacity:1; fill:none" points="
  677.941,1035.39 677.941,1016.49 
  "/>
<polyline clip-path="url(#clip460)" style="stroke:#000000; stroke-linecap:round; stroke-linejoin:round; stroke-width:4; stroke-opacity:1; fill:none" points="
  932.904,1035.39 932.904,1016.49 
  "/>
<polyline clip-path="url(#clip460)" style="stroke:#000000; stroke-linecap:round; stroke-linejoin:round; stroke-width:4; stroke-opacity:1; fill:none" points="
  1187.87,1035.39 1187.87,1016.49 
  "/>
<polyline clip-path="url(#clip460)" style="stroke:#000000; stroke-linecap:round; stroke-linejoin:round; stroke-width:4; stroke-opacity:1; fill:none" points="
  1442.83,1035.39 1442.83,1016.49 
  "/>
<polyline clip-path="url(#clip460)" style="stroke:#000000; stroke-linecap:round; stroke-linejoin:round; stroke-width:4; stroke-opacity:1; fill:none" points="
  1697.79,1035.39 1697.79,1016.49 
  "/>
<polyline clip-path="url(#clip460)" style="stroke:#000000; stroke-linecap:round; stroke-linejoin:round; stroke-width:4; stroke-opacity:1; fill:none" points="
  1952.76,1035.39 1952.76,1016.49 
  "/>
<path clip-path="url(#clip460)" d="M168.015 1063.11 Q164.404 1063.11 162.575 1066.67 Q160.769 1070.21 160.769 1077.34 Q160.769 1084.45 162.575 1088.01 Q164.404 1091.56 168.015 1091.56 Q171.649 1091.56 173.455 1088.01 Q175.283 1084.45 175.283 1077.34 Q175.283 1070.21 173.455 1066.67 Q171.649 1063.11 168.015 1063.11 M168.015 1059.4 Q173.825 1059.4 176.881 1064.01 Q179.959 1068.59 179.959 1077.34 Q179.959 1086.07 176.881 1090.68 Q173.825 1095.26 168.015 1095.26 Q162.205 1095.26 159.126 1090.68 Q156.07 1086.07 156.07 1077.34 Q156.07 1068.59 159.126 1064.01 Q162.205 1059.4 168.015 1059.4 Z" fill="#000000" fill-rule="evenodd" fill-opacity="1" /><path clip-path="url(#clip460)" d="M417.631 1090.65 L433.95 1090.65 L433.95 1094.59 L412.006 1094.59 L412.006 1090.65 Q414.668 1087.9 419.251 1083.27 Q423.857 1078.62 425.038 1077.27 Q427.283 1074.75 428.163 1073.01 Q429.066 1071.25 429.066 1069.56 Q429.066 1066.81 427.121 1065.07 Q425.2 1063.34 422.098 1063.34 Q419.899 1063.34 417.445 1064.1 Q415.015 1064.87 412.237 1066.42 L412.237 1061.69 Q415.061 1060.56 417.515 1059.98 Q419.969 1059.4 422.006 1059.4 Q427.376 1059.4 430.57 1062.09 Q433.765 1064.77 433.765 1069.26 Q433.765 1071.39 432.955 1073.31 Q432.168 1075.21 430.061 1077.81 Q429.482 1078.48 426.381 1081.69 Q423.279 1084.89 417.631 1090.65 Z" fill="#000000" fill-rule="evenodd" fill-opacity="1" /><path clip-path="url(#clip460)" d="M680.95 1064.1 L669.145 1082.55 L680.95 1082.55 L680.95 1064.1 M679.723 1060.03 L685.603 1060.03 L685.603 1082.55 L690.533 1082.55 L690.533 1086.44 L685.603 1086.44 L685.603 1094.59 L680.95 1094.59 L680.95 1086.44 L665.348 1086.44 L665.348 1081.93 L679.723 1060.03 Z" fill="#000000" fill-rule="evenodd" fill-opacity="1" /><path clip-path="url(#clip460)" d="M933.309 1075.44 Q930.161 1075.44 928.309 1077.6 Q926.48 1079.75 926.48 1083.5 Q926.48 1087.23 928.309 1089.4 Q930.161 1091.56 933.309 1091.56 Q936.457 1091.56 938.286 1089.4 Q940.138 1087.23 940.138 1083.5 Q940.138 1079.75 938.286 1077.6 Q936.457 1075.44 933.309 1075.44 M942.591 1060.79 L942.591 1065.05 Q940.832 1064.22 939.027 1063.78 Q937.244 1063.34 935.485 1063.34 Q930.855 1063.34 928.402 1066.46 Q925.971 1069.59 925.624 1075.91 Q926.99 1073.89 929.05 1072.83 Q931.11 1071.74 933.587 1071.74 Q938.795 1071.74 941.804 1074.91 Q944.837 1078.06 944.837 1083.5 Q944.837 1088.82 941.689 1092.04 Q938.54 1095.26 933.309 1095.26 Q927.314 1095.26 924.142 1090.68 Q920.971 1086.07 920.971 1077.34 Q920.971 1069.15 924.86 1064.29 Q928.749 1059.4 935.3 1059.4 Q937.059 1059.4 938.841 1059.75 Q940.647 1060.1 942.591 1060.79 Z" fill="#000000" fill-rule="evenodd" fill-opacity="1" /><path clip-path="url(#clip460)" d="M1187.87 1078.18 Q1184.53 1078.18 1182.61 1079.96 Q1180.71 1081.74 1180.71 1084.87 Q1180.71 1087.99 1182.61 1089.77 Q1184.53 1091.56 1187.87 1091.56 Q1191.2 1091.56 1193.12 1089.77 Q1195.04 1087.97 1195.04 1084.87 Q1195.04 1081.74 1193.12 1079.96 Q1191.22 1078.18 1187.87 1078.18 M1183.19 1076.19 Q1180.18 1075.44 1178.49 1073.38 Q1176.83 1071.32 1176.83 1068.36 Q1176.83 1064.22 1179.77 1061.81 Q1182.73 1059.4 1187.87 1059.4 Q1193.03 1059.4 1195.97 1061.81 Q1198.91 1064.22 1198.91 1068.36 Q1198.91 1071.32 1197.22 1073.38 Q1195.55 1075.44 1192.57 1076.19 Q1195.95 1076.97 1197.82 1079.26 Q1199.72 1081.56 1199.72 1084.87 Q1199.72 1089.89 1196.64 1092.57 Q1193.58 1095.26 1187.87 1095.26 Q1182.15 1095.26 1179.07 1092.57 Q1176.02 1089.89 1176.02 1084.87 Q1176.02 1081.56 1177.91 1079.26 Q1179.81 1076.97 1183.19 1076.19 M1181.48 1068.8 Q1181.48 1071.49 1183.14 1072.99 Q1184.83 1074.5 1187.87 1074.5 Q1190.88 1074.5 1192.57 1072.99 Q1194.28 1071.49 1194.28 1068.8 Q1194.28 1066.12 1192.57 1064.61 Q1190.88 1063.11 1187.87 1063.11 Q1184.83 1063.11 1183.14 1064.61 Q1181.48 1066.12 1181.48 1068.8 Z" fill="#000000" fill-rule="evenodd" fill-opacity="1" /><path clip-path="url(#clip460)" d="M1417.52 1090.65 L1425.16 1090.65 L1425.16 1064.29 L1416.85 1065.95 L1416.85 1061.69 L1425.11 1060.03 L1429.79 1060.03 L1429.79 1090.65 L1437.42 1090.65 L1437.42 1094.59 L1417.52 1094.59 L1417.52 1090.65 Z" fill="#000000" fill-rule="evenodd" fill-opacity="1" /><path clip-path="url(#clip460)" d="M1456.87 1063.11 Q1453.26 1063.11 1451.43 1066.67 Q1449.62 1070.21 1449.62 1077.34 Q1449.62 1084.45 1451.43 1088.01 Q1453.26 1091.56 1456.87 1091.56 Q1460.5 1091.56 1462.31 1088.01 Q1464.14 1084.45 1464.14 1077.34 Q1464.14 1070.21 1462.31 1066.67 Q1460.5 1063.11 1456.87 1063.11 M1456.87 1059.4 Q1462.68 1059.4 1465.73 1064.01 Q1468.81 1068.59 1468.81 1077.34 Q1468.81 1086.07 1465.73 1090.68 Q1462.68 1095.26 1456.87 1095.26 Q1451.06 1095.26 1447.98 1090.68 Q1444.92 1086.07 1444.92 1077.34 Q1444.92 1068.59 1447.98 1064.01 Q1451.06 1059.4 1456.87 1059.4 Z" fill="#000000" fill-rule="evenodd" fill-opacity="1" /><path clip-path="url(#clip460)" d="M1673.28 1090.65 L1680.92 1090.65 L1680.92 1064.29 L1672.61 1065.95 L1672.61 1061.69 L1680.87 1060.03 L1685.55 1060.03 L1685.55 1090.65 L1693.19 1090.65 L1693.19 1094.59 L1673.28 1094.59 L1673.28 1090.65 Z" fill="#000000" fill-rule="evenodd" fill-opacity="1" /><path clip-path="url(#clip460)" d="M1706.66 1090.65 L1722.98 1090.65 L1722.98 1094.59 L1701.03 1094.59 L1701.03 1090.65 Q1703.7 1087.9 1708.28 1083.27 Q1712.89 1078.62 1714.07 1077.27 Q1716.31 1074.75 1717.19 1073.01 Q1718.09 1071.25 1718.09 1069.56 Q1718.09 1066.81 1716.15 1065.07 Q1714.23 1063.34 1711.13 1063.34 Q1708.93 1063.34 1706.47 1064.1 Q1704.04 1064.87 1701.27 1066.42 L1701.27 1061.69 Q1704.09 1060.56 1706.54 1059.98 Q1709 1059.4 1711.03 1059.4 Q1716.4 1059.4 1719.6 1062.09 Q1722.79 1064.77 1722.79 1069.26 Q1722.79 1071.39 1721.98 1073.31 Q1721.2 1075.21 1719.09 1077.81 Q1718.51 1078.48 1715.41 1081.69 Q1712.31 1084.89 1706.66 1090.65 Z" fill="#000000" fill-rule="evenodd" fill-opacity="1" /><path clip-path="url(#clip460)" d="M1927.2 1090.65 L1934.84 1090.65 L1934.84 1064.29 L1926.53 1065.95 L1926.53 1061.69 L1934.79 1060.03 L1939.47 1060.03 L1939.47 1090.65 L1947.11 1090.65 L1947.11 1094.59 L1927.2 1094.59 L1927.2 1090.65 Z" fill="#000000" fill-rule="evenodd" fill-opacity="1" /><path clip-path="url(#clip460)" d="M1969.4 1064.1 L1957.59 1082.55 L1969.4 1082.55 L1969.4 1064.1 M1968.17 1060.03 L1974.05 1060.03 L1974.05 1082.55 L1978.98 1082.55 L1978.98 1086.44 L1974.05 1086.44 L1974.05 1094.59 L1969.4 1094.59 L1969.4 1086.44 L1953.8 1086.44 L1953.8 1081.93 L1968.17 1060.03 Z" fill="#000000" fill-rule="evenodd" fill-opacity="1" /><path clip-path="url(#clip460)" d="M854.757 1126.73 L894.957 1126.73 L894.957 1132.14 L878.087 1132.14 L878.087 1174.25 L871.626 1174.25 L871.626 1132.14 L854.757 1132.14 L854.757 1126.73 Z" fill="#000000" fill-rule="evenodd" fill-opacity="1" /><path clip-path="url(#clip460)" d="M898.903 1138.6 L904.76 1138.6 L904.76 1174.25 L898.903 1174.25 L898.903 1138.6 M898.903 1124.73 L904.76 1124.73 L904.76 1132.14 L898.903 1132.14 L898.903 1124.73 Z" fill="#000000" fill-rule="evenodd" fill-opacity="1" /><path clip-path="url(#clip460)" d="M944.768 1145.45 Q946.964 1141.5 950.02 1139.62 Q953.075 1137.74 957.213 1137.74 Q962.783 1137.74 965.807 1141.66 Q968.831 1145.54 968.831 1152.74 L968.831 1174.25 L962.942 1174.25 L962.942 1152.93 Q962.942 1147.8 961.128 1145.32 Q959.314 1142.84 955.59 1142.84 Q951.038 1142.84 948.397 1145.86 Q945.755 1148.88 945.755 1154.1 L945.755 1174.25 L939.867 1174.25 L939.867 1152.93 Q939.867 1147.77 938.052 1145.32 Q936.238 1142.84 932.451 1142.84 Q927.963 1142.84 925.321 1145.89 Q922.679 1148.92 922.679 1154.1 L922.679 1174.25 L916.791 1174.25 L916.791 1138.6 L922.679 1138.6 L922.679 1144.14 Q924.684 1140.86 927.485 1139.3 Q930.286 1137.74 934.137 1137.74 Q938.021 1137.74 940.726 1139.72 Q943.463 1141.69 944.768 1145.45 Z" fill="#000000" fill-rule="evenodd" fill-opacity="1" /><path clip-path="url(#clip460)" d="M1011 1154.96 L1011 1157.83 L984.076 1157.83 Q984.458 1163.88 987.705 1167.06 Q990.983 1170.21 996.808 1170.21 Q1000.18 1170.21 1003.33 1169.38 Q1006.52 1168.55 1009.63 1166.9 L1009.63 1172.44 Q1006.48 1173.77 1003.17 1174.47 Q999.863 1175.17 996.458 1175.17 Q987.928 1175.17 982.931 1170.21 Q977.965 1165.24 977.965 1156.78 Q977.965 1148.03 982.676 1142.9 Q987.418 1137.74 995.439 1137.74 Q1002.63 1137.74 1006.8 1142.39 Q1011 1147.01 1011 1154.96 M1005.15 1153.25 Q1005.08 1148.44 1002.44 1145.57 Q999.832 1142.71 995.503 1142.71 Q990.601 1142.71 987.641 1145.48 Q984.713 1148.25 984.267 1153.28 L1005.15 1153.25 Z" fill="#000000" fill-rule="evenodd" fill-opacity="1" /><path clip-path="url(#clip460)" d="M1041.34 1138.6 L1047.19 1138.6 L1047.19 1174.25 L1041.34 1174.25 L1041.34 1138.6 M1041.34 1124.73 L1047.19 1124.73 L1047.19 1132.14 L1041.34 1132.14 L1041.34 1124.73 Z" fill="#000000" fill-rule="evenodd" fill-opacity="1" /><path clip-path="url(#clip460)" d="M1089.08 1152.74 L1089.08 1174.25 L1083.22 1174.25 L1083.22 1152.93 Q1083.22 1147.87 1081.25 1145.35 Q1079.28 1142.84 1075.33 1142.84 Q1070.59 1142.84 1067.85 1145.86 Q1065.11 1148.88 1065.11 1154.1 L1065.11 1174.25 L1059.22 1174.25 L1059.22 1138.6 L1065.11 1138.6 L1065.11 1144.14 Q1067.21 1140.93 1070.05 1139.34 Q1072.91 1137.74 1076.63 1137.74 Q1082.78 1137.74 1085.93 1141.56 Q1089.08 1145.35 1089.08 1152.74 Z" fill="#000000" fill-rule="evenodd" fill-opacity="1" /><path clip-path="url(#clip460)" d="M1144.94 1144.01 L1144.94 1124.73 L1150.79 1124.73 L1150.79 1174.25 L1144.94 1174.25 L1144.94 1168.9 Q1143.09 1172.09 1140.26 1173.65 Q1137.46 1175.17 1133.51 1175.17 Q1127.05 1175.17 1122.98 1170.02 Q1118.93 1164.86 1118.93 1156.46 Q1118.93 1148.06 1122.98 1142.9 Q1127.05 1137.74 1133.51 1137.74 Q1137.46 1137.74 1140.26 1139.3 Q1143.09 1140.83 1144.94 1144.01 M1124.98 1156.46 Q1124.98 1162.92 1127.62 1166.61 Q1130.3 1170.27 1134.94 1170.27 Q1139.59 1170.27 1142.26 1166.61 Q1144.94 1162.92 1144.94 1156.46 Q1144.94 1150 1142.26 1146.34 Q1139.59 1142.65 1134.94 1142.65 Q1130.3 1142.65 1127.62 1146.34 Q1124.98 1150 1124.98 1156.46 Z" fill="#000000" fill-rule="evenodd" fill-opacity="1" /><path clip-path="url(#clip460)" d="M1179.06 1156.33 Q1171.96 1156.33 1169.22 1157.96 Q1166.49 1159.58 1166.49 1163.49 Q1166.49 1166.61 1168.52 1168.46 Q1170.59 1170.27 1174.12 1170.27 Q1178.99 1170.27 1181.92 1166.84 Q1184.88 1163.37 1184.88 1157.64 L1184.88 1156.33 L1179.06 1156.33 M1190.74 1153.91 L1190.74 1174.25 L1184.88 1174.25 L1184.88 1168.84 Q1182.88 1172.09 1179.89 1173.65 Q1176.89 1175.17 1172.57 1175.17 Q1167.09 1175.17 1163.84 1172.12 Q1160.63 1169.03 1160.63 1163.88 Q1160.63 1157.86 1164.64 1154.8 Q1168.68 1151.75 1176.67 1151.75 L1184.88 1151.75 L1184.88 1151.18 Q1184.88 1147.13 1182.21 1144.94 Q1179.57 1142.71 1174.76 1142.71 Q1171.71 1142.71 1168.81 1143.44 Q1165.91 1144.17 1163.24 1145.64 L1163.24 1140.23 Q1166.45 1138.99 1169.48 1138.38 Q1172.5 1137.74 1175.37 1137.74 Q1183.1 1137.74 1186.92 1141.75 Q1190.74 1145.77 1190.74 1153.91 Z" fill="#000000" fill-rule="evenodd" fill-opacity="1" /><path clip-path="url(#clip460)" d="M1217.63 1177.56 Q1215.15 1183.93 1212.8 1185.87 Q1210.44 1187.81 1206.49 1187.81 L1201.82 1187.81 L1201.82 1182.91 L1205.25 1182.91 Q1207.67 1182.91 1209.01 1181.76 Q1210.35 1180.62 1211.97 1176.35 L1213.02 1173.68 L1198.6 1138.6 L1204.81 1138.6 L1215.95 1166.49 L1227.09 1138.6 L1233.29 1138.6 L1217.63 1177.56 Z" fill="#000000" fill-rule="evenodd" fill-opacity="1" /><path clip-path="url(#clip460)" d="M1264.1 1139.65 L1264.1 1145.19 Q1261.62 1143.92 1258.95 1143.28 Q1256.27 1142.65 1253.41 1142.65 Q1249.05 1142.65 1246.85 1143.98 Q1244.69 1145.32 1244.69 1147.99 Q1244.69 1150.03 1246.25 1151.21 Q1247.81 1152.35 1252.52 1153.4 L1254.52 1153.85 Q1260.76 1155.19 1263.37 1157.64 Q1266.01 1160.06 1266.01 1164.42 Q1266.01 1169.38 1262.07 1172.28 Q1258.15 1175.17 1251.28 1175.17 Q1248.41 1175.17 1245.29 1174.6 Q1242.21 1174.06 1238.77 1172.95 L1238.77 1166.9 Q1242.01 1168.59 1245.17 1169.45 Q1248.32 1170.27 1251.4 1170.27 Q1255.54 1170.27 1257.77 1168.87 Q1260 1167.44 1260 1164.86 Q1260 1162.48 1258.37 1161.2 Q1256.78 1159.93 1251.34 1158.75 L1249.3 1158.27 Q1243.86 1157.13 1241.44 1154.77 Q1239.02 1152.39 1239.02 1148.25 Q1239.02 1143.22 1242.59 1140.48 Q1246.15 1137.74 1252.71 1137.74 Q1255.96 1137.74 1258.82 1138.22 Q1261.68 1138.7 1264.1 1139.65 Z" fill="#000000" fill-rule="evenodd" fill-opacity="1" /><polyline clip-path="url(#clip462)" style="stroke:#000000; stroke-linecap:round; stroke-linejoin:round; stroke-width:2; stroke-opacity:0.1; fill:none" points="
  168.015,1007.42 1952.76,1007.42 
  "/>
<polyline clip-path="url(#clip462)" style="stroke:#000000; stroke-linecap:round; stroke-linejoin:round; stroke-width:2; stroke-opacity:0.1; fill:none" points="
  168.015,762.747 1952.76,762.747 
  "/>
<polyline clip-path="url(#clip462)" style="stroke:#000000; stroke-linecap:round; stroke-linejoin:round; stroke-width:2; stroke-opacity:0.1; fill:none" points="
  168.015,518.072 1952.76,518.072 
  "/>
<polyline clip-path="url(#clip462)" style="stroke:#000000; stroke-linecap:round; stroke-linejoin:round; stroke-width:2; stroke-opacity:0.1; fill:none" points="
  168.015,273.397 1952.76,273.397 
  "/>
<polyline clip-path="url(#clip460)" style="stroke:#000000; stroke-linecap:round; stroke-linejoin:round; stroke-width:4; stroke-opacity:1; fill:none" points="
  168.015,1035.39 168.015,47.2441 
  "/>
<polyline clip-path="url(#clip460)" style="stroke:#000000; stroke-linecap:round; stroke-linejoin:round; stroke-width:4; stroke-opacity:1; fill:none" points="
  168.015,1007.42 186.912,1007.42 
  "/>
<polyline clip-path="url(#clip460)" style="stroke:#000000; stroke-linecap:round; stroke-linejoin:round; stroke-width:4; stroke-opacity:1; fill:none" points="
  168.015,762.747 186.912,762.747 
  "/>
<polyline clip-path="url(#clip460)" style="stroke:#000000; stroke-linecap:round; stroke-linejoin:round; stroke-width:4; stroke-opacity:1; fill:none" points="
  168.015,518.072 186.912,518.072 
  "/>
<polyline clip-path="url(#clip460)" style="stroke:#000000; stroke-linecap:round; stroke-linejoin:round; stroke-width:4; stroke-opacity:1; fill:none" points="
  168.015,273.397 186.912,273.397 
  "/>
<path clip-path="url(#clip460)" d="M126.07 993.22 Q122.459 993.22 120.631 996.785 Q118.825 1000.33 118.825 1007.46 Q118.825 1014.56 120.631 1018.13 Q122.459 1021.67 126.07 1021.67 Q129.705 1021.67 131.51 1018.13 Q133.339 1014.56 133.339 1007.46 Q133.339 1000.33 131.51 996.785 Q129.705 993.22 126.07 993.22 M126.07 989.517 Q131.881 989.517 134.936 994.123 Q138.015 998.706 138.015 1007.46 Q138.015 1016.18 134.936 1020.79 Q131.881 1025.37 126.07 1025.37 Q120.26 1025.37 117.182 1020.79 Q114.126 1016.18 114.126 1007.46 Q114.126 998.706 117.182 994.123 Q120.26 989.517 126.07 989.517 Z" fill="#000000" fill-rule="evenodd" fill-opacity="1" /><path clip-path="url(#clip460)" d="M59.7745 776.092 L76.0939 776.092 L76.0939 780.027 L54.1495 780.027 L54.1495 776.092 Q56.8115 773.337 61.3949 768.707 Q66.0013 764.055 67.1819 762.712 Q69.4272 760.189 70.3068 758.453 Q71.2096 756.693 71.2096 755.004 Q71.2096 752.249 69.2652 750.513 Q67.3439 748.777 64.2421 748.777 Q62.043 748.777 59.5893 749.541 Q57.1588 750.305 54.381 751.856 L54.381 747.133 Q57.2051 745.999 59.6588 745.42 Q62.1124 744.842 64.1495 744.842 Q69.5198 744.842 72.7142 747.527 Q75.9087 750.212 75.9087 754.703 Q75.9087 756.832 75.0985 758.754 Q74.3115 760.652 72.205 763.244 Q71.6263 763.916 68.5245 767.133 Q65.4226 770.328 59.7745 776.092 Z" fill="#000000" fill-rule="evenodd" fill-opacity="1" /><path clip-path="url(#clip460)" d="M95.9086 748.545 Q92.2975 748.545 90.4688 752.11 Q88.6632 755.652 88.6632 762.781 Q88.6632 769.888 90.4688 773.453 Q92.2975 776.994 95.9086 776.994 Q99.5428 776.994 101.348 773.453 Q103.177 769.888 103.177 762.781 Q103.177 755.652 101.348 752.11 Q99.5428 748.545 95.9086 748.545 M95.9086 744.842 Q101.719 744.842 104.774 749.448 Q107.853 754.031 107.853 762.781 Q107.853 771.508 104.774 776.115 Q101.719 780.698 95.9086 780.698 Q90.0984 780.698 87.0197 776.115 Q83.9642 771.508 83.9642 762.781 Q83.9642 754.031 87.0197 749.448 Q90.0984 744.842 95.9086 744.842 Z" fill="#000000" fill-rule="evenodd" fill-opacity="1" /><path clip-path="url(#clip460)" d="M126.07 748.545 Q122.459 748.545 120.631 752.11 Q118.825 755.652 118.825 762.781 Q118.825 769.888 120.631 773.453 Q122.459 776.994 126.07 776.994 Q129.705 776.994 131.51 773.453 Q133.339 769.888 133.339 762.781 Q133.339 755.652 131.51 752.11 Q129.705 748.545 126.07 748.545 M126.07 744.842 Q131.881 744.842 134.936 749.448 Q138.015 754.031 138.015 762.781 Q138.015 771.508 134.936 776.115 Q131.881 780.698 126.07 780.698 Q120.26 780.698 117.182 776.115 Q114.126 771.508 114.126 762.781 Q114.126 754.031 117.182 749.448 Q120.26 744.842 126.07 744.842 Z" fill="#000000" fill-rule="evenodd" fill-opacity="1" /><path clip-path="url(#clip460)" d="M68.5939 504.866 L56.7884 523.315 L68.5939 523.315 L68.5939 504.866 M67.367 500.792 L73.2466 500.792 L73.2466 523.315 L78.1772 523.315 L78.1772 527.204 L73.2466 527.204 L73.2466 535.352 L68.5939 535.352 L68.5939 527.204 L52.9921 527.204 L52.9921 522.69 L67.367 500.792 Z" fill="#000000" fill-rule="evenodd" fill-opacity="1" /><path clip-path="url(#clip460)" d="M95.9086 503.871 Q92.2975 503.871 90.4688 507.435 Q88.6632 510.977 88.6632 518.107 Q88.6632 525.213 90.4688 528.778 Q92.2975 532.319 95.9086 532.319 Q99.5428 532.319 101.348 528.778 Q103.177 525.213 103.177 518.107 Q103.177 510.977 101.348 507.435 Q99.5428 503.871 95.9086 503.871 M95.9086 500.167 Q101.719 500.167 104.774 504.773 Q107.853 509.357 107.853 518.107 Q107.853 526.833 104.774 531.44 Q101.719 536.023 95.9086 536.023 Q90.0984 536.023 87.0197 531.44 Q83.9642 526.833 83.9642 518.107 Q83.9642 509.357 87.0197 504.773 Q90.0984 500.167 95.9086 500.167 Z" fill="#000000" fill-rule="evenodd" fill-opacity="1" /><path clip-path="url(#clip460)" d="M126.07 503.871 Q122.459 503.871 120.631 507.435 Q118.825 510.977 118.825 518.107 Q118.825 525.213 120.631 528.778 Q122.459 532.319 126.07 532.319 Q129.705 532.319 131.51 528.778 Q133.339 525.213 133.339 518.107 Q133.339 510.977 131.51 507.435 Q129.705 503.871 126.07 503.871 M126.07 500.167 Q131.881 500.167 134.936 504.773 Q138.015 509.357 138.015 518.107 Q138.015 526.833 134.936 531.44 Q131.881 536.023 126.07 536.023 Q120.26 536.023 117.182 531.44 Q114.126 526.833 114.126 518.107 Q114.126 509.357 117.182 504.773 Q120.26 500.167 126.07 500.167 Z" fill="#000000" fill-rule="evenodd" fill-opacity="1" /><path clip-path="url(#clip460)" d="M66.3254 271.534 Q63.1773 271.534 61.3254 273.686 Q59.4967 275.839 59.4967 279.589 Q59.4967 283.316 61.3254 285.492 Q63.1773 287.645 66.3254 287.645 Q69.4735 287.645 71.3022 285.492 Q73.1541 283.316 73.1541 279.589 Q73.1541 275.839 71.3022 273.686 Q69.4735 271.534 66.3254 271.534 M75.6077 256.881 L75.6077 261.14 Q73.8485 260.307 72.0429 259.867 Q70.2606 259.427 68.5013 259.427 Q63.8717 259.427 61.418 262.552 Q58.9875 265.677 58.6402 271.997 Q60.006 269.983 62.0662 268.918 Q64.1263 267.83 66.6032 267.83 Q71.8115 267.83 74.8207 271.001 Q77.8531 274.149 77.8531 279.589 Q77.8531 284.913 74.705 288.131 Q71.5568 291.348 66.3254 291.348 Q60.33 291.348 57.1588 286.765 Q53.9875 282.159 53.9875 273.432 Q53.9875 265.237 57.8764 260.376 Q61.7652 255.492 68.3161 255.492 Q70.0754 255.492 71.8578 255.839 Q73.6633 256.186 75.6077 256.881 Z" fill="#000000" fill-rule="evenodd" fill-opacity="1" /><path clip-path="url(#clip460)" d="M95.9086 259.196 Q92.2975 259.196 90.4688 262.761 Q88.6632 266.302 88.6632 273.432 Q88.6632 280.538 90.4688 284.103 Q92.2975 287.645 95.9086 287.645 Q99.5428 287.645 101.348 284.103 Q103.177 280.538 103.177 273.432 Q103.177 266.302 101.348 262.761 Q99.5428 259.196 95.9086 259.196 M95.9086 255.492 Q101.719 255.492 104.774 260.098 Q107.853 264.682 107.853 273.432 Q107.853 282.159 104.774 286.765 Q101.719 291.348 95.9086 291.348 Q90.0984 291.348 87.0197 286.765 Q83.9642 282.159 83.9642 273.432 Q83.9642 264.682 87.0197 260.098 Q90.0984 255.492 95.9086 255.492 Z" fill="#000000" fill-rule="evenodd" fill-opacity="1" /><path clip-path="url(#clip460)" d="M126.07 259.196 Q122.459 259.196 120.631 262.761 Q118.825 266.302 118.825 273.432 Q118.825 280.538 120.631 284.103 Q122.459 287.645 126.07 287.645 Q129.705 287.645 131.51 284.103 Q133.339 280.538 133.339 273.432 Q133.339 266.302 131.51 262.761 Q129.705 259.196 126.07 259.196 M126.07 255.492 Q131.881 255.492 134.936 260.098 Q138.015 264.682 138.015 273.432 Q138.015 282.159 134.936 286.765 Q131.881 291.348 126.07 291.348 Q120.26 291.348 117.182 286.765 Q114.126 282.159 114.126 273.432 Q114.126 264.682 117.182 260.098 Q120.26 255.492 126.07 255.492 Z" fill="#000000" fill-rule="evenodd" fill-opacity="1" /><polyline clip-path="url(#clip462)" style="stroke:#009af9; stroke-linecap:round; stroke-linejoin:round; stroke-width:8; stroke-opacity:0.5; fill:none" points="
  168.015,75.2104 295.496,82.1738 422.978,103.538 550.459,174.194 677.941,368.61 805.422,696.169 932.904,927.832 1060.39,993.215 1187.87,1004.61 1315.35,1006.65 
  1442.83,1007.12 1570.31,1007.27 1697.79,1007.32 1825.27,1007.35 1952.76,1007.36 
  "/>
<polyline clip-path="url(#clip462)" style="stroke:#e26f46; stroke-linecap:round; stroke-linejoin:round; stroke-width:8; stroke-opacity:0.5; fill:none" points="
  168.015,1007.42 295.496,1002.37 422.978,989.264 550.459,946.963 677.941,838.896 805.422,704.157 932.904,721.029 1060.39,838.338 1187.87,924.471 1315.35,968.884 
  1442.83,989.807 1570.31,999.414 1697.79,1003.79 1825.27,1005.77 1952.76,1006.67 
  "/>
<polyline clip-path="url(#clip462)" style="stroke:#3da44d; stroke-linecap:round; stroke-linejoin:round; stroke-width:8; stroke-opacity:0.5; fill:none" points="
  168.015,1006.2 295.496,1004.98 422.978,998.909 550.459,978.151 677.941,916.603 805.422,790.904 932.904,669.695 1060.39,647.84 1187.87,701.666 1315.35,776.111 
  1442.83,843.199 1570.31,895.084 1697.79,932.329 1825.27,957.969 1952.76,975.176 
  "/>
<polyline clip-path="url(#clip462)" style="stroke:#c271d2; stroke-linecap:round; stroke-linejoin:round; stroke-width:8; stroke-opacity:0.5; fill:none" points="
  168.015,1007.42 295.496,1006.72 422.978,1004.54 550.459,996.943 677.941,972.143 805.422,905.022 932.904,777.695 1060.39,616.859 1187.87,465.503 1315.35,344.605 
  1442.83,256.122 1570.31,194.485 1697.79,152.812 1825.27,125.162 1952.76,107.043 
  "/>
<circle clip-path="url(#clip462)" cx="295.496" cy="1003.75" r="14.4" fill="#000000" fill-rule="evenodd" fill-opacity="1" stroke="none"/>
<circle clip-path="url(#clip462)" cx="422.978" cy="997.635" r="14.4" fill="#000000" fill-rule="evenodd" fill-opacity="1" stroke="none"/>
<circle clip-path="url(#clip462)" cx="550.459" cy="975.614" r="14.4" fill="#000000" fill-rule="evenodd" fill-opacity="1" stroke="none"/>
<circle clip-path="url(#clip462)" cx="677.941" cy="914.445" r="14.4" fill="#000000" fill-rule="evenodd" fill-opacity="1" stroke="none"/>
<circle clip-path="url(#clip462)" cx="805.422" cy="732.162" r="14.4" fill="#000000" fill-rule="evenodd" fill-opacity="1" stroke="none"/>
<circle clip-path="url(#clip462)" cx="932.904" cy="642.856" r="14.4" fill="#000000" fill-rule="evenodd" fill-opacity="1" stroke="none"/>
<circle clip-path="url(#clip462)" cx="1060.39" cy="691.791" r="14.4" fill="#000000" fill-rule="evenodd" fill-opacity="1" stroke="none"/>
<circle clip-path="url(#clip462)" cx="1187.87" cy="722.375" r="14.4" fill="#000000" fill-rule="evenodd" fill-opacity="1" stroke="none"/>
<circle clip-path="url(#clip462)" cx="1315.35" cy="776.204" r="14.4" fill="#000000" fill-rule="evenodd" fill-opacity="1" stroke="none"/>
<circle clip-path="url(#clip462)" cx="1442.83" cy="850.83" r="14.4" fill="#000000" fill-rule="evenodd" fill-opacity="1" stroke="none"/>
<circle clip-path="url(#clip462)" cx="1570.31" cy="924.232" r="14.4" fill="#000000" fill-rule="evenodd" fill-opacity="1" stroke="none"/>
<circle clip-path="url(#clip462)" cx="1697.79" cy="971.944" r="14.4" fill="#000000" fill-rule="evenodd" fill-opacity="1" stroke="none"/>
<circle clip-path="url(#clip462)" cx="1825.27" cy="990.294" r="14.4" fill="#000000" fill-rule="evenodd" fill-opacity="1" stroke="none"/>
<circle clip-path="url(#clip462)" cx="1952.76" cy="1002.53" r="14.4" fill="#000000" fill-rule="evenodd" fill-opacity="1" stroke="none"/>
<path clip-path="url(#clip460)" d="
M1446.09 391.222 L1893.26 391.222 L1893.26 80.1822 L1446.09 80.1822  Z
  " fill="#ffffff" fill-rule="evenodd" fill-opacity="1"/>
<polyline clip-path="url(#clip460)" style="stroke:#000000; stroke-linecap:round; stroke-linejoin:round; stroke-width:4; stroke-opacity:1; fill:none" points="
  1446.09,391.222 1893.26,391.222 1893.26,80.1822 1446.09,80.1822 1446.09,391.222 
  "/>
<polyline clip-path="url(#clip460)" style="stroke:#009af9; stroke-linecap:round; stroke-linejoin:round; stroke-width:8; stroke-opacity:0.5; fill:none" points="
  1465.92,132.022 1584.9,132.022 
  "/>
<path clip-path="url(#clip460)" d="M1626.98 115.876 L1626.98 120.437 Q1624.32 119.163 1621.95 118.538 Q1619.59 117.913 1617.39 117.913 Q1613.57 117.913 1611.49 119.395 Q1609.43 120.876 1609.43 123.608 Q1609.43 125.9 1610.8 127.08 Q1612.19 128.238 1616.03 128.955 L1618.85 129.534 Q1624.08 130.529 1626.56 133.052 Q1629.06 135.552 1629.06 139.765 Q1629.06 144.788 1625.68 147.381 Q1622.32 149.974 1615.82 149.974 Q1613.37 149.974 1610.59 149.418 Q1607.83 148.862 1604.87 147.774 L1604.87 142.96 Q1607.72 144.557 1610.45 145.367 Q1613.18 146.177 1615.82 146.177 Q1619.82 146.177 1622 144.603 Q1624.18 143.029 1624.18 140.112 Q1624.18 137.566 1622.6 136.131 Q1621.05 134.696 1617.49 133.978 L1614.64 133.423 Q1609.41 132.381 1607.07 130.159 Q1604.73 127.937 1604.73 123.978 Q1604.73 119.395 1607.95 116.756 Q1611.19 114.117 1616.86 114.117 Q1619.29 114.117 1621.82 114.557 Q1624.34 114.997 1626.98 115.876 Z" fill="#000000" fill-rule="evenodd" fill-opacity="1" /><path clip-path="url(#clip460)" d="M1635.73 139.071 L1635.73 123.376 L1639.99 123.376 L1639.99 138.909 Q1639.99 142.589 1641.42 144.441 Q1642.86 146.27 1645.73 146.27 Q1649.18 146.27 1651.17 144.071 Q1653.18 141.872 1653.18 138.075 L1653.18 123.376 L1657.44 123.376 L1657.44 149.302 L1653.18 149.302 L1653.18 145.321 Q1651.63 147.682 1649.57 148.839 Q1647.53 149.974 1644.82 149.974 Q1640.36 149.974 1638.04 147.196 Q1635.73 144.418 1635.73 139.071 M1646.44 122.751 L1646.44 122.751 Z" fill="#000000" fill-rule="evenodd" fill-opacity="1" /><path clip-path="url(#clip460)" d="M1682.74 124.14 L1682.74 128.168 Q1680.94 127.242 1678.99 126.779 Q1677.05 126.316 1674.96 126.316 Q1671.79 126.316 1670.19 127.288 Q1668.62 128.261 1668.62 130.205 Q1668.62 131.687 1669.75 132.543 Q1670.89 133.376 1674.31 134.14 L1675.77 134.464 Q1680.31 135.437 1682.21 137.219 Q1684.13 138.978 1684.13 142.149 Q1684.13 145.761 1681.26 147.867 Q1678.41 149.974 1673.41 149.974 Q1671.33 149.974 1669.06 149.557 Q1666.81 149.163 1664.31 148.353 L1664.31 143.955 Q1666.68 145.182 1668.97 145.807 Q1671.26 146.409 1673.5 146.409 Q1676.51 146.409 1678.13 145.39 Q1679.75 144.349 1679.75 142.474 Q1679.75 140.737 1678.57 139.812 Q1677.42 138.886 1673.46 138.029 L1671.98 137.682 Q1668.02 136.849 1666.26 135.136 Q1664.5 133.4 1664.5 130.39 Q1664.5 126.733 1667.09 124.742 Q1669.69 122.751 1674.45 122.751 Q1676.81 122.751 1678.9 123.099 Q1680.98 123.446 1682.74 124.14 Z" fill="#000000" fill-rule="evenodd" fill-opacity="1" /><path clip-path="url(#clip460)" d="M1695.03 145.413 L1695.03 159.163 L1690.75 159.163 L1690.75 123.376 L1695.03 123.376 L1695.03 127.312 Q1696.37 124.997 1698.41 123.886 Q1700.47 122.751 1703.32 122.751 Q1708.04 122.751 1710.98 126.501 Q1713.94 130.251 1713.94 136.362 Q1713.94 142.474 1710.98 146.224 Q1708.04 149.974 1703.32 149.974 Q1700.47 149.974 1698.41 148.862 Q1696.37 147.728 1695.03 145.413 M1709.52 136.362 Q1709.52 131.663 1707.58 129.001 Q1705.66 126.316 1702.28 126.316 Q1698.9 126.316 1696.95 129.001 Q1695.03 131.663 1695.03 136.362 Q1695.03 141.062 1696.95 143.747 Q1698.9 146.409 1702.28 146.409 Q1705.66 146.409 1707.58 143.747 Q1709.52 141.062 1709.52 136.362 Z" fill="#000000" fill-rule="evenodd" fill-opacity="1" /><path clip-path="url(#clip460)" d="M1743.18 135.275 L1743.18 137.358 L1723.6 137.358 Q1723.87 141.756 1726.24 144.071 Q1728.62 146.362 1732.86 146.362 Q1735.31 146.362 1737.6 145.761 Q1739.92 145.159 1742.18 143.955 L1742.18 147.983 Q1739.89 148.955 1737.49 149.464 Q1735.08 149.974 1732.6 149.974 Q1726.4 149.974 1722.76 146.362 Q1719.15 142.751 1719.15 136.594 Q1719.15 130.228 1722.58 126.501 Q1726.03 122.751 1731.86 122.751 Q1737.09 122.751 1740.12 126.131 Q1743.18 129.488 1743.18 135.275 M1738.92 134.025 Q1738.87 130.529 1736.95 128.446 Q1735.06 126.363 1731.91 126.363 Q1728.34 126.363 1726.19 128.376 Q1724.06 130.39 1723.74 134.048 L1738.92 134.025 Z" fill="#000000" fill-rule="evenodd" fill-opacity="1" /><path clip-path="url(#clip460)" d="M1768.83 124.372 L1768.83 128.353 Q1767.02 127.358 1765.19 126.872 Q1763.39 126.363 1761.54 126.363 Q1757.39 126.363 1755.1 129.001 Q1752.81 131.617 1752.81 136.362 Q1752.81 141.108 1755.1 143.747 Q1757.39 146.362 1761.54 146.362 Q1763.39 146.362 1765.19 145.876 Q1767.02 145.367 1768.83 144.372 L1768.83 148.307 Q1767.05 149.14 1765.12 149.557 Q1763.23 149.974 1761.07 149.974 Q1755.22 149.974 1751.77 146.293 Q1748.32 142.612 1748.32 136.362 Q1748.32 130.02 1751.79 126.386 Q1755.29 122.751 1761.35 122.751 Q1763.32 122.751 1765.19 123.168 Q1767.07 123.562 1768.83 124.372 Z" fill="#000000" fill-rule="evenodd" fill-opacity="1" /><path clip-path="url(#clip460)" d="M1780.45 116.015 L1780.45 123.376 L1789.22 123.376 L1789.22 126.687 L1780.45 126.687 L1780.45 140.761 Q1780.45 143.932 1781.3 144.835 Q1782.18 145.737 1784.85 145.737 L1789.22 145.737 L1789.22 149.302 L1784.85 149.302 Q1779.92 149.302 1778.04 147.474 Q1776.17 145.622 1776.17 140.761 L1776.17 126.687 L1773.04 126.687 L1773.04 123.376 L1776.17 123.376 L1776.17 116.015 L1780.45 116.015 Z" fill="#000000" fill-rule="evenodd" fill-opacity="1" /><path clip-path="url(#clip460)" d="M1794.82 123.376 L1799.08 123.376 L1799.08 149.302 L1794.82 149.302 L1794.82 123.376 M1794.82 113.284 L1799.08 113.284 L1799.08 118.677 L1794.82 118.677 L1794.82 113.284 Z" fill="#000000" fill-rule="evenodd" fill-opacity="1" /><path clip-path="url(#clip460)" d="M1826.61 136.362 Q1826.61 131.663 1824.66 129.001 Q1822.74 126.316 1819.36 126.316 Q1815.98 126.316 1814.04 129.001 Q1812.11 131.663 1812.11 136.362 Q1812.11 141.062 1814.04 143.747 Q1815.98 146.409 1819.36 146.409 Q1822.74 146.409 1824.66 143.747 Q1826.61 141.062 1826.61 136.362 M1812.11 127.312 Q1813.46 124.997 1815.49 123.886 Q1817.55 122.751 1820.4 122.751 Q1825.12 122.751 1828.06 126.501 Q1831.03 130.251 1831.03 136.362 Q1831.03 142.474 1828.06 146.224 Q1825.12 149.974 1820.4 149.974 Q1817.55 149.974 1815.49 148.862 Q1813.46 147.728 1812.11 145.413 L1812.11 149.302 L1807.83 149.302 L1807.83 113.284 L1812.11 113.284 L1812.11 127.312 Z" fill="#000000" fill-rule="evenodd" fill-opacity="1" /><path clip-path="url(#clip460)" d="M1838.09 113.284 L1842.35 113.284 L1842.35 149.302 L1838.09 149.302 L1838.09 113.284 Z" fill="#000000" fill-rule="evenodd" fill-opacity="1" /><path clip-path="url(#clip460)" d="M1873.43 135.275 L1873.43 137.358 L1853.85 137.358 Q1854.13 141.756 1856.49 144.071 Q1858.87 146.362 1863.11 146.362 Q1865.56 146.362 1867.86 145.761 Q1870.17 145.159 1872.44 143.955 L1872.44 147.983 Q1870.15 148.955 1867.74 149.464 Q1865.33 149.974 1862.86 149.974 Q1856.65 149.974 1853.02 146.362 Q1849.41 142.751 1849.41 136.594 Q1849.41 130.228 1852.83 126.501 Q1856.28 122.751 1862.11 122.751 Q1867.35 122.751 1870.38 126.131 Q1873.43 129.488 1873.43 135.275 M1869.17 134.025 Q1869.13 130.529 1867.21 128.446 Q1865.31 126.363 1862.16 126.363 Q1858.6 126.363 1856.44 128.376 Q1854.31 130.39 1853.99 134.048 L1869.17 134.025 Z" fill="#000000" fill-rule="evenodd" fill-opacity="1" /><polyline clip-path="url(#clip460)" style="stroke:#e26f46; stroke-linecap:round; stroke-linejoin:round; stroke-width:8; stroke-opacity:0.5; fill:none" points="
  1465.92,183.862 1584.9,183.862 
  "/>
<path clip-path="url(#clip460)" d="M1604.73 166.582 L1609.41 166.582 L1609.41 201.142 L1604.73 201.142 L1604.73 166.582 Z" fill="#000000" fill-rule="evenodd" fill-opacity="1" /><path clip-path="url(#clip460)" d="M1640.08 185.494 L1640.08 201.142 L1635.82 201.142 L1635.82 185.633 Q1635.82 181.953 1634.38 180.124 Q1632.95 178.295 1630.08 178.295 Q1626.63 178.295 1624.64 180.494 Q1622.65 182.693 1622.65 186.49 L1622.65 201.142 L1618.37 201.142 L1618.37 175.216 L1622.65 175.216 L1622.65 179.244 Q1624.18 176.906 1626.24 175.749 Q1628.32 174.591 1631.03 174.591 Q1635.5 174.591 1637.79 177.369 Q1640.08 180.124 1640.08 185.494 Z" fill="#000000" fill-rule="evenodd" fill-opacity="1" /><path clip-path="url(#clip460)" d="M1661.7 165.124 L1661.7 168.666 L1657.63 168.666 Q1655.33 168.666 1654.43 169.591 Q1653.55 170.517 1653.55 172.925 L1653.55 175.216 L1660.56 175.216 L1660.56 178.527 L1653.55 178.527 L1653.55 201.142 L1649.27 201.142 L1649.27 178.527 L1645.19 178.527 L1645.19 175.216 L1649.27 175.216 L1649.27 173.411 Q1649.27 169.082 1651.28 167.115 Q1653.3 165.124 1657.67 165.124 L1661.7 165.124 Z" fill="#000000" fill-rule="evenodd" fill-opacity="1" /><path clip-path="url(#clip460)" d="M1687.44 187.115 L1687.44 189.198 L1667.86 189.198 Q1668.13 193.596 1670.5 195.911 Q1672.88 198.202 1677.12 198.202 Q1679.57 198.202 1681.86 197.601 Q1684.18 196.999 1686.44 195.795 L1686.44 199.823 Q1684.15 200.795 1681.75 201.304 Q1679.34 201.814 1676.86 201.814 Q1670.66 201.814 1667.02 198.202 Q1663.41 194.591 1663.41 188.434 Q1663.41 182.068 1666.84 178.341 Q1670.29 174.591 1676.12 174.591 Q1681.35 174.591 1684.38 177.971 Q1687.44 181.328 1687.44 187.115 M1683.18 185.865 Q1683.13 182.369 1681.21 180.286 Q1679.31 178.203 1676.17 178.203 Q1672.6 178.203 1670.45 180.216 Q1668.32 182.23 1668 185.888 L1683.18 185.865 Z" fill="#000000" fill-rule="evenodd" fill-opacity="1" /><path clip-path="url(#clip460)" d="M1713.09 176.212 L1713.09 180.193 Q1711.28 179.198 1709.45 178.712 Q1707.65 178.203 1705.8 178.203 Q1701.65 178.203 1699.36 180.841 Q1697.07 183.457 1697.07 188.202 Q1697.07 192.948 1699.36 195.587 Q1701.65 198.202 1705.8 198.202 Q1707.65 198.202 1709.45 197.716 Q1711.28 197.207 1713.09 196.212 L1713.09 200.147 Q1711.31 200.98 1709.38 201.397 Q1707.49 201.814 1705.33 201.814 Q1699.48 201.814 1696.03 198.133 Q1692.58 194.452 1692.58 188.202 Q1692.58 181.86 1696.05 178.226 Q1699.55 174.591 1705.61 174.591 Q1707.58 174.591 1709.45 175.008 Q1711.33 175.402 1713.09 176.212 Z" fill="#000000" fill-rule="evenodd" fill-opacity="1" /><path clip-path="url(#clip460)" d="M1724.71 167.855 L1724.71 175.216 L1733.48 175.216 L1733.48 178.527 L1724.71 178.527 L1724.71 192.601 Q1724.71 195.772 1725.56 196.675 Q1726.44 197.577 1729.11 197.577 L1733.48 197.577 L1733.48 201.142 L1729.11 201.142 Q1724.18 201.142 1722.3 199.314 Q1720.43 197.462 1720.43 192.601 L1720.43 178.527 L1717.3 178.527 L1717.3 175.216 L1720.43 175.216 L1720.43 167.855 L1724.71 167.855 Z" fill="#000000" fill-rule="evenodd" fill-opacity="1" /><path clip-path="url(#clip460)" d="M1761.26 187.115 L1761.26 189.198 L1741.68 189.198 Q1741.95 193.596 1744.31 195.911 Q1746.7 198.202 1750.93 198.202 Q1753.39 198.202 1755.68 197.601 Q1757.99 196.999 1760.26 195.795 L1760.26 199.823 Q1757.97 200.795 1755.56 201.304 Q1753.16 201.814 1750.68 201.814 Q1744.48 201.814 1740.84 198.202 Q1737.23 194.591 1737.23 188.434 Q1737.23 182.068 1740.66 178.341 Q1744.11 174.591 1749.94 174.591 Q1755.17 174.591 1758.2 177.971 Q1761.26 181.328 1761.26 187.115 M1757 185.865 Q1756.95 182.369 1755.03 180.286 Q1753.13 178.203 1749.99 178.203 Q1746.42 178.203 1744.27 180.216 Q1742.14 182.23 1741.81 185.888 L1757 185.865 Z" fill="#000000" fill-rule="evenodd" fill-opacity="1" /><path clip-path="url(#clip460)" d="M1785.31 179.152 L1785.31 165.124 L1789.57 165.124 L1789.57 201.142 L1785.31 201.142 L1785.31 197.253 Q1783.97 199.568 1781.91 200.702 Q1779.87 201.814 1777 201.814 Q1772.3 201.814 1769.34 198.064 Q1766.4 194.314 1766.4 188.202 Q1766.4 182.091 1769.34 178.341 Q1772.3 174.591 1777 174.591 Q1779.87 174.591 1781.91 175.726 Q1783.97 176.837 1785.31 179.152 M1770.8 188.202 Q1770.8 192.902 1772.72 195.587 Q1774.66 198.249 1778.04 198.249 Q1781.42 198.249 1783.37 195.587 Q1785.31 192.902 1785.31 188.202 Q1785.31 183.503 1783.37 180.841 Q1781.42 178.156 1778.04 178.156 Q1774.66 178.156 1772.72 180.841 Q1770.8 183.503 1770.8 188.202 Z" fill="#000000" fill-rule="evenodd" fill-opacity="1" /><polyline clip-path="url(#clip460)" style="stroke:#3da44d; stroke-linecap:round; stroke-linejoin:round; stroke-width:8; stroke-opacity:0.5; fill:none" points="
  1465.92,235.702 1584.9,235.702 
  "/>
<path clip-path="url(#clip460)" d="M1621.12 236.779 Q1622.63 237.288 1624.04 238.955 Q1625.47 240.621 1626.91 243.538 L1631.65 252.982 L1626.63 252.982 L1622.21 244.117 Q1620.5 240.644 1618.88 239.51 Q1617.28 238.376 1614.5 238.376 L1609.41 238.376 L1609.41 252.982 L1604.73 252.982 L1604.73 218.422 L1615.29 218.422 Q1621.21 218.422 1624.13 220.899 Q1627.05 223.376 1627.05 228.376 Q1627.05 231.64 1625.52 233.793 Q1624.01 235.945 1621.12 236.779 M1609.41 222.265 L1609.41 234.533 L1615.29 234.533 Q1618.67 234.533 1620.38 232.982 Q1622.12 231.408 1622.12 228.376 Q1622.12 225.343 1620.38 223.816 Q1618.67 222.265 1615.29 222.265 L1609.41 222.265 Z" fill="#000000" fill-rule="evenodd" fill-opacity="1" /><path clip-path="url(#clip460)" d="M1657.53 238.955 L1657.53 241.038 L1637.95 241.038 Q1638.23 245.436 1640.59 247.751 Q1642.97 250.042 1647.21 250.042 Q1649.66 250.042 1651.95 249.441 Q1654.27 248.839 1656.54 247.635 L1656.54 251.663 Q1654.25 252.635 1651.84 253.144 Q1649.43 253.654 1646.95 253.654 Q1640.75 253.654 1637.12 250.042 Q1633.5 246.431 1633.5 240.274 Q1633.5 233.908 1636.93 230.181 Q1640.38 226.431 1646.21 226.431 Q1651.44 226.431 1654.48 229.811 Q1657.53 233.168 1657.53 238.955 M1653.27 237.705 Q1653.23 234.209 1651.31 232.126 Q1649.41 230.043 1646.26 230.043 Q1642.69 230.043 1640.54 232.056 Q1638.41 234.07 1638.09 237.728 L1653.27 237.705 Z" fill="#000000" fill-rule="evenodd" fill-opacity="1" /><path clip-path="url(#clip460)" d="M1683.18 228.052 L1683.18 232.033 Q1681.37 231.038 1679.55 230.552 Q1677.74 230.043 1675.89 230.043 Q1671.75 230.043 1669.45 232.681 Q1667.16 235.297 1667.16 240.042 Q1667.16 244.788 1669.45 247.427 Q1671.75 250.042 1675.89 250.042 Q1677.74 250.042 1679.55 249.556 Q1681.37 249.047 1683.18 248.052 L1683.18 251.987 Q1681.4 252.82 1679.48 253.237 Q1677.58 253.654 1675.43 253.654 Q1669.57 253.654 1666.12 249.973 Q1662.67 246.292 1662.67 240.042 Q1662.67 233.7 1666.14 230.066 Q1669.64 226.431 1675.7 226.431 Q1677.67 226.431 1679.55 226.848 Q1681.42 227.242 1683.18 228.052 Z" fill="#000000" fill-rule="evenodd" fill-opacity="1" /><path clip-path="url(#clip460)" d="M1700.63 230.043 Q1697.21 230.043 1695.22 232.728 Q1693.23 235.39 1693.23 240.042 Q1693.23 244.695 1695.19 247.38 Q1697.19 250.042 1700.63 250.042 Q1704.04 250.042 1706.03 247.357 Q1708.02 244.672 1708.02 240.042 Q1708.02 235.436 1706.03 232.751 Q1704.04 230.043 1700.63 230.043 M1700.63 226.431 Q1706.19 226.431 1709.36 230.043 Q1712.53 233.654 1712.53 240.042 Q1712.53 246.408 1709.36 250.042 Q1706.19 253.654 1700.63 253.654 Q1695.06 253.654 1691.88 250.042 Q1688.74 246.408 1688.74 240.042 Q1688.74 233.654 1691.88 230.043 Q1695.06 226.431 1700.63 226.431 Z" fill="#000000" fill-rule="evenodd" fill-opacity="1" /><path clip-path="url(#clip460)" d="M1716.54 227.056 L1721.05 227.056 L1729.15 248.816 L1737.25 227.056 L1741.77 227.056 L1732.05 252.982 L1726.26 252.982 L1716.54 227.056 Z" fill="#000000" fill-rule="evenodd" fill-opacity="1" /><path clip-path="url(#clip460)" d="M1769.82 238.955 L1769.82 241.038 L1750.24 241.038 Q1750.52 245.436 1752.88 247.751 Q1755.26 250.042 1759.5 250.042 Q1761.95 250.042 1764.24 249.441 Q1766.56 248.839 1768.83 247.635 L1768.83 251.663 Q1766.54 252.635 1764.13 253.144 Q1761.72 253.654 1759.24 253.654 Q1753.04 253.654 1749.41 250.042 Q1745.8 246.431 1745.8 240.274 Q1745.8 233.908 1749.22 230.181 Q1752.67 226.431 1758.5 226.431 Q1763.74 226.431 1766.77 229.811 Q1769.82 233.168 1769.82 238.955 M1765.56 237.705 Q1765.52 234.209 1763.6 232.126 Q1761.7 230.043 1758.55 230.043 Q1754.99 230.043 1752.83 232.056 Q1750.7 234.07 1750.38 237.728 L1765.56 237.705 Z" fill="#000000" fill-rule="evenodd" fill-opacity="1" /><path clip-path="url(#clip460)" d="M1791.84 231.038 Q1791.12 230.621 1790.26 230.436 Q1789.43 230.228 1788.41 230.228 Q1784.8 230.228 1782.86 232.589 Q1780.93 234.927 1780.93 239.325 L1780.93 252.982 L1776.65 252.982 L1776.65 227.056 L1780.93 227.056 L1780.93 231.084 Q1782.28 228.723 1784.43 227.589 Q1786.58 226.431 1789.66 226.431 Q1790.1 226.431 1790.63 226.501 Q1791.17 226.547 1791.81 226.663 L1791.84 231.038 Z" fill="#000000" fill-rule="evenodd" fill-opacity="1" /><path clip-path="url(#clip460)" d="M1817.44 238.955 L1817.44 241.038 L1797.86 241.038 Q1798.13 245.436 1800.49 247.751 Q1802.88 250.042 1807.11 250.042 Q1809.57 250.042 1811.86 249.441 Q1814.18 248.839 1816.44 247.635 L1816.44 251.663 Q1814.15 252.635 1811.74 253.144 Q1809.34 253.654 1806.86 253.654 Q1800.66 253.654 1797.02 250.042 Q1793.41 246.431 1793.41 240.274 Q1793.41 233.908 1796.84 230.181 Q1800.29 226.431 1806.12 226.431 Q1811.35 226.431 1814.38 229.811 Q1817.44 233.168 1817.44 238.955 M1813.18 237.705 Q1813.13 234.209 1811.21 232.126 Q1809.31 230.043 1806.17 230.043 Q1802.6 230.043 1800.45 232.056 Q1798.32 234.07 1797.99 237.728 L1813.18 237.705 Z" fill="#000000" fill-rule="evenodd" fill-opacity="1" /><path clip-path="url(#clip460)" d="M1841.49 230.992 L1841.49 216.964 L1845.75 216.964 L1845.75 252.982 L1841.49 252.982 L1841.49 249.093 Q1840.15 251.408 1838.09 252.542 Q1836.05 253.654 1833.18 253.654 Q1828.48 253.654 1825.52 249.904 Q1822.58 246.154 1822.58 240.042 Q1822.58 233.931 1825.52 230.181 Q1828.48 226.431 1833.18 226.431 Q1836.05 226.431 1838.09 227.566 Q1840.15 228.677 1841.49 230.992 M1826.98 240.042 Q1826.98 244.742 1828.9 247.427 Q1830.84 250.089 1834.22 250.089 Q1837.6 250.089 1839.55 247.427 Q1841.49 244.742 1841.49 240.042 Q1841.49 235.343 1839.55 232.681 Q1837.6 229.996 1834.22 229.996 Q1830.84 229.996 1828.9 232.681 Q1826.98 235.343 1826.98 240.042 Z" fill="#000000" fill-rule="evenodd" fill-opacity="1" /><polyline clip-path="url(#clip460)" style="stroke:#c271d2; stroke-linecap:round; stroke-linejoin:round; stroke-width:8; stroke-opacity:0.5; fill:none" points="
  1465.92,287.542 1584.9,287.542 
  "/>
<path clip-path="url(#clip460)" d="M1626.98 271.396 L1626.98 275.957 Q1624.32 274.683 1621.95 274.058 Q1619.59 273.433 1617.39 273.433 Q1613.57 273.433 1611.49 274.915 Q1609.43 276.396 1609.43 279.128 Q1609.43 281.42 1610.8 282.6 Q1612.19 283.758 1616.03 284.475 L1618.85 285.054 Q1624.08 286.049 1626.56 288.572 Q1629.06 291.072 1629.06 295.285 Q1629.06 300.308 1625.68 302.901 Q1622.32 305.494 1615.82 305.494 Q1613.37 305.494 1610.59 304.938 Q1607.83 304.382 1604.87 303.294 L1604.87 298.48 Q1607.72 300.077 1610.45 300.887 Q1613.18 301.697 1615.82 301.697 Q1619.82 301.697 1622 300.123 Q1624.18 298.549 1624.18 295.632 Q1624.18 293.086 1622.6 291.651 Q1621.05 290.216 1617.49 289.498 L1614.64 288.943 Q1609.41 287.901 1607.07 285.679 Q1604.73 283.457 1604.73 279.498 Q1604.73 274.915 1607.95 272.276 Q1611.19 269.637 1616.86 269.637 Q1619.29 269.637 1621.82 270.077 Q1624.34 270.517 1626.98 271.396 Z" fill="#000000" fill-rule="evenodd" fill-opacity="1" /><path clip-path="url(#clip460)" d="M1635.73 294.591 L1635.73 278.896 L1639.99 278.896 L1639.99 294.429 Q1639.99 298.109 1641.42 299.961 Q1642.86 301.79 1645.73 301.79 Q1649.18 301.79 1651.17 299.591 Q1653.18 297.392 1653.18 293.595 L1653.18 278.896 L1657.44 278.896 L1657.44 304.822 L1653.18 304.822 L1653.18 300.841 Q1651.63 303.202 1649.57 304.359 Q1647.53 305.494 1644.82 305.494 Q1640.36 305.494 1638.04 302.716 Q1635.73 299.938 1635.73 294.591 M1646.44 278.271 L1646.44 278.271 Z" fill="#000000" fill-rule="evenodd" fill-opacity="1" /><path clip-path="url(#clip460)" d="M1682.74 279.66 L1682.74 283.688 Q1680.94 282.762 1678.99 282.299 Q1677.05 281.836 1674.96 281.836 Q1671.79 281.836 1670.19 282.808 Q1668.62 283.781 1668.62 285.725 Q1668.62 287.207 1669.75 288.063 Q1670.89 288.896 1674.31 289.66 L1675.77 289.984 Q1680.31 290.957 1682.21 292.739 Q1684.13 294.498 1684.13 297.669 Q1684.13 301.281 1681.26 303.387 Q1678.41 305.494 1673.41 305.494 Q1671.33 305.494 1669.06 305.077 Q1666.81 304.683 1664.31 303.873 L1664.31 299.475 Q1666.68 300.702 1668.97 301.327 Q1671.26 301.929 1673.5 301.929 Q1676.51 301.929 1678.13 300.91 Q1679.75 299.869 1679.75 297.994 Q1679.75 296.257 1678.57 295.332 Q1677.42 294.406 1673.46 293.549 L1671.98 293.202 Q1668.02 292.369 1666.26 290.656 Q1664.5 288.92 1664.5 285.91 Q1664.5 282.253 1667.09 280.262 Q1669.69 278.271 1674.45 278.271 Q1676.81 278.271 1678.9 278.619 Q1680.98 278.966 1682.74 279.66 Z" fill="#000000" fill-rule="evenodd" fill-opacity="1" /><path clip-path="url(#clip460)" d="M1695.03 300.933 L1695.03 314.683 L1690.75 314.683 L1690.75 278.896 L1695.03 278.896 L1695.03 282.832 Q1696.37 280.517 1698.41 279.406 Q1700.47 278.271 1703.32 278.271 Q1708.04 278.271 1710.98 282.021 Q1713.94 285.771 1713.94 291.882 Q1713.94 297.994 1710.98 301.744 Q1708.04 305.494 1703.32 305.494 Q1700.47 305.494 1698.41 304.382 Q1696.37 303.248 1695.03 300.933 M1709.52 291.882 Q1709.52 287.183 1707.58 284.521 Q1705.66 281.836 1702.28 281.836 Q1698.9 281.836 1696.95 284.521 Q1695.03 287.183 1695.03 291.882 Q1695.03 296.582 1696.95 299.267 Q1698.9 301.929 1702.28 301.929 Q1705.66 301.929 1707.58 299.267 Q1709.52 296.582 1709.52 291.882 Z" fill="#000000" fill-rule="evenodd" fill-opacity="1" /><path clip-path="url(#clip460)" d="M1743.18 290.795 L1743.18 292.878 L1723.6 292.878 Q1723.87 297.276 1726.24 299.591 Q1728.62 301.882 1732.86 301.882 Q1735.31 301.882 1737.6 301.281 Q1739.92 300.679 1742.18 299.475 L1742.18 303.503 Q1739.89 304.475 1737.49 304.984 Q1735.08 305.494 1732.6 305.494 Q1726.4 305.494 1722.76 301.882 Q1719.15 298.271 1719.15 292.114 Q1719.15 285.748 1722.58 282.021 Q1726.03 278.271 1731.86 278.271 Q1737.09 278.271 1740.12 281.651 Q1743.18 285.008 1743.18 290.795 M1738.92 289.545 Q1738.87 286.049 1736.95 283.966 Q1735.06 281.883 1731.91 281.883 Q1728.34 281.883 1726.19 283.896 Q1724.06 285.91 1723.74 289.568 L1738.92 289.545 Z" fill="#000000" fill-rule="evenodd" fill-opacity="1" /><path clip-path="url(#clip460)" d="M1768.83 279.892 L1768.83 283.873 Q1767.02 282.878 1765.19 282.392 Q1763.39 281.883 1761.54 281.883 Q1757.39 281.883 1755.1 284.521 Q1752.81 287.137 1752.81 291.882 Q1752.81 296.628 1755.1 299.267 Q1757.39 301.882 1761.54 301.882 Q1763.39 301.882 1765.19 301.396 Q1767.02 300.887 1768.83 299.892 L1768.83 303.827 Q1767.05 304.66 1765.12 305.077 Q1763.23 305.494 1761.07 305.494 Q1755.22 305.494 1751.77 301.813 Q1748.32 298.132 1748.32 291.882 Q1748.32 285.54 1751.79 281.906 Q1755.29 278.271 1761.35 278.271 Q1763.32 278.271 1765.19 278.688 Q1767.07 279.082 1768.83 279.892 Z" fill="#000000" fill-rule="evenodd" fill-opacity="1" /><path clip-path="url(#clip460)" d="M1780.45 271.535 L1780.45 278.896 L1789.22 278.896 L1789.22 282.207 L1780.45 282.207 L1780.45 296.281 Q1780.45 299.452 1781.3 300.355 Q1782.18 301.257 1784.85 301.257 L1789.22 301.257 L1789.22 304.822 L1784.85 304.822 Q1779.92 304.822 1778.04 302.994 Q1776.17 301.142 1776.17 296.281 L1776.17 282.207 L1773.04 282.207 L1773.04 278.896 L1776.17 278.896 L1776.17 271.535 L1780.45 271.535 Z" fill="#000000" fill-rule="evenodd" fill-opacity="1" /><path clip-path="url(#clip460)" d="M1794.82 278.896 L1799.08 278.896 L1799.08 304.822 L1794.82 304.822 L1794.82 278.896 M1794.82 268.804 L1799.08 268.804 L1799.08 274.197 L1794.82 274.197 L1794.82 268.804 Z" fill="#000000" fill-rule="evenodd" fill-opacity="1" /><path clip-path="url(#clip460)" d="M1826.61 291.882 Q1826.61 287.183 1824.66 284.521 Q1822.74 281.836 1819.36 281.836 Q1815.98 281.836 1814.04 284.521 Q1812.11 287.183 1812.11 291.882 Q1812.11 296.582 1814.04 299.267 Q1815.98 301.929 1819.36 301.929 Q1822.74 301.929 1824.66 299.267 Q1826.61 296.582 1826.61 291.882 M1812.11 282.832 Q1813.46 280.517 1815.49 279.406 Q1817.55 278.271 1820.4 278.271 Q1825.12 278.271 1828.06 282.021 Q1831.03 285.771 1831.03 291.882 Q1831.03 297.994 1828.06 301.744 Q1825.12 305.494 1820.4 305.494 Q1817.55 305.494 1815.49 304.382 Q1813.46 303.248 1812.11 300.933 L1812.11 304.822 L1807.83 304.822 L1807.83 268.804 L1812.11 268.804 L1812.11 282.832 Z" fill="#000000" fill-rule="evenodd" fill-opacity="1" /><path clip-path="url(#clip460)" d="M1838.09 268.804 L1842.35 268.804 L1842.35 304.822 L1838.09 304.822 L1838.09 268.804 Z" fill="#000000" fill-rule="evenodd" fill-opacity="1" /><path clip-path="url(#clip460)" d="M1873.43 290.795 L1873.43 292.878 L1853.85 292.878 Q1854.13 297.276 1856.49 299.591 Q1858.87 301.882 1863.11 301.882 Q1865.56 301.882 1867.86 301.281 Q1870.17 300.679 1872.44 299.475 L1872.44 303.503 Q1870.15 304.475 1867.74 304.984 Q1865.33 305.494 1862.86 305.494 Q1856.65 305.494 1853.02 301.882 Q1849.41 298.271 1849.41 292.114 Q1849.41 285.748 1852.83 282.021 Q1856.28 278.271 1862.11 278.271 Q1867.35 278.271 1870.38 281.651 Q1873.43 285.008 1873.43 290.795 M1869.17 289.545 Q1869.13 286.049 1867.21 283.966 Q1865.31 281.883 1862.16 281.883 Q1858.6 281.883 1856.44 283.896 Q1854.31 285.91 1853.99 289.568 L1869.17 289.545 Z" fill="#000000" fill-rule="evenodd" fill-opacity="1" /><circle clip-path="url(#clip460)" cx="1525.41" cy="339.382" r="23.04" fill="#000000" fill-rule="evenodd" fill-opacity="1" stroke="none"/>
<path clip-path="url(#clip460)" d="M1609.41 325.945 L1609.41 352.82 L1615.06 352.82 Q1622.21 352.82 1625.52 349.579 Q1628.85 346.338 1628.85 339.347 Q1628.85 332.403 1625.52 329.186 Q1622.21 325.945 1615.06 325.945 L1609.41 325.945 M1604.73 322.102 L1614.34 322.102 Q1624.38 322.102 1629.08 326.292 Q1633.78 330.459 1633.78 339.347 Q1633.78 348.283 1629.06 352.472 Q1624.34 356.662 1614.34 356.662 L1604.73 356.662 L1604.73 322.102 Z" fill="#000000" fill-rule="evenodd" fill-opacity="1" /><path clip-path="url(#clip460)" d="M1652.83 343.63 Q1647.67 343.63 1645.68 344.81 Q1643.69 345.991 1643.69 348.838 Q1643.69 351.107 1645.17 352.449 Q1646.68 353.769 1649.25 353.769 Q1652.79 353.769 1654.92 351.269 Q1657.07 348.746 1657.07 344.579 L1657.07 343.63 L1652.83 343.63 M1661.33 341.871 L1661.33 356.662 L1657.07 356.662 L1657.07 352.727 Q1655.61 355.088 1653.44 356.222 Q1651.26 357.334 1648.11 357.334 Q1644.13 357.334 1641.77 355.111 Q1639.43 352.866 1639.43 349.116 Q1639.43 344.741 1642.35 342.519 Q1645.29 340.297 1651.1 340.297 L1657.07 340.297 L1657.07 339.88 Q1657.07 336.94 1655.13 335.343 Q1653.2 333.723 1649.71 333.723 Q1647.49 333.723 1645.38 334.255 Q1643.27 334.787 1641.33 335.852 L1641.33 331.917 Q1643.67 331.014 1645.87 330.574 Q1648.06 330.111 1650.15 330.111 Q1655.77 330.111 1658.55 333.028 Q1661.33 335.945 1661.33 341.871 Z" fill="#000000" fill-rule="evenodd" fill-opacity="1" /><path clip-path="url(#clip460)" d="M1674.31 323.375 L1674.31 330.736 L1683.09 330.736 L1683.09 334.047 L1674.31 334.047 L1674.31 348.121 Q1674.31 351.292 1675.17 352.195 Q1676.05 353.097 1678.71 353.097 L1683.09 353.097 L1683.09 356.662 L1678.71 356.662 Q1673.78 356.662 1671.91 354.834 Q1670.03 352.982 1670.03 348.121 L1670.03 334.047 L1666.91 334.047 L1666.91 330.736 L1670.03 330.736 L1670.03 323.375 L1674.31 323.375 Z" fill="#000000" fill-rule="evenodd" fill-opacity="1" /><path clip-path="url(#clip460)" d="M1700.47 343.63 Q1695.31 343.63 1693.32 344.81 Q1691.33 345.991 1691.33 348.838 Q1691.33 351.107 1692.81 352.449 Q1694.31 353.769 1696.88 353.769 Q1700.43 353.769 1702.56 351.269 Q1704.71 348.746 1704.71 344.579 L1704.71 343.63 L1700.47 343.63 M1708.97 341.871 L1708.97 356.662 L1704.71 356.662 L1704.71 352.727 Q1703.25 355.088 1701.07 356.222 Q1698.9 357.334 1695.75 357.334 Q1691.77 357.334 1689.41 355.111 Q1687.07 352.866 1687.07 349.116 Q1687.07 344.741 1689.99 342.519 Q1692.93 340.297 1698.74 340.297 L1704.71 340.297 L1704.71 339.88 Q1704.71 336.94 1702.76 335.343 Q1700.84 333.723 1697.35 333.723 Q1695.12 333.723 1693.02 334.255 Q1690.91 334.787 1688.97 335.852 L1688.97 331.917 Q1691.31 331.014 1693.5 330.574 Q1695.7 330.111 1697.79 330.111 Q1703.41 330.111 1706.19 333.028 Q1708.97 335.945 1708.97 341.871 Z" fill="#000000" fill-rule="evenodd" fill-opacity="1" /></svg>
